<svg width="433" height="328" viewBox="0 0 433 328" fill="none" xmlns="http://www.w3.org/2000/svg">
<g clip-path="url(#clip0_7043_4076)">
<g filter="url(#filter0_d_7043_4076)">
<path d="M16.7812 36C16.7812 24.9543 25.7356 16 36.7813 16H396.781C407.827 16 416.781 24.9543 416.781 36V292C416.781 303.046 407.827 312 396.781 312H36.7813C25.7356 312 16.7812 303.046 16.7812 292V36Z" fill="#262626"/>
<path d="M56.7812 68C56.7812 61.3726 62.1538 56 68.7812 56H108.781C115.409 56 120.781 61.3726 120.781 68V108C120.781 114.627 115.409 120 108.781 120H68.7812C62.1538 120 56.7812 114.627 56.7812 108V68Z" fill="black"/>
<path d="M103.781 79.6665V82.9999C103.781 83.4419 103.606 83.8658 103.293 84.1784C102.981 84.4909 102.557 84.6665 102.115 84.6665C99.7729 84.6624 97.4735 84.0415 95.4479 82.8665V93.8332C95.4484 95.7575 94.9364 97.6472 93.9644 99.308C92.9925 100.969 91.5957 102.341 89.9177 103.283C88.2397 104.225 86.3411 104.703 84.4171 104.668C82.4931 104.633 80.6132 104.086 78.9707 103.083C77.3281 102.081 75.9823 100.659 75.0715 98.9636C74.1607 97.2685 73.7179 95.3614 73.7886 93.4383C73.8592 91.5153 74.4408 89.6458 75.4736 88.0221C76.5063 86.3984 77.9529 85.0791 79.6646 84.1999C79.9207 84.0634 80.208 83.9962 80.4981 84.0049C80.7882 84.0136 81.0709 84.0979 81.3184 84.2494C81.5659 84.4009 81.7696 84.6145 81.9092 84.8689C82.0488 85.1232 82.1196 85.4097 82.1146 85.6999V89.8999C82.0968 90.2913 81.9298 90.661 81.6479 90.9332C81.0494 91.5386 80.6515 92.3135 80.5083 93.1528C80.3651 93.992 80.4835 94.855 80.8474 95.6247C81.2113 96.3944 81.8032 97.0335 82.5426 97.4554C83.2821 97.8773 84.1335 98.0616 84.9813 97.9832C86.0459 97.8477 87.0228 97.3235 87.7243 96.5112C88.4257 95.699 88.8022 94.6562 88.7813 93.5832V72.9999C88.7813 72.5578 88.9568 72.1339 89.2694 71.8213C89.582 71.5088 90.0059 71.3332 90.4479 71.3332H93.9646C94.3616 71.3274 94.7477 71.4636 95.0533 71.7172C95.3588 71.9708 95.5638 72.3252 95.6313 72.7165C95.9469 74.2047 96.7621 75.5402 97.9414 76.5013C99.1207 77.4623 100.593 77.9911 102.115 77.9999C102.557 77.9999 102.981 78.1754 103.293 78.488C103.606 78.8006 103.781 79.2245 103.781 79.6665Z" fill="#F9FAFB"/>
<path d="M57.9737 151.352V145.291H82.0568V151.352H73.7225V173H66.3081V151.352H57.9737ZM83.9962 173V152.218H91.4646V173H83.9962ZM87.7304 150.053C86.7202 150.053 85.8543 149.72 85.1327 149.052C84.4111 148.385 84.0503 147.582 84.0503 146.644C84.0503 145.706 84.4111 144.903 85.1327 144.236C85.8543 143.568 86.7202 143.234 87.7304 143.234C88.7497 143.234 89.6156 143.568 90.3281 144.236C91.0497 144.903 91.4105 145.706 91.4105 146.644C91.4105 147.582 91.0497 148.385 90.3281 149.052C89.6156 149.72 88.7497 150.053 87.7304 150.053ZM100.981 168.075L101.035 159.2H102.009L107.042 152.218H115.431L106.988 163.096H104.877L100.981 168.075ZM94.2699 173V145.291H101.738V173H94.2699ZM107.096 173L102.334 164.774L107.204 159.47L115.647 173H107.096ZM128.769 152.218V157.63H115.077V152.218H128.769ZM117.728 147.239H125.197V166.316C125.197 166.605 125.247 166.848 125.346 167.047C125.445 167.236 125.598 167.381 125.806 167.48C126.013 167.57 126.279 167.615 126.604 167.615C126.83 167.615 127.091 167.588 127.389 167.534C127.695 167.48 127.921 167.435 128.065 167.399L129.148 172.648C128.814 172.747 128.336 172.869 127.713 173.014C127.1 173.158 126.37 173.253 125.522 173.298C123.808 173.388 122.369 173.212 121.206 172.77C120.042 172.319 119.167 171.611 118.581 170.646C117.995 169.681 117.71 168.472 117.728 167.02V147.239ZM140.605 173.379C138.35 173.379 136.42 172.932 134.814 172.039C133.209 171.137 131.978 169.884 131.121 168.278C130.264 166.664 129.835 164.792 129.835 162.663C129.835 160.535 130.264 158.667 131.121 157.062C131.978 155.447 133.209 154.194 134.814 153.301C136.42 152.399 138.35 151.948 140.605 151.948C142.86 151.948 144.79 152.399 146.396 153.301C148.002 154.194 149.233 155.447 150.09 157.062C150.947 158.667 151.375 160.535 151.375 162.663C151.375 164.792 150.947 166.664 150.09 168.278C149.233 169.884 148.002 171.137 146.396 172.039C144.79 172.932 142.86 173.379 140.605 173.379ZM140.659 167.859C141.291 167.859 141.836 167.647 142.296 167.223C142.756 166.799 143.113 166.194 143.365 165.41C143.618 164.625 143.744 163.691 143.744 162.609C143.744 161.518 143.618 160.584 143.365 159.808C143.113 159.024 142.756 158.419 142.296 157.995C141.836 157.571 141.291 157.36 140.659 157.36C139.992 157.36 139.419 157.571 138.941 157.995C138.463 158.419 138.098 159.024 137.845 159.808C137.593 160.584 137.466 161.518 137.466 162.609C137.466 163.691 137.593 164.625 137.845 165.41C138.098 166.194 138.463 166.799 138.941 167.223C139.419 167.647 139.992 167.859 140.659 167.859ZM160.116 168.075L160.171 159.2H161.145L166.178 152.218H174.566L166.124 163.096H164.013L160.116 168.075ZM153.406 173V145.291H160.874V173H153.406ZM166.232 173L161.469 164.774L166.34 159.47L174.783 173H166.232Z" fill="white"/>
<path d="M57.9597 209.161V207.255H71.2687V209.161H65.6886V225H63.5398V209.161H57.9597ZM77.958 225.277C76.6756 225.277 75.5694 224.994 74.6393 224.428C73.7151 223.856 73.0017 223.059 72.4991 222.037C72.0024 221.008 71.754 219.813 71.754 218.449C71.754 217.086 72.0024 215.885 72.4991 214.845C73.0017 213.799 73.7007 212.985 74.596 212.401C75.4972 211.812 76.5485 211.518 77.75 211.518C78.4432 211.518 79.1277 211.633 79.8036 211.864C80.4794 212.095 81.0946 212.471 81.6491 212.991C82.2037 213.505 82.6456 214.186 82.9749 215.036C83.3041 215.885 83.4687 216.93 83.4687 218.172V219.039H73.2097V217.271H81.3892C81.3892 216.52 81.239 215.85 80.9386 215.261C80.644 214.672 80.2223 214.207 79.6736 213.866C79.1306 213.525 78.4894 213.355 77.75 213.355C76.9355 213.355 76.2308 213.557 75.6358 213.961C75.0466 214.36 74.5931 214.88 74.2754 215.521C73.9577 216.162 73.7989 216.849 73.7989 217.583V218.761C73.7989 219.766 73.9722 220.619 74.3187 221.317C74.6711 222.011 75.1592 222.539 75.7831 222.903C76.407 223.261 77.1319 223.44 77.958 223.44C78.4952 223.44 78.9804 223.365 79.4136 223.215C79.8527 223.059 80.231 222.828 80.5487 222.522C80.8664 222.21 81.1119 221.823 81.2852 221.361L83.2608 221.915C83.0528 222.585 82.7034 223.175 82.2124 223.683C81.7214 224.186 81.1148 224.578 80.3928 224.861C79.6707 225.139 78.8591 225.277 77.958 225.277ZM88.6243 216.994V225H86.5794V211.691H88.555V213.77H88.7283C89.0402 213.095 89.5139 212.552 90.1493 212.141C90.7847 211.726 91.605 211.518 92.6101 211.518C93.5112 211.518 94.2997 211.702 94.9756 212.072C95.6514 212.436 96.1771 212.991 96.5526 213.736C96.928 214.475 97.1158 215.411 97.1158 216.543V225H95.0709V216.682C95.0709 215.636 94.7994 214.822 94.2564 214.238C93.7134 213.649 92.9682 213.355 92.0209 213.355C91.3681 213.355 90.7847 213.496 90.2706 213.779C89.7623 214.062 89.3608 214.475 89.0662 215.018C88.7716 215.561 88.6243 216.22 88.6243 216.994ZM105.878 225.277C104.769 225.277 103.79 224.997 102.941 224.437C102.092 223.871 101.427 223.074 100.948 222.045C100.468 221.011 100.229 219.79 100.229 218.38C100.229 216.982 100.468 215.769 100.948 214.741C101.427 213.713 102.094 212.918 102.949 212.358C103.804 211.798 104.792 211.518 105.913 211.518C106.779 211.518 107.464 211.662 107.966 211.951C108.475 212.234 108.862 212.557 109.127 212.921C109.399 213.279 109.61 213.574 109.76 213.805H109.933V207.255H111.978V225H110.002V222.955H109.76C109.61 223.198 109.396 223.504 109.119 223.874C108.841 224.237 108.446 224.564 107.932 224.853C107.417 225.136 106.733 225.277 105.878 225.277ZM106.155 223.44C106.976 223.44 107.669 223.227 108.235 222.799C108.801 222.366 109.231 221.768 109.526 221.006C109.82 220.237 109.968 219.351 109.968 218.345C109.968 217.352 109.823 216.483 109.535 215.737C109.246 214.986 108.818 214.403 108.252 213.987C107.686 213.565 106.987 213.355 106.155 213.355C105.289 213.355 104.567 213.577 103.989 214.022C103.417 214.461 102.987 215.059 102.698 215.815C102.415 216.566 102.273 217.41 102.273 218.345C102.273 219.293 102.418 220.154 102.707 220.928C103.001 221.696 103.435 222.308 104.006 222.764C104.584 223.215 105.3 223.44 106.155 223.44ZM121.587 225.277C120.305 225.277 119.199 224.994 118.269 224.428C117.344 223.856 116.631 223.059 116.128 222.037C115.632 221.008 115.383 219.813 115.383 218.449C115.383 217.086 115.632 215.885 116.128 214.845C116.631 213.799 117.33 212.985 118.225 212.401C119.126 211.812 120.178 211.518 121.379 211.518C122.072 211.518 122.757 211.633 123.433 211.864C124.109 212.095 124.724 212.471 125.278 212.991C125.833 213.505 126.275 214.186 126.604 215.036C126.933 215.885 127.098 216.93 127.098 218.172V219.039H116.839V217.271H125.018C125.018 216.52 124.868 215.85 124.568 215.261C124.273 214.672 123.852 214.207 123.303 213.866C122.76 213.525 122.119 213.355 121.379 213.355C120.565 213.355 119.86 213.557 119.265 213.961C118.676 214.36 118.222 214.88 117.905 215.521C117.587 216.162 117.428 216.849 117.428 217.583V218.761C117.428 219.766 117.601 220.619 117.948 221.317C118.3 222.011 118.789 222.539 119.412 222.903C120.036 223.261 120.761 223.44 121.587 223.44C122.124 223.44 122.61 223.365 123.043 223.215C123.482 223.059 123.86 222.828 124.178 222.522C124.496 222.21 124.741 221.823 124.915 221.361L126.89 221.915C126.682 222.585 126.333 223.175 125.842 223.683C125.351 224.186 124.744 224.578 124.022 224.861C123.3 225.139 122.488 225.277 121.587 225.277ZM132.254 216.994V225H130.209V211.691H132.184V213.77H132.358C132.669 213.095 133.143 212.552 133.779 212.141C134.414 211.726 135.234 211.518 136.239 211.518C137.141 211.518 137.929 211.702 138.605 212.072C139.281 212.436 139.806 212.991 140.182 213.736C140.557 214.475 140.745 215.411 140.745 216.543V225H138.7V216.682C138.7 215.636 138.429 214.822 137.886 214.238C137.343 213.649 136.598 213.355 135.65 213.355C134.997 213.355 134.414 213.496 133.9 213.779C133.392 214.062 132.99 214.475 132.695 215.018C132.401 215.561 132.254 216.22 132.254 216.994ZM149.889 225.277C148.641 225.277 147.566 224.983 146.665 224.393C145.764 223.804 145.071 222.993 144.586 221.959C144.1 220.925 143.858 219.743 143.858 218.415C143.858 217.063 144.106 215.87 144.603 214.836C145.106 213.796 145.805 212.985 146.7 212.401C147.601 211.812 148.652 211.518 149.854 211.518C150.79 211.518 151.633 211.691 152.384 212.038C153.135 212.384 153.75 212.869 154.23 213.493C154.709 214.117 155.007 214.845 155.122 215.677H153.077C152.921 215.07 152.575 214.533 152.037 214.065C151.506 213.591 150.79 213.355 149.889 213.355C149.091 213.355 148.392 213.562 147.792 213.978C147.197 214.389 146.732 214.969 146.397 215.72C146.067 216.465 145.903 217.34 145.903 218.345C145.903 219.374 146.065 220.269 146.388 221.032C146.717 221.794 147.179 222.386 147.774 222.808C148.375 223.229 149.08 223.44 149.889 223.44C150.42 223.44 150.902 223.348 151.336 223.163C151.769 222.978 152.136 222.713 152.436 222.366C152.736 222.019 152.95 221.603 153.077 221.118H155.122C155.007 221.904 154.721 222.611 154.264 223.241C153.814 223.865 153.216 224.362 152.471 224.731C151.731 225.095 150.871 225.277 149.889 225.277ZM158.111 225V211.691H160.156V225H158.111ZM159.151 209.473C158.753 209.473 158.409 209.337 158.12 209.065C157.837 208.794 157.696 208.468 157.696 208.086C157.696 207.705 157.837 207.379 158.12 207.107C158.409 206.836 158.753 206.7 159.151 206.7C159.55 206.7 159.891 206.836 160.174 207.107C160.462 207.379 160.607 207.705 160.607 208.086C160.607 208.468 160.462 208.794 160.174 209.065C159.891 209.337 159.55 209.473 159.151 209.473ZM167.818 225.312C166.975 225.312 166.209 225.153 165.522 224.835C164.835 224.512 164.289 224.047 163.884 223.44C163.48 222.828 163.278 222.089 163.278 221.222C163.278 220.46 163.428 219.842 163.728 219.368C164.029 218.888 164.43 218.513 164.933 218.241C165.435 217.97 165.99 217.768 166.596 217.635C167.209 217.496 167.824 217.387 168.442 217.306C169.251 217.202 169.906 217.124 170.409 217.072C170.917 217.014 171.287 216.919 171.518 216.786C171.755 216.653 171.873 216.422 171.873 216.093V216.023C171.873 215.168 171.639 214.504 171.171 214.03C170.709 213.557 170.007 213.32 169.066 213.32C168.09 213.32 167.324 213.534 166.77 213.961C166.215 214.389 165.825 214.845 165.6 215.33L163.659 214.637C164.006 213.828 164.468 213.199 165.045 212.748C165.629 212.292 166.264 211.974 166.952 211.795C167.645 211.61 168.326 211.518 168.997 211.518C169.424 211.518 169.915 211.57 170.47 211.674C171.03 211.772 171.57 211.977 172.09 212.289C172.616 212.601 173.052 213.071 173.398 213.701C173.745 214.331 173.918 215.174 173.918 216.231V225H171.873V223.198H171.769C171.631 223.487 171.4 223.796 171.076 224.125C170.753 224.454 170.322 224.734 169.785 224.965C169.248 225.196 168.592 225.312 167.818 225.312ZM168.13 223.475C168.939 223.475 169.62 223.316 170.175 222.998C170.735 222.681 171.157 222.271 171.44 221.768C171.729 221.265 171.873 220.737 171.873 220.182V218.311C171.787 218.415 171.596 218.51 171.301 218.597C171.013 218.678 170.678 218.75 170.296 218.813C169.921 218.871 169.554 218.923 169.196 218.969C168.843 219.01 168.558 219.044 168.338 219.073C167.807 219.143 167.31 219.255 166.848 219.411C166.391 219.561 166.022 219.79 165.739 220.096C165.461 220.396 165.323 220.806 165.323 221.326C165.323 222.037 165.586 222.574 166.111 222.938C166.643 223.296 167.316 223.475 168.13 223.475ZM187.078 214.672L185.241 215.191C185.125 214.885 184.955 214.588 184.73 214.299C184.51 214.004 184.21 213.762 183.828 213.571C183.447 213.381 182.959 213.285 182.364 213.285C181.55 213.285 180.871 213.473 180.328 213.848C179.791 214.218 179.522 214.689 179.522 215.261C179.522 215.769 179.707 216.171 180.077 216.465C180.446 216.76 181.024 217.005 181.81 217.202L183.785 217.687C184.975 217.976 185.862 218.418 186.445 219.013C187.029 219.602 187.32 220.361 187.32 221.291C187.32 222.054 187.101 222.736 186.662 223.336C186.229 223.937 185.622 224.411 184.842 224.757C184.062 225.104 183.156 225.277 182.122 225.277C180.764 225.277 179.641 224.983 178.751 224.393C177.861 223.804 177.298 222.944 177.061 221.811L179.002 221.326C179.187 222.042 179.537 222.58 180.051 222.938C180.571 223.296 181.249 223.475 182.087 223.475C183.04 223.475 183.797 223.273 184.357 222.868C184.923 222.458 185.206 221.967 185.206 221.395C185.206 220.933 185.044 220.546 184.721 220.234C184.397 219.917 183.901 219.68 183.231 219.524L181.012 219.004C179.794 218.715 178.898 218.267 178.326 217.661C177.76 217.049 177.477 216.283 177.477 215.365C177.477 214.614 177.688 213.95 178.11 213.372C178.537 212.794 179.118 212.341 179.851 212.012C180.591 211.682 181.428 211.518 182.364 211.518C183.681 211.518 184.715 211.806 185.466 212.384C186.223 212.962 186.76 213.724 187.078 214.672ZM198.578 229.991C198.231 229.991 197.922 229.962 197.651 229.904C197.379 229.852 197.192 229.8 197.088 229.748L197.608 227.946C198.104 228.073 198.543 228.119 198.925 228.085C199.306 228.05 199.644 227.88 199.938 227.573C200.239 227.273 200.513 226.785 200.762 226.109L201.143 225.069L196.221 211.691H198.439L202.113 222.297H202.252L205.926 211.691H208.144L202.495 226.941C202.24 227.628 201.926 228.197 201.55 228.648C201.175 229.104 200.739 229.442 200.242 229.662C199.751 229.881 199.196 229.991 198.578 229.991ZM217.706 225V211.691H219.681V213.701H219.82C220.062 213.043 220.501 212.508 221.137 212.098C221.772 211.688 222.489 211.483 223.286 211.483C223.436 211.483 223.624 211.486 223.849 211.492C224.074 211.497 224.245 211.506 224.36 211.518V213.597C224.291 213.58 224.132 213.554 223.884 213.519C223.641 213.479 223.384 213.459 223.112 213.459C222.465 213.459 221.888 213.594 221.379 213.866C220.877 214.131 220.478 214.501 220.184 214.975C219.895 215.443 219.75 215.977 219.75 216.578V225H217.706ZM231.959 225.277C230.677 225.277 229.571 224.994 228.641 224.428C227.716 223.856 227.003 223.059 226.5 222.037C226.004 221.008 225.755 219.813 225.755 218.449C225.755 217.086 226.004 215.885 226.5 214.845C227.003 213.799 227.702 212.985 228.597 212.401C229.498 211.812 230.55 211.518 231.751 211.518C232.444 211.518 233.129 211.633 233.805 211.864C234.481 212.095 235.096 212.471 235.65 212.991C236.205 213.505 236.647 214.186 236.976 215.036C237.305 215.885 237.47 216.93 237.47 218.172V219.039H227.211V217.271H235.39C235.39 216.52 235.24 215.85 234.94 215.261C234.645 214.672 234.224 214.207 233.675 213.866C233.132 213.525 232.491 213.355 231.751 213.355C230.937 213.355 230.232 213.557 229.637 213.961C229.048 214.36 228.594 214.88 228.277 215.521C227.959 216.162 227.8 216.849 227.8 217.583V218.761C227.8 219.766 227.973 220.619 228.32 221.317C228.672 222.011 229.16 222.539 229.784 222.903C230.408 223.261 231.133 223.44 231.959 223.44C232.496 223.44 232.982 223.365 233.415 223.215C233.854 223.059 234.232 222.828 234.55 222.522C234.868 222.21 235.113 221.823 235.286 221.361L237.262 221.915C237.054 222.585 236.705 223.175 236.214 223.683C235.723 224.186 235.116 224.578 234.394 224.861C233.672 225.139 232.86 225.277 231.959 225.277ZM246.369 211.691V213.424H239.471V211.691H246.369ZM241.482 208.502H243.527V221.188C243.527 221.765 243.61 222.198 243.778 222.487C243.951 222.77 244.171 222.961 244.436 223.059C244.708 223.152 244.994 223.198 245.294 223.198C245.519 223.198 245.704 223.186 245.849 223.163C245.993 223.134 246.109 223.111 246.195 223.094L246.611 224.931C246.473 224.983 246.279 225.035 246.031 225.087C245.782 225.144 245.468 225.173 245.086 225.173C244.509 225.173 243.943 225.049 243.388 224.801C242.839 224.552 242.383 224.174 242.019 223.666C241.661 223.157 241.482 222.516 241.482 221.742V208.502ZM254.708 225.277C253.507 225.277 252.453 224.991 251.546 224.419C250.645 223.848 249.94 223.048 249.432 222.019C248.929 220.991 248.678 219.79 248.678 218.415C248.678 217.028 248.929 215.818 249.432 214.784C249.94 213.75 250.645 212.947 251.546 212.375C252.453 211.804 253.507 211.518 254.708 211.518C255.91 211.518 256.961 211.804 257.862 212.375C258.769 212.947 259.474 213.75 259.977 214.784C260.485 215.818 260.739 217.028 260.739 218.415C260.739 219.79 260.485 220.991 259.977 222.019C259.474 223.048 258.769 223.848 257.862 224.419C256.961 224.991 255.91 225.277 254.708 225.277ZM254.708 223.44C255.621 223.44 256.372 223.206 256.961 222.738C257.551 222.271 257.987 221.655 258.27 220.893C258.553 220.13 258.694 219.304 258.694 218.415C258.694 217.525 258.553 216.696 258.27 215.928C257.987 215.16 257.551 214.539 256.961 214.065C256.372 213.591 255.621 213.355 254.708 213.355C253.796 213.355 253.045 213.591 252.456 214.065C251.866 214.539 251.43 215.16 251.147 215.928C250.864 216.696 250.723 217.525 250.723 218.415C250.723 219.304 250.864 220.13 251.147 220.893C251.43 221.655 251.866 222.271 252.456 222.738C253.045 223.206 253.796 223.44 254.708 223.44ZM273.288 214.672L271.451 215.191C271.335 214.885 271.165 214.588 270.94 214.299C270.72 214.004 270.42 213.762 270.039 213.571C269.657 213.381 269.169 213.285 268.574 213.285C267.76 213.285 267.081 213.473 266.538 213.848C266.001 214.218 265.732 214.689 265.732 215.261C265.732 215.769 265.917 216.171 266.287 216.465C266.656 216.76 267.234 217.005 268.02 217.202L269.995 217.687C271.185 217.976 272.072 218.418 272.655 219.013C273.239 219.602 273.531 220.361 273.531 221.291C273.531 222.054 273.311 222.736 272.872 223.336C272.439 223.937 271.832 224.411 271.052 224.757C270.273 225.104 269.366 225.277 268.332 225.277C266.974 225.277 265.851 224.983 264.961 224.393C264.071 223.804 263.508 222.944 263.271 221.811L265.212 221.326C265.397 222.042 265.747 222.58 266.261 222.938C266.781 223.296 267.459 223.475 268.297 223.475C269.25 223.475 270.007 223.273 270.567 222.868C271.133 222.458 271.416 221.967 271.416 221.395C271.416 220.933 271.255 220.546 270.931 220.234C270.608 219.917 270.111 219.68 269.441 219.524L267.223 219.004C266.004 218.715 265.108 218.267 264.537 217.661C263.97 217.049 263.687 216.283 263.687 215.365C263.687 214.614 263.898 213.95 264.32 213.372C264.747 212.794 265.328 212.341 266.062 212.012C266.801 211.682 267.638 211.518 268.574 211.518C269.891 211.518 270.925 211.806 271.676 212.384C272.433 212.962 272.97 213.724 273.288 214.672ZM69.5358 248.691L64.6142 262H62.5347L57.6131 248.691H59.8312L63.5051 259.297H63.6437L67.3176 248.691H69.5358ZM72.2349 262V248.691H74.2798V262H72.2349ZM73.2746 246.473C72.8761 246.473 72.5324 246.337 72.2435 246.065C71.9605 245.794 71.819 245.468 71.819 245.086C71.819 244.705 71.9605 244.379 72.2435 244.107C72.5324 243.836 72.8761 243.7 73.2746 243.7C73.6732 243.7 74.014 243.836 74.2971 244.107C74.5859 244.379 74.7303 244.705 74.7303 245.086C74.7303 245.468 74.5859 245.794 74.2971 246.065C74.014 246.337 73.6732 246.473 73.2746 246.473ZM78.0251 262V248.691H80.0007V250.701H80.1393C80.3819 250.043 80.8209 249.508 81.4564 249.098C82.0918 248.688 82.8081 248.483 83.6052 248.483C83.7554 248.483 83.9431 248.486 84.1684 248.492C84.3937 248.497 84.5641 248.506 84.6797 248.518V250.597C84.6103 250.58 84.4515 250.554 84.2031 250.519C83.9605 250.479 83.7034 250.459 83.4319 250.459C82.785 250.459 82.2073 250.594 81.699 250.866C81.1964 251.131 80.7978 251.501 80.5032 251.975C80.2144 252.443 80.07 252.977 80.07 253.578V262H78.0251ZM91.0201 262.312C90.1767 262.312 89.4113 262.153 88.7239 261.835C88.0365 261.512 87.4906 261.047 87.0863 260.44C86.6819 259.828 86.4798 259.089 86.4798 258.222C86.4798 257.46 86.6299 256.842 86.9303 256.368C87.2307 255.888 87.6322 255.513 88.1347 255.241C88.6373 254.97 89.1918 254.768 89.7984 254.635C90.4107 254.496 91.0259 254.387 91.644 254.306C92.4527 254.202 93.1083 254.124 93.6109 254.072C94.1192 254.014 94.4889 253.919 94.72 253.786C94.9568 253.653 95.0752 253.422 95.0752 253.093V253.023C95.0752 252.168 94.8413 251.504 94.3734 251.03C93.9112 250.557 93.2094 250.32 92.2678 250.32C91.2916 250.32 90.5262 250.534 89.9717 250.961C89.4171 251.389 89.0272 251.845 88.8019 252.33L86.861 251.637C87.2076 250.828 87.6697 250.199 88.2474 249.748C88.8308 249.292 89.4662 248.974 90.1536 248.795C90.8468 248.61 91.5284 248.518 92.1985 248.518C92.626 248.518 93.117 248.57 93.6715 248.674C94.2318 248.772 94.7719 248.977 95.2918 249.289C95.8175 249.601 96.2536 250.071 96.6002 250.701C96.9468 251.331 97.1201 252.174 97.1201 253.231V262H95.0752V260.198H94.9712C94.8326 260.487 94.6015 260.796 94.2781 261.125C93.9546 261.454 93.5242 261.734 92.987 261.965C92.4498 262.196 91.7942 262.312 91.0201 262.312ZM91.332 260.475C92.1407 260.475 92.8224 260.316 93.3769 259.998C93.9372 259.681 94.3589 259.271 94.642 258.768C94.9308 258.265 95.0752 257.737 95.0752 257.182V255.311C94.9886 255.415 94.7979 255.51 94.5033 255.597C94.2145 255.678 93.8795 255.75 93.4982 255.813C93.1228 255.871 92.7559 255.923 92.3978 255.969C92.0454 256.01 91.7595 256.044 91.54 256.073C91.0085 256.143 90.5118 256.255 90.0496 256.411C89.5933 256.561 89.2236 256.79 88.9406 257.096C88.6633 257.396 88.5246 257.806 88.5246 258.326C88.5246 259.037 88.7875 259.574 89.3131 259.938C89.8446 260.296 90.5175 260.475 91.332 260.475ZM102.897 244.255V262H100.852V244.255H102.897ZM112.223 262.277C110.94 262.277 109.834 261.994 108.904 261.428C107.98 260.856 107.267 260.059 106.764 259.037C106.267 258.008 106.019 256.813 106.019 255.449C106.019 254.086 106.267 252.885 106.764 251.845C107.267 250.799 107.966 249.985 108.861 249.401C109.762 248.812 110.813 248.518 112.015 248.518C112.708 248.518 113.393 248.633 114.068 248.864C114.744 249.095 115.359 249.471 115.914 249.991C116.469 250.505 116.91 251.186 117.24 252.036C117.569 252.885 117.734 253.93 117.734 255.172V256.039H107.475V254.271H115.654C115.654 253.52 115.504 252.85 115.203 252.261C114.909 251.672 114.487 251.207 113.938 250.866C113.395 250.525 112.754 250.355 112.015 250.355C111.2 250.355 110.496 250.557 109.901 250.961C109.311 251.36 108.858 251.88 108.54 252.521C108.223 253.162 108.064 253.849 108.064 254.583V255.761C108.064 256.766 108.237 257.619 108.584 258.317C108.936 259.011 109.424 259.539 110.048 259.903C110.672 260.261 111.397 260.44 112.223 260.44C112.76 260.44 113.245 260.365 113.678 260.215C114.117 260.059 114.496 259.828 114.814 259.522C115.131 259.21 115.377 258.823 115.55 258.361L117.526 258.915C117.318 259.585 116.968 260.175 116.477 260.683C115.986 261.186 115.38 261.578 114.658 261.861C113.936 262.139 113.124 262.277 112.223 262.277ZM130.272 251.672L128.435 252.191C128.319 251.885 128.149 251.588 127.923 251.299C127.704 251.004 127.403 250.762 127.022 250.571C126.641 250.381 126.153 250.285 125.558 250.285C124.743 250.285 124.065 250.473 123.522 250.848C122.984 251.218 122.716 251.689 122.716 252.261C122.716 252.769 122.901 253.171 123.27 253.465C123.64 253.76 124.218 254.005 125.003 254.202L126.979 254.687C128.169 254.976 129.056 255.418 129.639 256.013C130.222 256.602 130.514 257.361 130.514 258.291C130.514 259.054 130.295 259.736 129.856 260.336C129.422 260.937 128.816 261.411 128.036 261.757C127.256 262.104 126.349 262.277 125.315 262.277C123.958 262.277 122.834 261.983 121.945 261.393C121.055 260.804 120.492 259.944 120.255 258.811L122.196 258.326C122.381 259.042 122.73 259.58 123.244 259.938C123.764 260.296 124.443 260.475 125.281 260.475C126.234 260.475 126.99 260.273 127.551 259.868C128.117 259.458 128.4 258.967 128.4 258.395C128.4 257.933 128.238 257.546 127.915 257.234C127.591 256.917 127.094 256.68 126.424 256.524L124.206 256.004C122.987 255.715 122.092 255.267 121.52 254.661C120.954 254.049 120.671 253.283 120.671 252.365C120.671 251.614 120.882 250.95 121.303 250.372C121.731 249.794 122.311 249.341 123.045 249.012C123.784 248.682 124.622 248.518 125.558 248.518C126.875 248.518 127.909 248.806 128.66 249.384C129.417 249.962 129.954 250.724 130.272 251.672ZM135.083 262.139C134.655 262.139 134.288 261.986 133.982 261.679C133.676 261.373 133.523 261.006 133.523 260.579C133.523 260.152 133.676 259.785 133.982 259.479C134.288 259.172 134.655 259.019 135.083 259.019C135.51 259.019 135.877 259.172 136.183 259.479C136.489 259.785 136.642 260.152 136.642 260.579C136.642 260.862 136.57 261.122 136.426 261.359C136.287 261.596 136.099 261.786 135.862 261.931C135.631 262.069 135.371 262.139 135.083 262.139Z" fill="white"/>
</g>
</g>
<path d="M20.7812 2H412.781C422.722 2 430.781 10.0589 430.781 20V326H2.78125V20C2.78125 10.0589 10.8401 2 20.7812 2Z" stroke="url(#paint0_linear_7043_4076)" stroke-width="4"/>
<defs>
<filter id="filter0_d_7043_4076" x="-21.2188" y="3" width="476" height="372" filterUnits="userSpaceOnUse" color-interpolation-filters="sRGB">
<feFlood flood-opacity="0" result="BackgroundImageFix"/>
<feColorMatrix in="SourceAlpha" type="matrix" values="0 0 0 0 0 0 0 0 0 0 0 0 0 0 0 0 0 0 127 0" result="hardAlpha"/>
<feMorphology radius="12" operator="erode" in="SourceAlpha" result="effect1_dropShadow_7043_4076"/>
<feOffset dy="25"/>
<feGaussianBlur stdDeviation="25"/>
<feColorMatrix type="matrix" values="0 0 0 0 0 0 0 0 0 0 0 0 0 0 0 0 0 0 0.25 0"/>
<feBlend mode="normal" in2="BackgroundImageFix" result="effect1_dropShadow_7043_4076"/>
<feBlend mode="normal" in="SourceGraphic" in2="effect1_dropShadow_7043_4076" result="shape"/>
</filter>
<linearGradient id="paint0_linear_7043_4076" x1="216.781" y1="0" x2="216.781" y2="328" gradientUnits="userSpaceOnUse">
<stop stop-color="#262626"/>
<stop offset="0.505" stop-color="#262626" stop-opacity="0"/>
</linearGradient>
<clipPath id="clip0_7043_4076">
<path d="M0.78125 20C0.78125 8.95431 9.73556 0 20.7813 0H412.781C423.827 0 432.781 8.95431 432.781 20V328H0.78125V20Z" fill="white"/>
</clipPath>
</defs>
</svg>
