<svg width="433" height="328" viewBox="0 0 433 328" fill="none" xmlns="http://www.w3.org/2000/svg">
<g clip-path="url(#clip0_7043_4046)">
<g filter="url(#filter0_d_7043_4046)">
<path d="M16.7812 36C16.7812 24.9543 25.7356 16 36.7813 16H396.781C407.827 16 416.781 24.9543 416.781 36V292C416.781 303.046 407.827 312 396.781 312H36.7813C25.7356 312 16.7812 303.046 16.7812 292V36Z" fill="#292D42"/>
<path d="M56.7812 68C56.7812 61.3726 62.1538 56 68.7812 56H108.781C115.409 56 120.781 61.3726 120.781 68V108C120.781 114.627 115.409 120 108.781 120H68.7812C62.1538 120 56.7812 114.627 56.7812 108V68Z" fill="#7289DA"/>
<g clip-path="url(#clip1_7043_4046)">
<mask id="mask0_7043_4046" style="mask-type:luminance" maskUnits="userSpaceOnUse" x="68" y="67" width="41" height="41">
<path d="M108.781 67.1665H68.7812V107.167H108.781V67.1665Z" fill="white"/>
</mask>
<g mask="url(#mask0_7043_4046)">
<path d="M102.643 74.7349C100.093 73.5461 97.3596 72.6702 94.5011 72.1686C94.4491 72.1589 94.3971 72.1831 94.3702 72.2315C94.0186 72.867 93.6291 73.6961 93.3564 74.3477C90.2819 73.88 87.2232 73.88 84.2118 74.3477C83.939 73.6816 83.5354 72.867 83.1822 72.2315C83.1554 72.1847 83.1034 72.1605 83.0513 72.1686C80.1944 72.6686 77.4605 73.5445 74.9095 74.7349C74.8874 74.7445 74.8685 74.7607 74.8559 74.7816C69.6702 82.6546 68.2497 90.334 68.9466 97.9182C68.9497 97.9553 68.9702 97.9908 68.9986 98.0133C72.4199 100.567 75.7341 102.117 78.9867 103.144C79.0388 103.16 79.0939 103.141 79.127 103.097C79.8965 102.03 80.5823 100.904 81.1704 99.7198C81.2051 99.6505 81.1719 99.5682 81.101 99.5408C80.0131 99.1215 78.9772 98.6102 77.9808 98.0295C77.902 97.9827 77.8957 97.8682 77.9682 97.8133C78.1779 97.6537 78.3876 97.4875 78.5878 97.3197C78.6241 97.2892 78.6746 97.2827 78.7171 97.302C85.2634 100.339 92.3504 100.339 98.8196 97.302C98.8621 97.281 98.9126 97.2875 98.9504 97.3182C99.1506 97.4858 99.3604 97.6537 99.5716 97.8133C99.6441 97.8682 99.6394 97.9827 99.5606 98.0295C98.5641 98.6213 97.5282 99.1215 96.4387 99.5392C96.3679 99.5667 96.3363 99.6505 96.3709 99.7198C96.9718 100.902 97.6576 102.028 98.4127 103.096C98.4442 103.141 98.5011 103.16 98.5531 103.144C101.821 102.117 105.136 100.567 108.557 98.0133C108.587 97.9908 108.606 97.9568 108.609 97.9198C109.443 89.1517 107.212 81.5352 102.695 74.7832C102.684 74.7607 102.665 74.7445 102.643 74.7349ZM82.1479 93.3002C80.1771 93.3002 78.5531 91.4615 78.5531 89.2032C78.5531 86.945 80.1456 85.1063 82.1479 85.1063C84.166 85.1063 85.7742 86.9612 85.7427 89.2032C85.7427 91.4615 84.1503 93.3002 82.1479 93.3002ZM95.4391 93.3002C93.4684 93.3002 91.8444 91.4615 91.8444 89.2032C91.8444 86.945 93.4368 85.1063 95.4391 85.1063C97.4572 85.1063 99.0654 86.9612 99.0339 89.2032C99.0339 91.4615 97.4572 93.3002 95.4391 93.3002Z" fill="white"/>
</g>
</g>
<path d="M69.5193 173H58.8578V145.291H69.411C72.2613 145.291 74.7237 145.846 76.7983 146.955C78.8819 148.056 80.4875 149.643 81.6149 151.718C82.7514 153.783 83.3197 156.259 83.3197 159.145C83.3197 162.032 82.756 164.512 81.6285 166.587C80.501 168.652 78.9045 170.24 76.8389 171.349C74.7734 172.45 72.3335 173 69.5193 173ZM66.3804 166.614H69.2487C70.6197 166.614 71.7878 166.393 72.7529 165.951C73.7271 165.509 74.4667 164.747 74.9718 163.664C75.4859 162.582 75.743 161.076 75.743 159.145C75.743 157.215 75.4814 155.709 74.9583 154.626C74.4441 153.544 73.6865 152.782 72.6853 152.34C71.6931 151.898 70.4754 151.677 69.0322 151.677H66.3804V166.614ZM85.9085 173V152.218H93.377V173H85.9085ZM89.6427 150.053C88.6325 150.053 87.7666 149.72 87.045 149.052C86.3234 148.385 85.9626 147.582 85.9626 146.644C85.9626 145.706 86.3234 144.903 87.045 144.236C87.7666 143.568 88.6325 143.234 89.6427 143.234C90.662 143.234 91.5279 143.568 92.2404 144.236C92.962 144.903 93.3228 145.706 93.3228 146.644C93.3228 147.582 92.962 148.385 92.2404 149.052C91.5279 149.72 90.662 150.053 89.6427 150.053ZM115.178 158.983H108.305C108.269 158.559 108.12 158.194 107.858 157.887C107.597 157.581 107.259 157.346 106.844 157.184C106.438 157.012 105.987 156.927 105.491 156.927C104.85 156.927 104.3 157.044 103.84 157.278C103.38 157.513 103.155 157.847 103.164 158.28C103.155 158.586 103.285 158.87 103.556 159.132C103.836 159.394 104.372 159.596 105.166 159.741L109.387 160.498C111.516 160.886 113.099 161.54 114.136 162.46C115.183 163.371 115.71 164.593 115.719 166.127C115.71 167.606 115.268 168.891 114.393 169.983C113.527 171.065 112.341 171.904 110.835 172.499C109.338 173.086 107.628 173.379 105.707 173.379C102.532 173.379 100.047 172.729 98.2523 171.431C96.4663 170.132 95.4696 168.418 95.2622 166.289H102.677C102.776 166.948 103.1 167.457 103.651 167.818C104.21 168.17 104.913 168.346 105.761 168.346C106.447 168.346 107.011 168.228 107.453 167.994C107.904 167.759 108.134 167.426 108.143 166.993C108.134 166.596 107.935 166.28 107.547 166.046C107.168 165.811 106.573 165.622 105.761 165.477L102.081 164.828C99.9615 164.458 98.374 163.755 97.3187 162.717C96.2634 161.68 95.7402 160.345 95.7493 158.713C95.7402 157.269 96.1191 156.047 96.8858 155.046C97.6615 154.036 98.7664 153.269 100.201 152.746C101.644 152.214 103.353 151.948 105.328 151.948C108.332 151.948 110.7 152.57 112.432 153.815C114.172 155.059 115.088 156.782 115.178 158.983ZM127.593 173.379C125.338 173.379 123.408 172.932 121.802 172.039C120.197 171.137 118.965 169.884 118.109 168.278C117.252 166.664 116.823 164.792 116.823 162.663C116.823 160.535 117.252 158.667 118.109 157.062C118.965 155.447 120.197 154.194 121.802 153.301C123.408 152.399 125.338 151.948 127.593 151.948C129.631 151.948 131.395 152.317 132.883 153.057C134.38 153.788 135.539 154.825 136.36 156.169C137.181 157.504 137.596 159.073 137.605 160.877H130.678C130.579 159.786 130.263 158.956 129.731 158.388C129.207 157.811 128.531 157.522 127.701 157.522C127.052 157.522 126.483 157.711 125.996 158.09C125.509 158.46 125.13 159.024 124.86 159.781C124.589 160.53 124.454 161.473 124.454 162.609C124.454 163.746 124.589 164.693 124.86 165.45C125.13 166.199 125.509 166.763 125.996 167.142C126.483 167.511 127.052 167.696 127.701 167.696C128.251 167.696 128.738 167.57 129.162 167.317C129.586 167.056 129.929 166.677 130.191 166.181C130.461 165.676 130.624 165.063 130.678 164.341H137.605C137.578 166.172 137.159 167.768 136.347 169.13C135.535 170.483 134.385 171.53 132.897 172.269C131.417 173.009 129.649 173.379 127.593 173.379ZM149.698 173.379C147.444 173.379 145.513 172.932 143.908 172.039C142.302 171.137 141.071 169.884 140.214 168.278C139.357 166.664 138.929 164.792 138.929 162.663C138.929 160.535 139.357 158.667 140.214 157.062C141.071 155.447 142.302 154.194 143.908 153.301C145.513 152.399 147.444 151.948 149.698 151.948C151.953 151.948 153.884 152.399 155.489 153.301C157.095 154.194 158.326 155.447 159.183 157.062C160.04 158.667 160.468 160.535 160.468 162.663C160.468 164.792 160.04 166.664 159.183 168.278C158.326 169.884 157.095 171.137 155.489 172.039C153.884 172.932 151.953 173.379 149.698 173.379ZM149.753 167.859C150.384 167.859 150.93 167.647 151.39 167.223C151.85 166.799 152.206 166.194 152.459 165.41C152.711 164.625 152.837 163.691 152.837 162.609C152.837 161.518 152.711 160.584 152.459 159.808C152.206 159.024 151.85 158.419 151.39 157.995C150.93 157.571 150.384 157.36 149.753 157.36C149.085 157.36 148.512 157.571 148.034 157.995C147.556 158.419 147.191 159.024 146.938 159.808C146.686 160.584 146.56 161.518 146.56 162.609C146.56 163.691 146.686 164.625 146.938 165.41C147.191 166.194 147.556 166.799 148.034 167.223C148.512 167.647 149.085 167.859 149.753 167.859ZM162.499 173V152.218H169.751V156.169H169.967C170.346 154.708 170.946 153.639 171.767 152.962C172.597 152.286 173.566 151.948 174.676 151.948C175 151.948 175.321 151.975 175.636 152.029C175.961 152.074 176.272 152.142 176.57 152.232V158.604C176.2 158.478 175.745 158.383 175.203 158.32C174.662 158.257 174.198 158.225 173.81 158.225C173.079 158.225 172.421 158.392 171.834 158.726C171.257 159.051 170.802 159.511 170.468 160.106C170.134 160.692 169.967 161.382 169.967 162.176V173H162.499ZM184.351 173.271C182.872 173.271 181.51 172.883 180.265 172.107C179.029 171.331 178.037 170.154 177.288 168.576C176.549 166.997 176.179 165.008 176.179 162.609C176.179 160.102 176.567 158.063 177.342 156.494C178.127 154.924 179.137 153.774 180.373 153.044C181.618 152.313 182.926 151.948 184.297 151.948C185.325 151.948 186.227 152.128 187.003 152.489C187.778 152.841 188.428 153.314 188.951 153.909C189.474 154.496 189.871 155.141 190.142 155.844H190.25V145.291H197.718V173H190.304V169.59H190.142C189.853 170.294 189.438 170.925 188.897 171.485C188.365 172.035 187.715 172.472 186.949 172.797C186.191 173.113 185.325 173.271 184.351 173.271ZM187.111 167.534C187.796 167.534 188.383 167.336 188.87 166.939C189.366 166.533 189.745 165.964 190.006 165.234C190.277 164.494 190.412 163.619 190.412 162.609C190.412 161.581 190.277 160.701 190.006 159.971C189.745 159.231 189.366 158.667 188.87 158.28C188.383 157.883 187.796 157.684 187.111 157.684C186.425 157.684 185.839 157.883 185.352 158.28C184.874 158.667 184.504 159.231 184.243 159.971C183.99 160.701 183.864 161.581 183.864 162.609C183.864 163.637 183.99 164.521 184.243 165.261C184.504 165.992 184.874 166.555 185.352 166.952C185.839 167.34 186.425 167.534 187.111 167.534Z" fill="white"/>
<path d="M70.5756 207.255H72.7244V219.004C72.7244 220.217 72.4385 221.3 71.8666 222.253C71.3005 223.201 70.5005 223.949 69.4665 224.497C68.4325 225.04 67.2194 225.312 65.8273 225.312C64.4351 225.312 63.2221 225.04 62.1881 224.497C61.1541 223.949 60.3511 223.201 59.7793 222.253C59.2132 221.3 58.9301 220.217 58.9301 219.004V207.255H61.079V218.831C61.079 219.697 61.2696 220.468 61.6509 221.144C62.0321 221.814 62.5751 222.343 63.2798 222.73C63.9903 223.111 64.8395 223.302 65.8273 223.302C66.8151 223.302 67.6642 223.111 68.3747 222.73C69.0852 222.343 69.6282 221.814 70.0037 221.144C70.3849 220.468 70.5756 219.697 70.5756 218.831V207.255ZM64.8915 205.452L67.0057 201.432H69.3972L66.6937 205.452H64.8915ZM78.7833 216.994V225H76.7384V211.691H78.714V213.77H78.8873C79.1992 213.095 79.6729 212.552 80.3083 212.141C80.9437 211.726 81.764 211.518 82.7691 211.518C83.6702 211.518 84.4587 211.702 85.1346 212.072C85.8104 212.436 86.3361 212.991 86.7115 213.736C87.087 214.475 87.2748 215.411 87.2748 216.543V225H85.2299V216.682C85.2299 215.636 84.9584 214.822 84.4154 214.238C83.8724 213.649 83.1272 213.355 82.1799 213.355C81.5271 213.355 80.9437 213.496 80.4296 213.779C79.9212 214.062 79.5198 214.475 79.2252 215.018C78.9306 215.561 78.7833 216.22 78.7833 216.994ZM96.5915 225.277C95.3092 225.277 94.203 224.994 93.2729 224.428C92.3487 223.856 91.6353 223.059 91.1327 222.037C90.636 221.008 90.3876 219.813 90.3876 218.449C90.3876 217.086 90.636 215.885 91.1327 214.845C91.6353 213.799 92.3343 212.985 93.2296 212.401C94.1308 211.812 95.1821 211.518 96.3836 211.518C97.0768 211.518 97.7613 211.633 98.4371 211.864C99.113 212.095 99.7282 212.471 100.283 212.991C100.837 213.505 101.279 214.186 101.608 215.036C101.938 215.885 102.102 216.93 102.102 218.172V219.039H91.8433V217.271H100.023C100.023 216.52 99.8726 215.85 99.5722 215.261C99.2776 214.672 98.8559 214.207 98.3072 213.866C97.7642 213.525 97.123 213.355 96.3836 213.355C95.5691 213.355 94.8644 213.557 94.2694 213.961C93.6802 214.36 93.2267 214.88 92.909 215.521C92.5913 216.162 92.4325 216.849 92.4325 217.583V218.761C92.4325 219.766 92.6058 220.619 92.9523 221.317C93.3047 222.011 93.7928 222.539 94.4167 222.903C95.0406 223.261 95.7655 223.44 96.5915 223.44C97.1288 223.44 97.614 223.365 98.0472 223.215C98.4862 223.059 98.8646 222.828 99.1823 222.522C99.5 222.21 99.7455 221.823 99.9188 221.361L101.894 221.915C101.686 222.585 101.337 223.175 100.846 223.683C100.355 224.186 99.7484 224.578 99.0263 224.861C98.3043 225.139 97.4927 225.277 96.5915 225.277ZM111.001 211.691V213.424H104.104V211.691H111.001ZM106.114 208.502H108.159V221.188C108.159 221.765 108.243 222.198 108.41 222.487C108.584 222.77 108.803 222.961 109.069 223.059C109.34 223.152 109.626 223.198 109.927 223.198C110.152 223.198 110.337 223.186 110.481 223.163C110.626 223.134 110.741 223.111 110.828 223.094L111.244 224.931C111.105 224.983 110.912 225.035 110.663 225.087C110.415 225.144 110.1 225.173 109.719 225.173C109.141 225.173 108.575 225.049 108.02 224.801C107.472 224.552 107.015 224.174 106.651 223.666C106.293 223.157 106.114 222.516 106.114 221.742V208.502ZM119.514 225.277C118.232 225.277 117.126 224.994 116.196 224.428C115.271 223.856 114.558 223.059 114.055 222.037C113.559 221.008 113.31 219.813 113.31 218.449C113.31 217.086 113.559 215.885 114.055 214.845C114.558 213.799 115.257 212.985 116.152 212.401C117.053 211.812 118.105 211.518 119.306 211.518C119.999 211.518 120.684 211.633 121.36 211.864C122.036 212.095 122.651 212.471 123.205 212.991C123.76 213.505 124.202 214.186 124.531 215.036C124.86 215.885 125.025 216.93 125.025 218.172V219.039H114.766V217.271H122.945C122.945 216.52 122.795 215.85 122.495 215.261C122.2 214.672 121.779 214.207 121.23 213.866C120.687 213.525 120.046 213.355 119.306 213.355C118.492 213.355 117.787 213.557 117.192 213.961C116.603 214.36 116.149 214.88 115.832 215.521C115.514 216.162 115.355 216.849 115.355 217.583V218.761C115.355 219.766 115.528 220.619 115.875 221.317C116.227 222.011 116.715 222.539 117.339 222.903C117.963 223.261 118.688 223.44 119.514 223.44C120.051 223.44 120.537 223.365 120.97 223.215C121.409 223.059 121.787 222.828 122.105 222.522C122.423 222.21 122.668 221.823 122.841 221.361L124.817 221.915C124.609 222.585 124.26 223.175 123.769 223.683C123.278 224.186 122.671 224.578 121.949 224.861C121.227 225.139 120.415 225.277 119.514 225.277ZM138.915 225.312C138.071 225.312 137.306 225.153 136.618 224.835C135.931 224.512 135.385 224.047 134.981 223.44C134.576 222.828 134.374 222.089 134.374 221.222C134.374 220.46 134.524 219.842 134.825 219.368C135.125 218.888 135.527 218.513 136.029 218.241C136.532 217.97 137.086 217.768 137.693 217.635C138.305 217.496 138.92 217.387 139.538 217.306C140.347 217.202 141.003 217.124 141.505 217.072C142.014 217.014 142.383 216.919 142.614 216.786C142.851 216.653 142.97 216.422 142.97 216.093V216.023C142.97 215.168 142.736 214.504 142.268 214.03C141.806 213.557 141.104 213.32 140.162 213.32C139.186 213.32 138.421 213.534 137.866 213.961C137.312 214.389 136.922 214.845 136.696 215.33L134.756 214.637C135.102 213.828 135.564 213.199 136.142 212.748C136.725 212.292 137.361 211.974 138.048 211.795C138.741 211.61 139.423 211.518 140.093 211.518C140.52 211.518 141.011 211.57 141.566 211.674C142.126 211.772 142.666 211.977 143.186 212.289C143.712 212.601 144.148 213.071 144.495 213.701C144.841 214.331 145.015 215.174 145.015 216.231V225H142.97V223.198H142.866C142.727 223.487 142.496 223.796 142.173 224.125C141.849 224.454 141.419 224.734 140.882 224.965C140.344 225.196 139.689 225.312 138.915 225.312ZM139.227 223.475C140.035 223.475 140.717 223.316 141.271 222.998C141.832 222.681 142.253 222.271 142.536 221.768C142.825 221.265 142.97 220.737 142.97 220.182V218.311C142.883 218.415 142.692 218.51 142.398 218.597C142.109 218.678 141.774 218.75 141.393 218.813C141.017 218.871 140.65 218.923 140.292 218.969C139.94 219.01 139.654 219.044 139.435 219.073C138.903 219.143 138.406 219.255 137.944 219.411C137.488 219.561 137.118 219.79 136.835 220.096C136.558 220.396 136.419 220.806 136.419 221.326C136.419 222.037 136.682 222.574 137.208 222.938C137.739 223.296 138.412 223.475 139.227 223.475ZM157.654 216.994V225H155.609V211.691H157.585V213.77H157.758C158.07 213.095 158.544 212.552 159.179 212.141C159.815 211.726 160.635 211.518 161.64 211.518C162.541 211.518 163.33 211.702 164.006 212.072C164.681 212.436 165.207 212.991 165.583 213.736C165.958 214.475 166.146 215.411 166.146 216.543V225H164.101V216.682C164.101 215.636 163.829 214.822 163.286 214.238C162.743 213.649 161.998 213.355 161.051 213.355C160.398 213.355 159.815 213.496 159.301 213.779C158.792 214.062 158.391 214.475 158.096 215.018C157.802 215.561 157.654 216.22 157.654 216.994ZM178.27 219.559V211.691H180.315V225H178.27V222.747H178.131C177.819 223.423 177.334 223.998 176.676 224.471C176.017 224.939 175.185 225.173 174.18 225.173C173.348 225.173 172.609 224.991 171.962 224.627C171.315 224.258 170.807 223.703 170.437 222.964C170.067 222.219 169.883 221.28 169.883 220.148V211.691H171.927V220.009C171.927 220.98 172.199 221.754 172.742 222.331C173.291 222.909 173.99 223.198 174.839 223.198C175.347 223.198 175.864 223.068 176.39 222.808C176.921 222.548 177.366 222.149 177.724 221.612C178.088 221.075 178.27 220.39 178.27 219.559ZM189.64 225.277C188.358 225.277 187.252 224.994 186.322 224.428C185.398 223.856 184.684 223.059 184.182 222.037C183.685 221.008 183.436 219.813 183.436 218.449C183.436 217.086 183.685 215.885 184.182 214.845C184.684 213.799 185.383 212.985 186.278 212.401C187.18 211.812 188.231 211.518 189.432 211.518C190.126 211.518 190.81 211.633 191.486 211.864C192.162 212.095 192.777 212.471 193.332 212.991C193.886 213.505 194.328 214.186 194.657 215.036C194.987 215.885 195.151 216.93 195.151 218.172V219.039H184.892V217.271H193.072C193.072 216.52 192.921 215.85 192.621 215.261C192.326 214.672 191.905 214.207 191.356 213.866C190.813 213.525 190.172 213.355 189.432 213.355C188.618 213.355 187.913 213.557 187.318 213.961C186.729 214.36 186.276 214.88 185.958 215.521C185.64 216.162 185.481 216.849 185.481 217.583V218.761C185.481 219.766 185.655 220.619 186.001 221.317C186.354 222.011 186.842 222.539 187.466 222.903C188.089 223.261 188.814 223.44 189.64 223.44C190.178 223.44 190.663 223.365 191.096 223.215C191.535 223.059 191.913 222.828 192.231 222.522C192.549 222.21 192.794 221.823 192.968 221.361L194.943 221.915C194.735 222.585 194.386 223.175 193.895 223.683C193.404 224.186 192.797 224.578 192.075 224.861C191.353 225.139 190.542 225.277 189.64 225.277ZM207.689 214.672L205.852 215.191C205.737 214.885 205.566 214.588 205.341 214.299C205.121 214.004 204.821 213.762 204.44 213.571C204.059 213.381 203.57 213.285 202.975 213.285C202.161 213.285 201.482 213.473 200.939 213.848C200.402 214.218 200.133 214.689 200.133 215.261C200.133 215.769 200.318 216.171 200.688 216.465C201.058 216.76 201.635 217.005 202.421 217.202L204.396 217.687C205.586 217.976 206.473 218.418 207.057 219.013C207.64 219.602 207.932 220.361 207.932 221.291C207.932 222.054 207.712 222.736 207.273 223.336C206.84 223.937 206.233 224.411 205.454 224.757C204.674 225.104 203.767 225.277 202.733 225.277C201.375 225.277 200.252 224.983 199.362 224.393C198.473 223.804 197.909 222.944 197.673 221.811L199.614 221.326C199.798 222.042 200.148 222.58 200.662 222.938C201.182 223.296 201.861 223.475 202.698 223.475C203.651 223.475 204.408 223.273 204.968 222.868C205.534 222.458 205.818 221.967 205.818 221.395C205.818 220.933 205.656 220.546 205.332 220.234C205.009 219.917 204.512 219.68 203.842 219.524L201.624 219.004C200.405 218.715 199.51 218.267 198.938 217.661C198.372 217.049 198.089 216.283 198.089 215.365C198.089 214.614 198.299 213.95 198.721 213.372C199.149 212.794 199.729 212.341 200.463 212.012C201.202 211.682 202.04 211.518 202.975 211.518C204.293 211.518 205.326 211.806 206.077 212.384C206.834 212.962 207.371 213.724 207.689 214.672ZM216.798 211.691V213.424H209.901V211.691H216.798ZM211.911 208.502H213.956V221.188C213.956 221.765 214.04 222.198 214.207 222.487C214.38 222.77 214.6 222.961 214.866 223.059C215.137 223.152 215.423 223.198 215.724 223.198C215.949 223.198 216.134 223.186 216.278 223.163C216.422 223.134 216.538 223.111 216.625 223.094L217.041 224.931C216.902 224.983 216.708 225.035 216.46 225.087C216.212 225.144 215.897 225.173 215.516 225.173C214.938 225.173 214.372 225.049 213.817 224.801C213.268 224.552 212.812 224.174 212.448 223.666C212.09 223.157 211.911 222.516 211.911 221.742V208.502ZM219.874 225V211.691H221.849V213.701H221.988C222.231 213.043 222.67 212.508 223.305 212.098C223.941 211.688 224.657 211.483 225.454 211.483C225.604 211.483 225.792 211.486 226.017 211.492C226.243 211.497 226.413 211.506 226.528 211.518V213.597C226.459 213.58 226.3 213.554 226.052 213.519C225.809 213.479 225.552 213.459 225.281 213.459C224.634 213.459 224.056 213.594 223.548 213.866C223.045 214.131 222.647 214.501 222.352 214.975C222.063 215.443 221.919 215.977 221.919 216.578V225H219.874ZM232.869 225.312C232.026 225.312 231.26 225.153 230.573 224.835C229.885 224.512 229.339 224.047 228.935 223.44C228.531 222.828 228.329 222.089 228.329 221.222C228.329 220.46 228.479 219.842 228.779 219.368C229.08 218.888 229.481 218.513 229.984 218.241C230.486 217.97 231.041 217.768 231.647 217.635C232.26 217.496 232.875 217.387 233.493 217.306C234.302 217.202 234.957 217.124 235.46 217.072C235.968 217.014 236.338 216.919 236.569 216.786C236.806 216.653 236.924 216.422 236.924 216.093V216.023C236.924 215.168 236.69 214.504 236.222 214.03C235.76 213.557 235.058 213.32 234.117 213.32C233.14 213.32 232.375 213.534 231.82 213.961C231.266 214.389 230.876 214.845 230.651 215.33L228.71 214.637C229.056 213.828 229.519 213.199 230.096 212.748C230.68 212.292 231.315 211.974 232.002 211.795C232.696 211.61 233.377 211.518 234.047 211.518C234.475 211.518 234.966 211.57 235.52 211.674C236.081 211.772 236.621 211.977 237.141 212.289C237.666 212.601 238.102 213.071 238.449 213.701C238.796 214.331 238.969 215.174 238.969 216.231V225H236.924V223.198H236.82C236.681 223.487 236.45 223.796 236.127 224.125C235.803 224.454 235.373 224.734 234.836 224.965C234.299 225.196 233.643 225.312 232.869 225.312ZM233.181 223.475C233.99 223.475 234.671 223.316 235.226 222.998C235.786 222.681 236.208 222.271 236.491 221.768C236.78 221.265 236.924 220.737 236.924 220.182V218.311C236.837 218.415 236.647 218.51 236.352 218.597C236.063 218.678 235.728 218.75 235.347 218.813C234.972 218.871 234.605 218.923 234.247 218.969C233.894 219.01 233.608 219.044 233.389 219.073C232.857 219.143 232.361 219.255 231.898 219.411C231.442 219.561 231.072 219.79 230.789 220.096C230.512 220.396 230.373 220.806 230.373 221.326C230.373 222.037 230.636 222.574 231.162 222.938C231.693 223.296 232.366 223.475 233.181 223.475ZM64.0597 262.277C62.8119 262.277 61.7375 261.983 60.8364 261.393C59.9352 260.804 59.242 259.993 58.7568 258.959C58.2716 257.925 58.029 256.743 58.029 255.415C58.029 254.063 58.2774 252.87 58.7741 251.836C59.2767 250.796 59.9757 249.985 60.871 249.401C61.7722 248.812 62.8235 248.518 64.025 248.518C64.9608 248.518 65.8042 248.691 66.5551 249.038C67.3061 249.384 67.9213 249.869 68.4007 250.493C68.8802 251.117 69.1777 251.845 69.2932 252.677H67.2483C67.0923 252.07 66.7457 251.533 66.2085 251.065C65.6771 250.591 64.9608 250.355 64.0597 250.355C63.2625 250.355 62.5635 250.562 61.9628 250.978C61.3678 251.389 60.9028 251.969 60.5678 252.72C60.2385 253.465 60.0739 254.34 60.0739 255.345C60.0739 256.374 60.2356 257.269 60.5591 258.032C60.8884 258.794 61.3505 259.386 61.9455 259.808C62.5462 260.229 63.2509 260.44 64.0597 260.44C64.5911 260.44 65.0734 260.348 65.5067 260.163C65.9399 259.978 66.3067 259.713 66.6071 259.366C66.9075 259.019 67.1212 258.603 67.2483 258.118H69.2932C69.1777 258.904 68.8917 259.611 68.4354 260.241C67.9848 260.865 67.3869 261.362 66.6418 261.731C65.9024 262.095 65.0417 262.277 64.0597 262.277ZM77.6893 262.277C76.4878 262.277 75.4336 261.991 74.5267 261.419C73.6256 260.848 72.9208 260.048 72.4125 259.019C71.9099 257.991 71.6587 256.79 71.6587 255.415C71.6587 254.028 71.9099 252.818 72.4125 251.784C72.9208 250.75 73.6256 249.947 74.5267 249.375C75.4336 248.804 76.4878 248.518 77.6893 248.518C78.8909 248.518 79.9422 248.804 80.8433 249.375C81.7502 249.947 82.455 250.75 82.9575 251.784C83.4659 252.818 83.72 254.028 83.72 255.415C83.72 256.79 83.4659 257.991 82.9575 259.019C82.455 260.048 81.7502 260.848 80.8433 261.419C79.9422 261.991 78.8909 262.277 77.6893 262.277ZM77.6893 260.44C78.602 260.44 79.353 260.206 79.9422 259.738C80.5314 259.271 80.9675 258.655 81.2506 257.893C81.5336 257.13 81.6751 256.304 81.6751 255.415C81.6751 254.525 81.5336 253.696 81.2506 252.928C80.9675 252.16 80.5314 251.539 79.9422 251.065C79.353 250.591 78.602 250.355 77.6893 250.355C76.7767 250.355 76.0257 250.591 75.4365 251.065C74.8473 251.539 74.4112 252.16 74.1281 252.928C73.8451 253.696 73.7036 254.525 73.7036 255.415C73.7036 256.304 73.8451 257.13 74.1281 257.893C74.4112 258.655 74.8473 259.271 75.4365 259.738C76.0257 260.206 76.7767 260.44 77.6893 260.44ZM86.8415 262V248.691H88.8171V250.77H88.9904C89.2676 250.06 89.7153 249.508 90.3334 249.115C90.9515 248.717 91.6938 248.518 92.5603 248.518C93.4383 248.518 94.169 248.717 94.7524 249.115C95.3417 249.508 95.8009 250.06 96.1301 250.77H96.2688C96.6096 250.083 97.1208 249.537 97.8024 249.133C98.4841 248.723 99.3015 248.518 100.255 248.518C101.445 248.518 102.418 248.89 103.175 249.635C103.931 250.375 104.31 251.527 104.31 253.093V262H102.265V253.093C102.265 252.111 101.996 251.409 101.459 250.987C100.922 250.565 100.289 250.355 99.5614 250.355C98.6256 250.355 97.9007 250.638 97.3865 251.204C96.8724 251.764 96.6154 252.475 96.6154 253.335V262H94.5358V252.885C94.5358 252.128 94.2903 251.519 93.7993 251.056C93.3083 250.588 92.6758 250.355 91.9017 250.355C91.3703 250.355 90.8735 250.496 90.4114 250.779C89.9551 251.062 89.5854 251.455 89.3023 251.958C89.025 252.454 88.8864 253.029 88.8864 253.682V262H86.8415ZM116.436 256.559V248.691H118.481V262H116.436V259.747H116.297C115.985 260.423 115.5 260.998 114.842 261.471C114.183 261.939 113.351 262.173 112.346 262.173C111.514 262.173 110.775 261.991 110.128 261.627C109.481 261.258 108.973 260.703 108.603 259.964C108.233 259.219 108.049 258.28 108.049 257.148V248.691H110.093V257.009C110.093 257.98 110.365 258.754 110.908 259.331C111.457 259.909 112.156 260.198 113.005 260.198C113.513 260.198 114.03 260.068 114.556 259.808C115.087 259.548 115.532 259.149 115.89 258.612C116.254 258.075 116.436 257.39 116.436 256.559ZM124.271 253.994V262H122.226V248.691H124.202V250.77H124.375C124.687 250.095 125.161 249.552 125.796 249.141C126.432 248.726 127.252 248.518 128.257 248.518C129.158 248.518 129.947 248.702 130.622 249.072C131.298 249.436 131.824 249.991 132.199 250.736C132.575 251.475 132.763 252.411 132.763 253.543V262H130.718V253.682C130.718 252.636 130.446 251.822 129.903 251.238C129.36 250.649 128.615 250.355 127.668 250.355C127.015 250.355 126.432 250.496 125.917 250.779C125.409 251.062 125.008 251.475 124.713 252.018C124.418 252.561 124.271 253.22 124.271 253.994ZM136.499 262V248.691H138.544V262H136.499ZM137.539 246.473C137.141 246.473 136.797 246.337 136.508 246.065C136.225 245.794 136.083 245.468 136.083 245.086C136.083 244.705 136.225 244.379 136.508 244.107C136.797 243.836 137.141 243.7 137.539 243.7C137.938 243.7 138.278 243.836 138.562 244.107C138.85 244.379 138.995 244.705 138.995 245.086C138.995 245.468 138.85 245.794 138.562 246.065C138.278 246.337 137.938 246.473 137.539 246.473ZM147.315 262.277C146.206 262.277 145.227 261.997 144.378 261.437C143.529 260.871 142.864 260.074 142.385 259.045C141.905 258.011 141.666 256.79 141.666 255.38C141.666 253.982 141.905 252.769 142.385 251.741C142.864 250.713 143.532 249.918 144.386 249.358C145.241 248.798 146.229 248.518 147.35 248.518C148.216 248.518 148.901 248.662 149.403 248.951C149.912 249.234 150.299 249.557 150.564 249.921C150.836 250.279 151.047 250.574 151.197 250.805H151.37V244.255H153.415V262H151.44V259.955H151.197C151.047 260.198 150.833 260.504 150.556 260.874C150.278 261.237 149.883 261.564 149.369 261.853C148.855 262.136 148.17 262.277 147.315 262.277ZM147.592 260.44C148.413 260.44 149.106 260.227 149.672 259.799C150.238 259.366 150.668 258.768 150.963 258.006C151.258 257.237 151.405 256.351 151.405 255.345C151.405 254.352 151.26 253.483 150.972 252.737C150.683 251.986 150.255 251.403 149.689 250.987C149.123 250.565 148.424 250.355 147.592 250.355C146.726 250.355 146.004 250.577 145.426 251.022C144.854 251.461 144.424 252.059 144.135 252.815C143.852 253.566 143.711 254.41 143.711 255.345C143.711 256.293 143.855 257.154 144.144 257.928C144.438 258.696 144.872 259.308 145.444 259.764C146.021 260.215 146.737 260.44 147.592 260.44ZM161.361 262.312C160.517 262.312 159.752 262.153 159.065 261.835C158.377 261.512 157.831 261.047 157.427 260.44C157.023 259.828 156.82 259.089 156.82 258.222C156.82 257.46 156.971 256.842 157.271 256.368C157.571 255.888 157.973 255.513 158.475 255.241C158.978 254.97 159.532 254.768 160.139 254.635C160.751 254.496 161.366 254.387 161.985 254.306C162.793 254.202 163.449 254.124 163.951 254.072C164.46 254.014 164.83 253.919 165.061 253.786C165.297 253.653 165.416 253.422 165.416 253.093V253.023C165.416 252.168 165.182 251.504 164.714 251.03C164.252 250.557 163.55 250.32 162.608 250.32C161.632 250.32 160.867 250.534 160.312 250.961C159.758 251.389 159.368 251.845 159.143 252.33L157.202 251.637C157.548 250.828 158.01 250.199 158.588 249.748C159.171 249.292 159.807 248.974 160.494 248.795C161.187 248.61 161.869 248.518 162.539 248.518C162.967 248.518 163.458 248.57 164.012 248.674C164.572 248.772 165.113 248.977 165.632 249.289C166.158 249.601 166.594 250.071 166.941 250.701C167.287 251.331 167.461 252.174 167.461 253.231V262H165.416V260.198H165.312C165.173 260.487 164.942 260.796 164.619 261.125C164.295 261.454 163.865 261.734 163.328 261.965C162.79 262.196 162.135 262.312 161.361 262.312ZM161.673 260.475C162.481 260.475 163.163 260.316 163.718 259.998C164.278 259.681 164.7 259.271 164.983 258.768C165.271 258.265 165.416 257.737 165.416 257.182V255.311C165.329 255.415 165.139 255.51 164.844 255.597C164.555 255.678 164.22 255.75 163.839 255.813C163.463 255.871 163.097 255.923 162.738 255.969C162.386 256.01 162.1 256.044 161.881 256.073C161.349 256.143 160.852 256.255 160.39 256.411C159.934 256.561 159.564 256.79 159.281 257.096C159.004 257.396 158.865 257.806 158.865 258.326C158.865 259.037 159.128 259.574 159.654 259.938C160.185 260.296 160.858 260.475 161.673 260.475ZM176.219 262.277C175.11 262.277 174.13 261.997 173.281 261.437C172.432 260.871 171.768 260.074 171.288 259.045C170.809 258.011 170.569 256.79 170.569 255.38C170.569 253.982 170.809 252.769 171.288 251.741C171.768 250.713 172.435 249.918 173.29 249.358C174.145 248.798 175.133 248.518 176.253 248.518C177.12 248.518 177.804 248.662 178.307 248.951C178.815 249.234 179.202 249.557 179.468 249.921C179.739 250.279 179.95 250.574 180.1 250.805H180.274V244.255H182.319V262H180.343V259.955H180.1C179.95 260.198 179.737 260.504 179.459 260.874C179.182 261.237 178.786 261.564 178.272 261.853C177.758 262.136 177.074 262.277 176.219 262.277ZM176.496 260.44C177.316 260.44 178.009 260.227 178.575 259.799C179.142 259.366 179.572 258.768 179.867 258.006C180.161 257.237 180.308 256.351 180.308 255.345C180.308 254.352 180.164 253.483 179.875 252.737C179.586 251.986 179.159 251.403 178.593 250.987C178.027 250.565 177.328 250.355 176.496 250.355C175.629 250.355 174.907 250.577 174.33 251.022C173.758 251.461 173.327 252.059 173.039 252.815C172.756 253.566 172.614 254.41 172.614 255.345C172.614 256.293 172.759 257.154 173.047 257.928C173.342 258.696 173.775 259.308 174.347 259.764C174.925 260.215 175.641 260.44 176.496 260.44ZM187.838 262.139C187.411 262.139 187.044 261.986 186.738 261.679C186.432 261.373 186.278 261.006 186.278 260.579C186.278 260.152 186.432 259.785 186.738 259.479C187.044 259.172 187.411 259.019 187.838 259.019C188.266 259.019 188.632 259.172 188.939 259.479C189.245 259.785 189.398 260.152 189.398 260.579C189.398 260.862 189.326 261.122 189.181 261.359C189.043 261.596 188.855 261.786 188.618 261.931C188.387 262.069 188.127 262.139 187.838 262.139Z" fill="white"/>
</g>
</g>
<path d="M20.7812 2H412.781C422.722 2 430.781 10.0589 430.781 20V326H2.78125V20C2.78125 10.0589 10.8401 2 20.7812 2Z" stroke="url(#paint0_linear_7043_4046)" stroke-width="4"/>
<defs>
<filter id="filter0_d_7043_4046" x="-21.2188" y="3" width="476" height="372" filterUnits="userSpaceOnUse" color-interpolation-filters="sRGB">
<feFlood flood-opacity="0" result="BackgroundImageFix"/>
<feColorMatrix in="SourceAlpha" type="matrix" values="0 0 0 0 0 0 0 0 0 0 0 0 0 0 0 0 0 0 127 0" result="hardAlpha"/>
<feMorphology radius="12" operator="erode" in="SourceAlpha" result="effect1_dropShadow_7043_4046"/>
<feOffset dy="25"/>
<feGaussianBlur stdDeviation="25"/>
<feColorMatrix type="matrix" values="0 0 0 0 0 0 0 0 0 0 0 0 0 0 0 0 0 0 0.25 0"/>
<feBlend mode="normal" in2="BackgroundImageFix" result="effect1_dropShadow_7043_4046"/>
<feBlend mode="normal" in="SourceGraphic" in2="effect1_dropShadow_7043_4046" result="shape"/>
</filter>
<linearGradient id="paint0_linear_7043_4046" x1="216.781" y1="0" x2="216.781" y2="328" gradientUnits="userSpaceOnUse">
<stop stop-color="#495284"/>
<stop offset="0.505" stop-color="#495284" stop-opacity="0"/>
</linearGradient>
<clipPath id="clip0_7043_4046">
<path d="M0.78125 20C0.78125 8.95431 9.73556 0 20.7813 0H412.781C423.827 0 432.781 8.95431 432.781 20V328H0.78125V20Z" fill="white"/>
</clipPath>
<clipPath id="clip1_7043_4046">
<rect width="40" height="40" fill="white" transform="translate(68.7812 68)"/>
</clipPath>
</defs>
</svg>
