<svg width="433" height="328" viewBox="0 0 433 328" fill="none" xmlns="http://www.w3.org/2000/svg">
<g clip-path="url(#clip0_7043_4057)">
<g filter="url(#filter0_d_7043_4057)">
<path d="M16.7812 36C16.7812 24.9543 25.7356 16 36.7813 16H396.781C407.827 16 416.781 24.9543 416.781 36V292C416.781 303.046 407.827 312 396.781 312H36.7813C25.7356 312 16.7812 303.046 16.7812 292V36Z" fill="#950647"/>
<path d="M104.781 60H72.7812C66.1538 60 60.7812 65.3726 60.7812 72V104C60.7812 110.627 66.1538 116 72.7812 116H104.781C111.409 116 116.781 110.627 116.781 104V72C116.781 65.3726 111.409 60 104.781 60Z" fill="url(#paint0_radial_7043_4057)"/>
<path d="M104.781 60H72.7812C66.1538 60 60.7812 65.3726 60.7812 72V104C60.7812 110.627 66.1538 116 72.7812 116H104.781C111.409 116 116.781 110.627 116.781 104V72C116.781 65.3726 111.409 60 104.781 60Z" fill="url(#paint1_radial_7043_4057)"/>
<path d="M104.781 60H72.7812C66.1538 60 60.7812 65.3726 60.7812 72V104C60.7812 110.627 66.1538 116 72.7812 116H104.781C111.409 116 116.781 110.627 116.781 104V72C116.781 65.3726 111.409 60 104.781 60Z" fill="url(#paint2_radial_7043_4057)"/>
<path d="M102.781 77C102.781 78.6568 101.438 80 99.7812 80C98.1244 80 96.7812 78.6568 96.7812 77C96.7812 75.3431 98.1244 74 99.7812 74C101.438 74 102.781 75.3431 102.781 77Z" fill="white"/>
<path fill-rule="evenodd" clip-rule="evenodd" d="M88.7812 98C94.304 98 98.7812 93.5228 98.7812 88C98.7812 82.4772 94.304 78 88.7812 78C83.2585 78 78.7812 82.4772 78.7812 88C78.7812 93.5228 83.2585 98 88.7812 98ZM88.7812 94C92.0951 94 94.7812 91.3138 94.7812 88C94.7812 84.6862 92.0951 82 88.7812 82C85.4674 82 82.7812 84.6862 82.7812 88C82.7812 91.3138 85.4674 94 88.7812 94Z" fill="white"/>
<path fill-rule="evenodd" clip-rule="evenodd" d="M68.7812 87.2C68.7812 80.4794 68.7813 77.119 70.0892 74.5521C71.2397 72.2942 73.0754 70.4584 75.3334 69.3079C77.9003 68 81.2607 68 87.9813 68H89.5812C96.3018 68 99.6622 68 102.229 69.3079C104.487 70.4584 106.323 72.2942 107.473 74.5521C108.781 77.119 108.781 80.4794 108.781 87.2V88.8C108.781 95.5206 108.781 98.881 107.473 101.448C106.323 103.706 104.487 105.542 102.229 106.692C99.6622 108 96.3018 108 89.5812 108H87.9813C81.2607 108 77.9003 108 75.3334 106.692C73.0754 105.542 71.2397 103.706 70.0892 101.448C68.7813 98.881 68.7812 95.5206 68.7812 88.8V87.2ZM87.9813 72H89.5812C93.0076 72 95.3367 72.0031 97.1371 72.1502C98.8909 72.2935 99.7876 72.5532 100.413 72.8719C101.918 73.6389 103.142 74.8628 103.909 76.368C104.228 76.9936 104.488 77.8904 104.631 79.6442C104.778 81.4446 104.781 83.7736 104.781 87.2V88.8C104.781 92.2264 104.778 94.5554 104.631 96.3558C104.488 98.1096 104.228 99.0064 103.909 99.632C103.142 101.137 101.918 102.361 100.413 103.128C99.7876 103.447 98.8909 103.707 97.1371 103.85C95.3367 103.997 93.0076 104 89.5812 104H87.9813C84.5549 104 82.2258 103.997 80.4254 103.85C78.6716 103.707 77.7749 103.447 77.1493 103.128C75.644 102.361 74.4202 101.137 73.6532 99.632C73.3344 99.0064 73.0747 98.1096 72.9314 96.3558C72.7844 94.5554 72.7812 92.2264 72.7812 88.8V87.2C72.7812 83.7736 72.7844 81.4446 72.9314 79.6442C73.0747 77.8904 73.3344 76.9936 73.6532 76.368C74.4202 74.8628 75.644 73.6389 77.1493 72.8719C77.7749 72.5532 78.6716 72.2935 80.4254 72.1502C82.2258 72.0031 84.5549 72 87.9813 72Z" fill="white"/>
<path d="M66.2376 145.291V173H58.715V145.291H66.2376ZM76.3794 161.31V173H68.9109V152.218H76.0006V156.169H76.217C76.668 154.852 77.4618 153.819 78.5983 153.071C79.7438 152.322 81.0788 151.948 82.6031 151.948C84.0734 151.948 85.3497 152.286 86.4321 152.962C87.5235 153.63 88.3668 154.55 88.9621 155.722C89.5665 156.895 89.8641 158.234 89.8551 159.741V173H82.3866V161.31C82.3957 160.282 82.1341 159.475 81.6019 158.888C81.0788 158.302 80.3481 158.009 79.4101 158.009C78.7967 158.009 78.26 158.144 77.8 158.415C77.349 158.676 77.0018 159.055 76.7582 159.551C76.5147 160.038 76.3884 160.625 76.3794 161.31ZM111.538 158.983H104.665C104.629 158.559 104.48 158.194 104.218 157.887C103.957 157.581 103.618 157.346 103.203 157.184C102.798 157.012 102.347 156.927 101.851 156.927C101.21 156.927 100.66 157.044 100.2 157.278C99.7398 157.513 99.5144 157.847 99.5234 158.28C99.5144 158.586 99.6451 158.87 99.9157 159.132C100.195 159.394 100.732 159.596 101.526 159.741L105.747 160.498C107.876 160.886 109.459 161.54 110.496 162.46C111.542 163.371 112.07 164.593 112.079 166.127C112.07 167.606 111.628 168.891 110.753 169.983C109.887 171.065 108.701 171.904 107.195 172.499C105.697 173.086 103.988 173.379 102.067 173.379C98.892 173.379 96.407 172.729 94.612 171.431C92.8261 170.132 91.8294 168.418 91.622 166.289H99.0363C99.1355 166.948 99.4602 167.457 100.01 167.818C100.57 168.17 101.273 168.346 102.121 168.346C102.807 168.346 103.37 168.228 103.812 167.994C104.263 167.759 104.493 167.426 104.502 166.993C104.493 166.596 104.295 166.28 103.907 166.046C103.528 165.811 102.933 165.622 102.121 165.477L98.441 164.828C96.3213 164.458 94.7338 163.755 93.6785 162.717C92.6232 161.68 92.1 160.345 92.109 158.713C92.1 157.269 92.4788 156.047 93.2455 155.046C94.0212 154.036 95.1262 153.269 96.5603 152.746C98.0035 152.214 99.7128 151.948 101.688 151.948C104.692 151.948 107.059 152.57 108.791 153.815C110.532 155.059 111.448 156.782 111.538 158.983ZM126.334 152.218V157.63H112.642V152.218H126.334ZM115.294 147.239H122.762V166.316C122.762 166.605 122.812 166.848 122.911 167.047C123.01 167.236 123.163 167.381 123.371 167.48C123.578 167.57 123.844 167.615 124.169 167.615C124.395 167.615 124.656 167.588 124.954 167.534C125.261 167.48 125.486 167.435 125.63 167.399L126.713 172.648C126.379 172.747 125.901 172.869 125.279 173.014C124.665 173.158 123.935 173.253 123.087 173.298C121.373 173.388 119.934 173.212 118.771 172.77C117.607 172.319 116.732 171.611 116.146 170.646C115.56 169.681 115.276 168.472 115.294 167.02V147.239ZM134.172 173.325C132.846 173.325 131.674 173.108 130.655 172.675C129.644 172.233 128.851 171.566 128.273 170.673C127.696 169.78 127.407 168.643 127.407 167.263C127.407 166.127 127.601 165.157 127.989 164.354C128.377 163.543 128.918 162.88 129.613 162.366C130.307 161.851 131.115 161.459 132.035 161.188C132.964 160.918 133.965 160.742 135.038 160.661C136.202 160.571 137.135 160.462 137.839 160.336C138.551 160.201 139.066 160.016 139.381 159.781C139.697 159.538 139.855 159.218 139.855 158.821V158.767C139.855 158.225 139.647 157.811 139.232 157.522C138.818 157.233 138.285 157.089 137.636 157.089C136.923 157.089 136.342 157.247 135.891 157.562C135.449 157.869 135.183 158.343 135.092 158.983H128.219C128.309 157.72 128.711 156.557 129.423 155.492C130.145 154.419 131.196 153.562 132.576 152.922C133.956 152.272 135.679 151.948 137.744 151.948C139.232 151.948 140.567 152.123 141.749 152.475C142.931 152.818 143.936 153.301 144.766 153.923C145.596 154.536 146.227 155.258 146.66 156.088C147.102 156.909 147.323 157.801 147.323 158.767V173H140.342V170.078H140.18C139.765 170.853 139.26 171.48 138.664 171.958C138.078 172.436 137.406 172.784 136.648 173C135.9 173.216 135.074 173.325 134.172 173.325ZM136.608 168.616C137.176 168.616 137.708 168.499 138.204 168.265C138.709 168.03 139.12 167.692 139.435 167.25C139.751 166.808 139.909 166.271 139.909 165.64V163.908C139.711 163.989 139.499 164.066 139.273 164.138C139.057 164.21 138.822 164.278 138.569 164.341C138.326 164.404 138.064 164.463 137.785 164.517C137.514 164.571 137.23 164.621 136.932 164.666C136.355 164.756 135.882 164.905 135.512 165.112C135.151 165.311 134.88 165.559 134.7 165.856C134.529 166.145 134.443 166.47 134.443 166.83C134.443 167.408 134.646 167.85 135.052 168.156C135.458 168.463 135.976 168.616 136.608 168.616ZM159.904 181.226C157.82 181.226 156.034 180.928 154.546 180.333C153.067 179.747 151.917 178.935 151.096 177.898C150.284 176.87 149.829 175.688 149.729 174.353H156.927C156.999 174.795 157.18 175.151 157.468 175.422C157.757 175.692 158.127 175.886 158.578 176.004C159.038 176.13 159.552 176.193 160.12 176.193C161.085 176.193 161.884 175.959 162.515 175.489C163.156 175.02 163.476 174.173 163.476 172.946V169.428H163.259C162.989 170.132 162.574 170.731 162.015 171.228C161.455 171.715 160.783 172.089 159.999 172.351C159.214 172.603 158.352 172.729 157.414 172.729C155.935 172.729 154.573 172.387 153.328 171.701C152.093 171.016 151.1 169.929 150.352 168.44C149.612 166.952 149.242 165.008 149.242 162.609C149.242 160.102 149.63 158.063 150.406 156.494C151.191 154.924 152.201 153.774 153.437 153.044C154.681 152.313 155.989 151.948 157.36 151.948C158.389 151.948 159.291 152.128 160.066 152.489C160.842 152.841 161.491 153.314 162.015 153.909C162.538 154.496 162.935 155.141 163.205 155.844H163.367V152.218H170.836V172.946C170.836 174.705 170.38 176.198 169.469 177.424C168.567 178.66 167.296 179.603 165.654 180.252C164.012 180.901 162.096 181.226 159.904 181.226ZM160.174 167.426C160.86 167.426 161.446 167.236 161.933 166.857C162.429 166.47 162.808 165.919 163.07 165.207C163.34 164.485 163.476 163.619 163.476 162.609C163.476 161.581 163.34 160.701 163.07 159.971C162.808 159.231 162.429 158.667 161.933 158.28C161.446 157.883 160.86 157.684 160.174 157.684C159.489 157.684 158.903 157.883 158.416 158.28C157.938 158.667 157.568 159.231 157.306 159.971C157.054 160.701 156.927 161.581 156.927 162.609C156.927 163.637 157.054 164.512 157.306 165.234C157.568 165.946 157.938 166.492 158.416 166.871C158.903 167.241 159.489 167.426 160.174 167.426ZM173.634 173V152.218H180.886V156.169H181.103C181.482 154.708 182.082 153.639 182.902 152.962C183.732 152.286 184.702 151.948 185.811 151.948C186.136 151.948 186.456 151.975 186.772 152.029C187.097 152.074 187.408 152.142 187.705 152.232V158.604C187.336 158.478 186.88 158.383 186.339 158.32C185.798 158.257 185.333 158.225 184.945 158.225C184.215 158.225 183.556 158.392 182.97 158.726C182.393 159.051 181.937 159.511 181.604 160.106C181.27 160.692 181.103 161.382 181.103 162.176V173H173.634ZM193.978 173.325C192.652 173.325 191.479 173.108 190.46 172.675C189.45 172.233 188.656 171.566 188.079 170.673C187.501 169.78 187.213 168.643 187.213 167.263C187.213 166.127 187.407 165.157 187.795 164.354C188.182 163.543 188.724 162.88 189.418 162.366C190.113 161.851 190.92 161.459 191.84 161.188C192.769 160.918 193.77 160.742 194.844 160.661C196.007 160.571 196.941 160.462 197.644 160.336C198.357 160.201 198.871 160.016 199.187 159.781C199.502 159.538 199.66 159.218 199.66 158.821V158.767C199.66 158.225 199.453 157.811 199.038 157.522C198.623 157.233 198.091 157.089 197.441 157.089C196.729 157.089 196.147 157.247 195.696 157.562C195.254 157.869 194.988 158.343 194.898 158.983H188.025C188.115 157.72 188.516 156.557 189.229 155.492C189.95 154.419 191.001 153.562 192.381 152.922C193.761 152.272 195.484 151.948 197.55 151.948C199.038 151.948 200.373 152.123 201.554 152.475C202.736 152.818 203.742 153.301 204.572 153.923C205.401 154.536 206.033 155.258 206.466 156.088C206.908 156.909 207.129 157.801 207.129 158.767V173H200.147V170.078H199.985C199.57 170.853 199.065 171.48 198.47 171.958C197.883 172.436 197.211 172.784 196.454 173C195.705 173.216 194.88 173.325 193.978 173.325ZM196.413 168.616C196.981 168.616 197.514 168.499 198.01 168.265C198.515 168.03 198.925 167.692 199.241 167.25C199.557 166.808 199.714 166.271 199.714 165.64V163.908C199.516 163.989 199.304 164.066 199.079 164.138C198.862 164.21 198.628 164.278 198.375 164.341C198.131 164.404 197.87 164.463 197.59 164.517C197.32 164.571 197.036 164.621 196.738 164.666C196.161 164.756 195.687 164.905 195.317 165.112C194.956 165.311 194.686 165.559 194.505 165.856C194.334 166.145 194.248 166.47 194.248 166.83C194.248 167.408 194.451 167.85 194.857 168.156C195.263 168.463 195.782 168.616 196.413 168.616ZM209.697 173V152.218H216.787V156.169H217.003C217.436 154.87 218.176 153.842 219.222 153.084C220.269 152.326 221.513 151.948 222.956 151.948C224.418 151.948 225.676 152.335 226.731 153.111C227.787 153.878 228.423 154.897 228.639 156.169H228.855C229.207 154.897 229.956 153.878 231.101 153.111C232.247 152.335 233.591 151.948 235.133 151.948C237.127 151.948 238.741 152.588 239.977 153.869C241.222 155.15 241.844 156.854 241.844 158.983V173H234.376V160.877C234.376 159.966 234.146 159.254 233.686 158.74C233.226 158.216 232.608 157.955 231.832 157.955C231.065 157.955 230.457 158.216 230.006 158.74C229.564 159.254 229.343 159.966 229.343 160.877V173H222.199V160.877C222.199 159.966 221.969 159.254 221.509 158.74C221.049 158.216 220.431 157.955 219.655 157.955C219.141 157.955 218.699 158.072 218.329 158.307C217.959 158.541 217.671 158.879 217.463 159.321C217.265 159.754 217.166 160.273 217.166 160.877V173H209.697Z" fill="white"/>
<path d="M58.9301 207.255H61.4949L67.5256 221.985H67.7335L73.7642 207.255H76.329V225H74.3187V211.518H74.1455L68.6 225H66.6591L61.1136 211.518H60.9403V225H58.9301V207.255ZM80.3603 225V211.691H82.4051V225H80.3603ZM81.4 209.473C81.0015 209.473 80.6578 209.337 80.3689 209.065C80.0859 208.794 79.9444 208.468 79.9444 208.086C79.9444 207.705 80.0859 207.379 80.3689 207.107C80.6578 206.836 81.0015 206.7 81.4 206.7C81.7986 206.7 82.1394 206.836 82.4225 207.107C82.7113 207.379 82.8557 207.705 82.8557 208.086C82.8557 208.468 82.7113 208.794 82.4225 209.065C82.1394 209.337 81.7986 209.473 81.4 209.473ZM86.1505 225V211.691H88.1261V213.701H88.2647C88.5073 213.043 88.9463 212.508 89.5817 212.098C90.2172 211.688 90.9335 211.483 91.7306 211.483C91.8808 211.483 92.0685 211.486 92.2938 211.492C92.5191 211.497 92.6895 211.506 92.805 211.518V213.597C92.7357 213.58 92.5769 213.554 92.3285 213.519C92.0859 213.479 91.8288 213.459 91.5573 213.459C90.9103 213.459 90.3327 213.594 89.8244 213.866C89.3218 214.131 88.9232 214.501 88.6286 214.975C88.3398 215.443 88.1954 215.977 88.1954 216.578V225H86.1505ZM99.1455 225.312C98.3021 225.312 97.5367 225.153 96.8493 224.835C96.1619 224.512 95.616 224.047 95.2117 223.44C94.8073 222.828 94.6051 222.089 94.6051 221.222C94.6051 220.46 94.7553 219.842 95.0557 219.368C95.3561 218.888 95.7576 218.513 96.2601 218.241C96.7627 217.97 97.3172 217.768 97.9238 217.635C98.5361 217.496 99.1513 217.387 99.7694 217.306C100.578 217.202 101.234 217.124 101.736 217.072C102.245 217.014 102.614 216.919 102.845 216.786C103.082 216.653 103.201 216.422 103.201 216.093V216.023C103.201 215.168 102.967 214.504 102.499 214.03C102.037 213.557 101.335 213.32 100.393 213.32C99.417 213.32 98.6516 213.534 98.0971 213.961C97.5425 214.389 97.1526 214.845 96.9273 215.33L94.9864 214.637C95.333 213.828 95.7951 213.199 96.3728 212.748C96.9562 212.292 97.5916 211.974 98.279 211.795C98.9722 211.61 99.6538 211.518 100.324 211.518C100.751 211.518 101.242 211.57 101.797 211.674C102.357 211.772 102.897 211.977 103.417 212.289C103.943 212.601 104.379 213.071 104.726 213.701C105.072 214.331 105.245 215.174 105.245 216.231V225H103.201V223.198H103.097C102.958 223.487 102.727 223.796 102.403 224.125C102.08 224.454 101.65 224.734 101.112 224.965C100.575 225.196 99.9195 225.312 99.1455 225.312ZM99.4574 223.475C100.266 223.475 100.948 223.316 101.502 222.998C102.063 222.681 102.484 222.271 102.767 221.768C103.056 221.265 103.201 220.737 103.201 220.182V218.311C103.114 218.415 102.923 218.51 102.629 218.597C102.34 218.678 102.005 218.75 101.624 218.813C101.248 218.871 100.881 218.923 100.523 218.969C100.171 219.01 99.8849 219.044 99.6654 219.073C99.1339 219.143 98.6372 219.255 98.175 219.411C97.7187 219.561 97.349 219.79 97.0659 220.096C96.7887 220.396 96.65 220.806 96.65 221.326C96.65 222.037 96.9129 222.574 97.4385 222.938C97.97 223.296 98.6429 223.475 99.4574 223.475ZM117.885 216.994V225H115.84V211.691H117.816V213.77H117.989C118.301 213.095 118.775 212.552 119.41 212.141C120.046 211.726 120.866 211.518 121.871 211.518C122.772 211.518 123.561 211.702 124.237 212.072C124.912 212.436 125.438 212.991 125.813 213.736C126.189 214.475 126.377 215.411 126.377 216.543V225H124.332V216.682C124.332 215.636 124.06 214.822 123.517 214.238C122.974 213.649 122.229 213.355 121.282 213.355C120.629 213.355 120.046 213.496 119.532 213.779C119.023 214.062 118.622 214.475 118.327 215.018C118.033 215.561 117.885 216.22 117.885 216.994ZM138.501 219.559V211.691H140.546V225H138.501V222.747H138.362C138.05 223.423 137.565 223.998 136.907 224.471C136.248 224.939 135.416 225.173 134.411 225.173C133.579 225.173 132.84 224.991 132.193 224.627C131.546 224.258 131.038 223.703 130.668 222.964C130.298 222.219 130.113 221.28 130.113 220.148V211.691H132.158V220.009C132.158 220.98 132.43 221.754 132.973 222.331C133.522 222.909 134.22 223.198 135.07 223.198C135.578 223.198 136.095 223.068 136.621 222.808C137.152 222.548 137.597 222.149 137.955 221.612C138.319 221.075 138.501 220.39 138.501 219.559ZM149.871 225.277C148.589 225.277 147.483 224.994 146.553 224.428C145.628 223.856 144.915 223.059 144.412 222.037C143.916 221.008 143.667 219.813 143.667 218.449C143.667 217.086 143.916 215.885 144.412 214.845C144.915 213.799 145.614 212.985 146.509 212.401C147.41 211.812 148.462 211.518 149.663 211.518C150.356 211.518 151.041 211.633 151.717 211.864C152.393 212.095 153.008 212.471 153.562 212.991C154.117 213.505 154.559 214.186 154.888 215.036C155.217 215.885 155.382 216.93 155.382 218.172V219.039H145.123V217.271H153.302C153.302 216.52 153.152 215.85 152.852 215.261C152.557 214.672 152.136 214.207 151.587 213.866C151.044 213.525 150.403 213.355 149.663 213.355C148.849 213.355 148.144 213.557 147.549 213.961C146.96 214.36 146.506 214.88 146.189 215.521C145.871 216.162 145.712 216.849 145.712 217.583V218.761C145.712 219.766 145.885 220.619 146.232 221.317C146.584 222.011 147.073 222.539 147.696 222.903C148.32 223.261 149.045 223.44 149.871 223.44C150.408 223.44 150.894 223.365 151.327 223.215C151.766 223.059 152.144 222.828 152.462 222.522C152.78 222.21 153.025 221.823 153.199 221.361L155.174 221.915C154.966 222.585 154.617 223.175 154.126 223.683C153.635 224.186 153.028 224.578 152.306 224.861C151.584 225.139 150.772 225.277 149.871 225.277ZM167.92 214.672L166.083 215.191C165.967 214.885 165.797 214.588 165.572 214.299C165.352 214.004 165.052 213.762 164.671 213.571C164.289 213.381 163.801 213.285 163.206 213.285C162.392 213.285 161.713 213.473 161.17 213.848C160.633 214.218 160.364 214.689 160.364 215.261C160.364 215.769 160.549 216.171 160.919 216.465C161.289 216.76 161.866 217.005 162.652 217.202L164.627 217.687C165.817 217.976 166.704 218.418 167.287 219.013C167.871 219.602 168.163 220.361 168.163 221.291C168.163 222.054 167.943 222.736 167.504 223.336C167.071 223.937 166.464 224.411 165.684 224.757C164.905 225.104 163.998 225.277 162.964 225.277C161.606 225.277 160.483 224.983 159.593 224.393C158.704 223.804 158.14 222.944 157.903 221.811L159.844 221.326C160.029 222.042 160.379 222.58 160.893 222.938C161.413 223.296 162.091 223.475 162.929 223.475C163.882 223.475 164.639 223.273 165.199 222.868C165.765 222.458 166.048 221.967 166.048 221.395C166.048 220.933 165.887 220.546 165.563 220.234C165.24 219.917 164.743 219.68 164.073 219.524L161.855 219.004C160.636 218.715 159.74 218.267 159.169 217.661C158.602 217.049 158.319 216.283 158.319 215.365C158.319 214.614 158.53 213.95 158.952 213.372C159.379 212.794 159.96 212.341 160.694 212.012C161.433 211.682 162.271 211.518 163.206 211.518C164.523 211.518 165.557 211.806 166.308 212.384C167.065 212.962 167.602 213.724 167.92 214.672ZM177.029 211.691V213.424H170.132V211.691H177.029ZM172.142 208.502H174.187V221.188C174.187 221.765 174.271 222.198 174.438 222.487C174.611 222.77 174.831 222.961 175.097 223.059C175.368 223.152 175.654 223.198 175.954 223.198C176.18 223.198 176.365 223.186 176.509 223.163C176.653 223.134 176.769 223.111 176.856 223.094L177.271 224.931C177.133 224.983 176.939 225.035 176.691 225.087C176.442 225.144 176.128 225.173 175.746 225.173C175.169 225.173 174.603 225.049 174.048 224.801C173.499 224.552 173.043 224.174 172.679 223.666C172.321 223.157 172.142 222.516 172.142 221.742V208.502ZM180.105 225V211.691H182.08V213.701H182.219C182.462 213.043 182.901 212.508 183.536 212.098C184.171 211.688 184.888 211.483 185.685 211.483C185.835 211.483 186.023 211.486 186.248 211.492C186.473 211.497 186.644 211.506 186.759 211.518V213.597C186.69 213.58 186.531 213.554 186.283 213.519C186.04 213.479 185.783 213.459 185.512 213.459C184.865 213.459 184.287 213.594 183.779 213.866C183.276 214.131 182.878 214.501 182.583 214.975C182.294 215.443 182.15 215.977 182.15 216.578V225H180.105ZM193.1 225.312C192.256 225.312 191.491 225.153 190.804 224.835C190.116 224.512 189.57 224.047 189.166 223.44C188.762 222.828 188.559 222.089 188.559 221.222C188.559 220.46 188.71 219.842 189.01 219.368C189.31 218.888 189.712 218.513 190.214 218.241C190.717 217.97 191.272 217.768 191.878 217.635C192.49 217.496 193.106 217.387 193.724 217.306C194.532 217.202 195.188 217.124 195.691 217.072C196.199 217.014 196.569 216.919 196.8 216.786C197.036 216.653 197.155 216.422 197.155 216.093V216.023C197.155 215.168 196.921 214.504 196.453 214.03C195.991 213.557 195.289 213.32 194.348 213.32C193.371 213.32 192.606 213.534 192.051 213.961C191.497 214.389 191.107 214.845 190.882 215.33L188.941 214.637C189.287 213.828 189.749 213.199 190.327 212.748C190.91 212.292 191.546 211.974 192.233 211.795C192.926 211.61 193.608 211.518 194.278 211.518C194.706 211.518 195.197 211.57 195.751 211.674C196.312 211.772 196.852 211.977 197.372 212.289C197.897 212.601 198.333 213.071 198.68 213.701C199.026 214.331 199.2 215.174 199.2 216.231V225H197.155V223.198H197.051C196.912 223.487 196.681 223.796 196.358 224.125C196.034 224.454 195.604 224.734 195.067 224.965C194.529 225.196 193.874 225.312 193.1 225.312ZM193.412 223.475C194.22 223.475 194.902 223.316 195.457 222.998C196.017 222.681 196.439 222.271 196.722 221.768C197.01 221.265 197.155 220.737 197.155 220.182V218.311C197.068 218.415 196.878 218.51 196.583 218.597C196.294 218.678 195.959 218.75 195.578 218.813C195.202 218.871 194.836 218.923 194.477 218.969C194.125 219.01 193.839 219.044 193.62 219.073C193.088 219.143 192.591 219.255 192.129 219.411C191.673 219.561 191.303 219.79 191.02 220.096C190.743 220.396 190.604 220.806 190.604 221.326C190.604 222.037 190.867 222.574 191.393 222.938C191.924 223.296 192.597 223.475 193.412 223.475ZM212.359 214.672L210.522 215.191C210.407 214.885 210.237 214.588 210.011 214.299C209.792 214.004 209.491 213.762 209.11 213.571C208.729 213.381 208.241 213.285 207.646 213.285C206.831 213.285 206.153 213.473 205.61 213.848C205.072 214.218 204.804 214.689 204.804 215.261C204.804 215.769 204.989 216.171 205.358 216.465C205.728 216.76 206.306 217.005 207.091 217.202L209.067 217.687C210.257 217.976 211.143 218.418 211.727 219.013C212.31 219.602 212.602 220.361 212.602 221.291C212.602 222.054 212.383 222.736 211.944 223.336C211.51 223.937 210.904 224.411 210.124 224.757C209.344 225.104 208.437 225.277 207.403 225.277C206.046 225.277 204.922 224.983 204.033 224.393C203.143 223.804 202.58 222.944 202.343 221.811L204.284 221.326C204.469 222.042 204.818 222.58 205.332 222.938C205.852 223.296 206.531 223.475 207.369 223.475C208.322 223.475 209.078 223.273 209.639 222.868C210.205 222.458 210.488 221.967 210.488 221.395C210.488 220.933 210.326 220.546 210.003 220.234C209.679 219.917 209.182 219.68 208.512 219.524L206.294 219.004C205.075 218.715 204.18 218.267 203.608 217.661C203.042 217.049 202.759 216.283 202.759 215.365C202.759 214.614 202.97 213.95 203.391 213.372C203.819 212.794 204.399 212.341 205.133 212.012C205.872 211.682 206.71 211.518 207.646 211.518C208.963 211.518 209.997 211.806 210.748 212.384C211.504 212.962 212.042 213.724 212.359 214.672ZM230.93 219.559V211.691H232.975V225H230.93V222.747H230.792C230.48 223.423 229.994 223.998 229.336 224.471C228.677 224.939 227.846 225.173 226.84 225.173C226.009 225.173 225.269 224.991 224.622 224.627C223.975 224.258 223.467 223.703 223.097 222.964C222.728 222.219 222.543 221.28 222.543 220.148V211.691H224.588V220.009C224.588 220.98 224.859 221.754 225.402 222.331C225.951 222.909 226.65 223.198 227.499 223.198C228.007 223.198 228.524 223.068 229.05 222.808C229.581 222.548 230.026 222.149 230.384 221.612C230.748 221.075 230.93 220.39 230.93 219.559ZM226.84 209.889L228.955 205.868H231.346L228.643 209.889H226.84ZM238.765 207.255V225H236.72V207.255H238.765ZM248.299 211.691V213.424H241.402V211.691H248.299ZM243.412 208.502H245.457V221.188C245.457 221.765 245.54 222.198 245.708 222.487C245.881 222.77 246.101 222.961 246.366 223.059C246.638 223.152 246.924 223.198 247.224 223.198C247.45 223.198 247.634 223.186 247.779 223.163C247.923 223.134 248.039 223.111 248.125 223.094L248.541 224.931C248.403 224.983 248.209 225.035 247.961 225.087C247.712 225.144 247.398 225.173 247.016 225.173C246.439 225.173 245.873 225.049 245.318 224.801C244.769 224.552 244.313 224.174 243.949 223.666C243.591 223.157 243.412 222.516 243.412 221.742V208.502ZM251.375 225V211.691H253.42V225H251.375ZM252.414 209.473C252.016 209.473 251.672 209.337 251.383 209.065C251.1 208.794 250.959 208.468 250.959 208.086C250.959 207.705 251.1 207.379 251.383 207.107C251.672 206.836 252.016 206.7 252.414 206.7C252.813 206.7 253.154 206.836 253.437 207.107C253.726 207.379 253.87 207.705 253.87 208.086C253.87 208.468 253.726 208.794 253.437 209.065C253.154 209.337 252.813 209.473 252.414 209.473ZM257.165 225V211.691H259.141V213.77H259.314C259.591 213.06 260.039 212.508 260.657 212.115C261.275 211.717 262.017 211.518 262.884 211.518C263.762 211.518 264.492 211.717 265.076 212.115C265.665 212.508 266.124 213.06 266.454 213.77H266.592C266.933 213.083 267.444 212.537 268.126 212.133C268.808 211.723 269.625 211.518 270.578 211.518C271.768 211.518 272.741 211.89 273.498 212.635C274.255 213.375 274.633 214.527 274.633 216.093V225H272.588V216.093C272.588 215.111 272.32 214.409 271.782 213.987C271.245 213.565 270.613 213.355 269.885 213.355C268.949 213.355 268.224 213.638 267.71 214.204C267.196 214.764 266.939 215.475 266.939 216.335V225H264.859V215.885C264.859 215.128 264.614 214.519 264.123 214.056C263.632 213.588 262.999 213.355 262.225 213.355C261.694 213.355 261.197 213.496 260.735 213.779C260.278 214.062 259.909 214.455 259.626 214.958C259.348 215.454 259.21 216.029 259.21 216.682V225H257.165ZM282.288 225.312C281.445 225.312 280.68 225.153 279.992 224.835C279.305 224.512 278.759 224.047 278.355 223.44C277.95 222.828 277.748 222.089 277.748 221.222C277.748 220.46 277.898 219.842 278.199 219.368C278.499 218.888 278.901 218.513 279.403 218.241C279.906 217.97 280.46 217.768 281.067 217.635C281.679 217.496 282.294 217.387 282.912 217.306C283.721 217.202 284.377 217.124 284.879 217.072C285.388 217.014 285.757 216.919 285.988 216.786C286.225 216.653 286.344 216.422 286.344 216.093V216.023C286.344 215.168 286.11 214.504 285.642 214.03C285.18 213.557 284.478 213.32 283.536 213.32C282.56 213.32 281.795 213.534 281.24 213.961C280.685 214.389 280.296 214.845 280.07 215.33L278.129 214.637C278.476 213.828 278.938 213.199 279.516 212.748C280.099 212.292 280.735 211.974 281.422 211.795C282.115 211.61 282.797 211.518 283.467 211.518C283.894 211.518 284.385 211.57 284.94 211.674C285.5 211.772 286.04 211.977 286.56 212.289C287.086 212.601 287.522 213.071 287.869 213.701C288.215 214.331 288.388 215.174 288.388 216.231V225H286.344V223.198H286.24C286.101 223.487 285.87 223.796 285.546 224.125C285.223 224.454 284.793 224.734 284.255 224.965C283.718 225.196 283.063 225.312 282.288 225.312ZM282.6 223.475C283.409 223.475 284.091 223.316 284.645 222.998C285.206 222.681 285.627 222.271 285.91 221.768C286.199 221.265 286.344 220.737 286.344 220.182V218.311C286.257 218.415 286.066 218.51 285.772 218.597C285.483 218.678 285.148 218.75 284.767 218.813C284.391 218.871 284.024 218.923 283.666 218.969C283.314 219.01 283.028 219.044 282.808 219.073C282.277 219.143 281.78 219.255 281.318 219.411C280.862 219.561 280.492 219.79 280.209 220.096C279.932 220.396 279.793 220.806 279.793 221.326C279.793 222.037 280.056 222.574 280.581 222.938C281.113 223.296 281.786 223.475 282.6 223.475ZM301.548 214.672L299.711 215.191C299.596 214.885 299.425 214.588 299.2 214.299C298.98 214.004 298.68 213.762 298.299 213.571C297.918 213.381 297.429 213.285 296.834 213.285C296.02 213.285 295.341 213.473 294.798 213.848C294.261 214.218 293.992 214.689 293.992 215.261C293.992 215.769 294.177 216.171 294.547 216.465C294.917 216.76 295.494 217.005 296.28 217.202L298.255 217.687C299.445 217.976 300.332 218.418 300.916 219.013C301.499 219.602 301.791 220.361 301.791 221.291C301.791 222.054 301.571 222.736 301.132 223.336C300.699 223.937 300.092 224.411 299.313 224.757C298.533 225.104 297.626 225.277 296.592 225.277C295.234 225.277 294.111 224.983 293.221 224.393C292.332 223.804 291.768 222.944 291.532 221.811L293.473 221.326C293.657 222.042 294.007 222.58 294.521 222.938C295.041 223.296 295.72 223.475 296.557 223.475C297.51 223.475 298.267 223.273 298.827 222.868C299.393 222.458 299.676 221.967 299.676 221.395C299.676 220.933 299.515 220.546 299.191 220.234C298.868 219.917 298.371 219.68 297.701 219.524L295.483 219.004C294.264 218.715 293.369 218.267 292.797 217.661C292.231 217.049 291.948 216.283 291.948 215.365C291.948 214.614 292.158 213.95 292.58 213.372C293.008 212.794 293.588 212.341 294.322 212.012C295.061 211.682 295.899 211.518 296.834 211.518C298.151 211.518 299.185 211.806 299.936 212.384C300.693 212.962 301.23 213.724 301.548 214.672ZM58.6528 266.991V248.691H60.6284V250.805H60.871C61.0212 250.574 61.2292 250.279 61.4949 249.921C61.7664 249.557 62.1534 249.234 62.656 248.951C63.1643 248.662 63.8517 248.518 64.7182 248.518C65.8388 248.518 66.8266 248.798 67.6815 249.358C68.5365 249.918 69.2036 250.713 69.6831 251.741C70.1625 252.769 70.4023 253.982 70.4023 255.38C70.4023 256.79 70.1625 258.011 69.6831 259.045C69.2036 260.074 68.5393 260.871 67.6902 261.437C66.8411 261.997 65.8619 262.277 64.7528 262.277C63.8979 262.277 63.2134 262.136 62.6993 261.853C62.1852 261.564 61.7895 261.237 61.5122 260.874C61.2349 260.504 61.0212 260.198 60.871 259.955H60.6977V266.991H58.6528ZM60.6631 255.345C60.6631 256.351 60.8104 257.237 61.105 258.006C61.3996 258.768 61.8299 259.366 62.396 259.799C62.9621 260.227 63.6553 260.44 64.4756 260.44C65.3305 260.44 66.0439 260.215 66.6158 259.764C67.1934 259.308 67.6267 258.696 67.9155 257.928C68.2101 257.154 68.3574 256.293 68.3574 255.345C68.3574 254.41 68.213 253.566 67.9241 252.815C67.6411 252.059 67.2107 251.461 66.6331 251.022C66.0612 250.577 65.342 250.355 64.4756 250.355C63.6438 250.355 62.9448 250.565 62.3787 250.987C61.8126 251.403 61.3851 251.986 61.0963 252.737C60.8075 253.483 60.6631 254.352 60.6631 255.345ZM81.9091 256.559V248.691H83.954V262H81.9091V259.747H81.7705C81.4585 260.423 80.9733 260.998 80.3148 261.471C79.6562 261.939 78.8244 262.173 77.8193 262.173C76.9875 262.173 76.2481 261.991 75.6011 261.627C74.9542 261.258 74.4458 260.703 74.0761 259.964C73.7064 259.219 73.5216 258.28 73.5216 257.148V248.691H75.5665V257.009C75.5665 257.98 75.838 258.754 76.381 259.331C76.9297 259.909 77.6287 260.198 78.4778 260.198C78.9862 260.198 79.5032 260.068 80.0288 259.808C80.5603 259.548 81.0051 259.149 81.3632 258.612C81.7271 258.075 81.9091 257.39 81.9091 256.559ZM87.9766 262V244.255H90.0215V250.805H90.1948C90.345 250.574 90.5529 250.279 90.8186 249.921C91.0901 249.557 91.4772 249.234 91.9797 248.951C92.4881 248.662 93.1755 248.518 94.0419 248.518C95.1626 248.518 96.1504 248.798 97.0053 249.358C97.8602 249.918 98.5274 250.713 99.0069 251.741C99.4863 252.769 99.726 253.982 99.726 255.38C99.726 256.79 99.4863 258.011 99.0069 259.045C98.5274 260.074 97.8631 260.871 97.014 261.437C96.1648 261.997 95.1857 262.277 94.0766 262.277C93.2217 262.277 92.5372 262.136 92.023 261.853C91.5089 261.564 91.1132 261.237 90.836 260.874C90.5587 260.504 90.345 260.198 90.1948 259.955H89.9522V262H87.9766ZM89.9868 255.345C89.9868 256.351 90.1341 257.237 90.4287 258.006C90.7233 258.768 91.1537 259.366 91.7198 259.799C92.2859 260.227 92.9791 260.44 93.7993 260.44C94.6542 260.44 95.3676 260.215 95.9395 259.764C96.5172 259.308 96.9504 258.696 97.2392 257.928C97.5338 257.154 97.6811 256.293 97.6811 255.345C97.6811 254.41 97.5367 253.566 97.2479 252.815C96.9649 252.059 96.5345 251.461 95.9569 251.022C95.385 250.577 94.6658 250.355 93.7993 250.355C92.9675 250.355 92.2685 250.565 91.7024 250.987C91.1364 251.403 90.7089 251.986 90.4201 252.737C90.1312 253.483 89.9868 254.352 89.9868 255.345ZM104.899 244.255V262H102.854V244.255H104.899ZM108.644 262V248.691H110.689V262H108.644ZM109.684 246.473C109.285 246.473 108.942 246.337 108.653 246.065C108.37 245.794 108.228 245.468 108.228 245.086C108.228 244.705 108.37 244.379 108.653 244.107C108.942 243.836 109.285 243.7 109.684 243.7C110.083 243.7 110.423 243.836 110.706 244.107C110.995 244.379 111.14 244.705 111.14 245.086C111.14 245.468 110.995 245.794 110.706 246.065C110.423 246.337 110.083 246.473 109.684 246.473ZM119.841 262.277C118.594 262.277 117.519 261.983 116.618 261.393C115.717 260.804 115.024 259.993 114.538 258.959C114.053 257.925 113.811 256.743 113.811 255.415C113.811 254.063 114.059 252.87 114.556 251.836C115.058 250.796 115.757 249.985 116.653 249.401C117.554 248.812 118.605 248.518 119.807 248.518C120.742 248.518 121.586 248.691 122.337 249.038C123.088 249.384 123.703 249.869 124.182 250.493C124.662 251.117 124.959 251.845 125.075 252.677H123.03C122.874 252.07 122.527 251.533 121.99 251.065C121.459 250.591 120.742 250.355 119.841 250.355C119.044 250.355 118.345 250.562 117.744 250.978C117.149 251.389 116.684 251.969 116.349 252.72C116.02 253.465 115.856 254.34 115.856 255.345C115.856 256.374 116.017 257.269 116.341 258.032C116.67 258.794 117.132 259.386 117.727 259.808C118.328 260.229 119.033 260.44 119.841 260.44C120.373 260.44 120.855 260.348 121.288 260.163C121.722 259.978 122.088 259.713 122.389 259.366C122.689 259.019 122.903 258.603 123.03 258.118H125.075C124.959 258.904 124.673 259.611 124.217 260.241C123.766 260.865 123.169 261.362 122.423 261.731C121.684 262.095 120.823 262.277 119.841 262.277ZM131.981 262.312C131.137 262.312 130.372 262.153 129.684 261.835C128.997 261.512 128.451 261.047 128.047 260.44C127.642 259.828 127.44 259.089 127.44 258.222C127.44 257.46 127.59 256.842 127.891 256.368C128.191 255.888 128.593 255.513 129.095 255.241C129.598 254.97 130.152 254.768 130.759 254.635C131.371 254.496 131.986 254.387 132.605 254.306C133.413 254.202 134.069 254.124 134.571 254.072C135.08 254.014 135.449 253.919 135.68 253.786C135.917 253.653 136.036 253.422 136.036 253.093V253.023C136.036 252.168 135.802 251.504 135.334 251.03C134.872 250.557 134.17 250.32 133.228 250.32C132.252 250.32 131.487 250.534 130.932 250.961C130.378 251.389 129.988 251.845 129.762 252.33L127.822 251.637C128.168 250.828 128.63 250.199 129.208 249.748C129.791 249.292 130.427 248.974 131.114 248.795C131.807 248.61 132.489 248.518 133.159 248.518C133.587 248.518 134.078 248.57 134.632 248.674C135.192 248.772 135.732 248.977 136.252 249.289C136.778 249.601 137.214 250.071 137.561 250.701C137.907 251.331 138.081 252.174 138.081 253.231V262H136.036V260.198H135.932C135.793 260.487 135.562 260.796 135.239 261.125C134.915 261.454 134.485 261.734 133.948 261.965C133.41 262.196 132.755 262.312 131.981 262.312ZM132.293 260.475C133.101 260.475 133.783 260.316 134.337 259.998C134.898 259.681 135.319 259.271 135.603 258.768C135.891 258.265 136.036 257.737 136.036 257.182V255.311C135.949 255.415 135.758 255.51 135.464 255.597C135.175 255.678 134.84 255.75 134.459 255.813C134.083 255.871 133.716 255.923 133.358 255.969C133.006 256.01 132.72 256.044 132.501 256.073C131.969 256.143 131.472 256.255 131.01 256.411C130.554 256.561 130.184 256.79 129.901 257.096C129.624 257.396 129.485 257.806 129.485 258.326C129.485 259.037 129.748 259.574 130.274 259.938C130.805 260.296 131.478 260.475 132.293 260.475ZM147.22 262.277C145.972 262.277 144.898 261.983 143.997 261.393C143.095 260.804 142.402 259.993 141.917 258.959C141.432 257.925 141.189 256.743 141.189 255.415C141.189 254.063 141.438 252.87 141.934 251.836C142.437 250.796 143.136 249.985 144.031 249.401C144.932 248.812 145.984 248.518 147.185 248.518C148.121 248.518 148.964 248.691 149.715 249.038C150.466 249.384 151.081 249.869 151.561 250.493C152.04 251.117 152.338 251.845 152.453 252.677H150.408C150.252 252.07 149.906 251.533 149.369 251.065C148.837 250.591 148.121 250.355 147.22 250.355C146.423 250.355 145.724 250.562 145.123 250.978C144.528 251.389 144.063 251.969 143.728 252.72C143.399 253.465 143.234 254.34 143.234 255.345C143.234 256.374 143.396 257.269 143.719 258.032C144.049 258.794 144.511 259.386 145.106 259.808C145.706 260.229 146.411 260.44 147.22 260.44C147.751 260.44 148.234 260.348 148.667 260.163C149.1 259.978 149.467 259.713 149.767 259.366C150.068 259.019 150.281 258.603 150.408 258.118H152.453C152.338 258.904 152.052 259.611 151.596 260.241C151.145 260.865 150.547 261.362 149.802 261.731C149.063 262.095 148.202 262.277 147.22 262.277ZM155.443 262V248.691H157.488V262H155.443ZM156.482 246.473C156.084 246.473 155.74 246.337 155.451 246.065C155.168 245.794 155.027 245.468 155.027 245.086C155.027 244.705 155.168 244.379 155.451 244.107C155.74 243.836 156.084 243.7 156.482 243.7C156.881 243.7 157.222 243.836 157.505 244.107C157.794 244.379 157.938 244.705 157.938 245.086C157.938 245.468 157.794 245.794 157.505 246.065C157.222 246.337 156.881 246.473 156.482 246.473ZM166.64 262.277C165.438 262.277 164.384 261.991 163.477 261.419C162.576 260.848 161.871 260.048 161.363 259.019C160.86 257.991 160.609 256.79 160.609 255.415C160.609 254.028 160.86 252.818 161.363 251.784C161.871 250.75 162.576 249.947 163.477 249.375C164.384 248.804 165.438 248.518 166.64 248.518C167.841 248.518 168.893 248.804 169.794 249.375C170.701 249.947 171.405 250.75 171.908 251.784C172.416 252.818 172.67 254.028 172.67 255.415C172.67 256.79 172.416 257.991 171.908 259.019C171.405 260.048 170.701 260.848 169.794 261.419C168.893 261.991 167.841 262.277 166.64 262.277ZM166.64 260.44C167.552 260.44 168.303 260.206 168.893 259.738C169.482 259.271 169.918 258.655 170.201 257.893C170.484 257.13 170.626 256.304 170.626 255.415C170.626 254.525 170.484 253.696 170.201 252.928C169.918 252.16 169.482 251.539 168.893 251.065C168.303 250.591 167.552 250.355 166.64 250.355C165.727 250.355 164.976 250.591 164.387 251.065C163.798 251.539 163.362 252.16 163.079 252.928C162.795 253.696 162.654 254.525 162.654 255.415C162.654 256.304 162.795 257.13 163.079 257.893C163.362 258.655 163.798 259.271 164.387 259.738C164.976 260.206 165.727 260.44 166.64 260.44ZM177.837 253.994V262H175.792V248.691H177.767V250.77H177.941C178.253 250.095 178.726 249.552 179.362 249.141C179.997 248.726 180.817 248.518 181.823 248.518C182.724 248.518 183.512 248.702 184.188 249.072C184.864 249.436 185.39 249.991 185.765 250.736C186.141 251.475 186.328 252.411 186.328 253.543V262H184.283V253.682C184.283 252.636 184.012 251.822 183.469 251.238C182.926 250.649 182.181 250.355 181.233 250.355C180.581 250.355 179.997 250.496 179.483 250.779C178.975 251.062 178.573 251.475 178.279 252.018C177.984 252.561 177.837 253.22 177.837 253.994ZM195.645 262.277C194.363 262.277 193.256 261.994 192.326 261.428C191.402 260.856 190.689 260.059 190.186 259.037C189.689 258.008 189.441 256.813 189.441 255.449C189.441 254.086 189.689 252.885 190.186 251.845C190.689 250.799 191.388 249.985 192.283 249.401C193.184 248.812 194.236 248.518 195.437 248.518C196.13 248.518 196.815 248.633 197.491 248.864C198.167 249.095 198.782 249.471 199.336 249.991C199.891 250.505 200.333 251.186 200.662 252.036C200.991 252.885 201.156 253.93 201.156 255.172V256.039H190.897V254.271H199.076C199.076 253.52 198.926 252.85 198.626 252.261C198.331 251.672 197.909 251.207 197.361 250.866C196.818 250.525 196.177 250.355 195.437 250.355C194.623 250.355 193.918 250.557 193.323 250.961C192.734 251.36 192.28 251.88 191.963 252.521C191.645 253.162 191.486 253.849 191.486 254.583V255.761C191.486 256.766 191.659 257.619 192.006 258.317C192.358 259.011 192.846 259.539 193.47 259.903C194.094 260.261 194.819 260.44 195.645 260.44C196.182 260.44 196.668 260.365 197.101 260.215C197.54 260.059 197.918 259.828 198.236 259.522C198.554 259.21 198.799 258.823 198.972 258.361L200.948 258.915C200.74 259.585 200.39 260.175 199.899 260.683C199.408 261.186 198.802 261.578 198.08 261.861C197.358 262.139 196.546 262.277 195.645 262.277ZM213.694 251.672L211.857 252.191C211.741 251.885 211.571 251.588 211.346 251.299C211.126 251.004 210.826 250.762 210.444 250.571C210.063 250.381 209.575 250.285 208.98 250.285C208.166 250.285 207.487 250.473 206.944 250.848C206.407 251.218 206.138 251.689 206.138 252.261C206.138 252.769 206.323 253.171 206.693 253.465C207.062 253.76 207.64 254.005 208.426 254.202L210.401 254.687C211.591 254.976 212.478 255.418 213.061 256.013C213.645 256.602 213.936 257.361 213.936 258.291C213.936 259.054 213.717 259.736 213.278 260.336C212.845 260.937 212.238 261.411 211.458 261.757C210.678 262.104 209.772 262.277 208.738 262.277C207.38 262.277 206.257 261.983 205.367 261.393C204.477 260.804 203.914 259.944 203.677 258.811L205.618 258.326C205.803 259.042 206.153 259.58 206.667 259.938C207.187 260.296 207.865 260.475 208.703 260.475C209.656 260.475 210.413 260.273 210.973 259.868C211.539 259.458 211.822 258.967 211.822 258.395C211.822 257.933 211.66 257.546 211.337 257.234C211.013 256.917 210.517 256.68 209.847 256.524L207.628 256.004C206.41 255.715 205.514 255.267 204.942 254.661C204.376 254.049 204.093 253.283 204.093 252.365C204.093 251.614 204.304 250.95 204.726 250.372C205.153 249.794 205.734 249.341 206.467 249.012C207.207 248.682 208.044 248.518 208.98 248.518C210.297 248.518 211.331 248.806 212.082 249.384C212.839 249.962 213.376 250.724 213.694 251.672ZM218.505 262.139C218.077 262.139 217.711 261.986 217.404 261.679C217.098 261.373 216.945 261.006 216.945 260.579C216.945 260.152 217.098 259.785 217.404 259.479C217.711 259.172 218.077 259.019 218.505 259.019C218.932 259.019 219.299 259.172 219.605 259.479C219.911 259.785 220.065 260.152 220.065 260.579C220.065 260.862 219.992 261.122 219.848 261.359C219.709 261.596 219.522 261.786 219.285 261.931C219.054 262.069 218.794 262.139 218.505 262.139Z" fill="white"/>
</g>
</g>
<path d="M20.7812 2H412.781C422.722 2 430.781 10.0589 430.781 20V326H2.78125V20C2.78125 10.0589 10.8401 2 20.7812 2Z" stroke="url(#paint3_linear_7043_4057)" stroke-width="4"/>
<defs>
<filter id="filter0_d_7043_4057" x="-21.2188" y="3" width="476" height="372" filterUnits="userSpaceOnUse" color-interpolation-filters="sRGB">
<feFlood flood-opacity="0" result="BackgroundImageFix"/>
<feColorMatrix in="SourceAlpha" type="matrix" values="0 0 0 0 0 0 0 0 0 0 0 0 0 0 0 0 0 0 127 0" result="hardAlpha"/>
<feMorphology radius="12" operator="erode" in="SourceAlpha" result="effect1_dropShadow_7043_4057"/>
<feOffset dy="25"/>
<feGaussianBlur stdDeviation="25"/>
<feColorMatrix type="matrix" values="0 0 0 0 0 0 0 0 0 0 0 0 0 0 0 0 0 0 0.25 0"/>
<feBlend mode="normal" in2="BackgroundImageFix" result="effect1_dropShadow_7043_4057"/>
<feBlend mode="normal" in="SourceGraphic" in2="effect1_dropShadow_7043_4057" result="shape"/>
</filter>
<radialGradient id="paint0_radial_7043_4057" cx="0" cy="0" r="1" gradientUnits="userSpaceOnUse" gradientTransform="translate(80.7812 102) rotate(-55.3758) scale(51.0392)">
<stop stop-color="#B13589"/>
<stop offset="0.79309" stop-color="#C62F94"/>
<stop offset="1" stop-color="#8A3AC8"/>
</radialGradient>
<radialGradient id="paint1_radial_7043_4057" cx="0" cy="0" r="1" gradientUnits="userSpaceOnUse" gradientTransform="translate(78.7813 118) rotate(-65.1363) scale(45.1884)">
<stop stop-color="#E0E8B7"/>
<stop offset="0.444662" stop-color="#FB8A2E"/>
<stop offset="0.71474" stop-color="#E2425C"/>
<stop offset="1" stop-color="#E2425C" stop-opacity="0"/>
</radialGradient>
<radialGradient id="paint2_radial_7043_4057" cx="0" cy="0" r="1" gradientUnits="userSpaceOnUse" gradientTransform="translate(57.7813 62) rotate(-8.1301) scale(77.7818 16.6367)">
<stop offset="0.156701" stop-color="#406ADC"/>
<stop offset="0.467799" stop-color="#6A45BE"/>
<stop offset="1" stop-color="#6A45BE" stop-opacity="0"/>
</radialGradient>
<linearGradient id="paint3_linear_7043_4057" x1="216.781" y1="0" x2="216.781" y2="328" gradientUnits="userSpaceOnUse">
<stop stop-color="#950647"/>
<stop offset="0.505" stop-color="#950647" stop-opacity="0"/>
</linearGradient>
<clipPath id="clip0_7043_4057">
<path d="M0.78125 20C0.78125 8.95431 9.73556 0 20.7813 0H412.781C423.827 0 432.781 8.95431 432.781 20V328H0.78125V20Z" fill="white"/>
</clipPath>
</defs>
</svg>
