<svg width="433" height="328" viewBox="0 0 433 328" fill="none" xmlns="http://www.w3.org/2000/svg">
<g clip-path="url(#clip0_7043_4069)">
<g filter="url(#filter0_d_7043_4069)">
<path d="M16.7812 36C16.7812 24.9543 25.7356 16 36.7813 16H396.781C407.827 16 416.781 24.9543 416.781 36V292C416.781 303.046 407.827 312 396.781 312H36.7813C25.7356 312 16.7812 303.046 16.7812 292V36Z" fill="#792623"/>
<path d="M56.7812 68C56.7812 61.3726 62.1538 56 68.7812 56H108.781C115.409 56 120.781 61.3726 120.781 68V108C120.781 114.627 115.409 120 108.781 120H68.7812C62.1538 120 56.7812 114.627 56.7812 108V68Z" fill="#C3302B"/>
<path d="M84.9461 93.5737V82.4274L94.7449 88.0012L84.9461 93.5737ZM106.741 78.9187C106.299 77.2924 105.049 76.0349 103.46 75.5899L103.426 75.5824C99.4349 75.0749 94.8186 74.7849 90.1336 74.7849C89.6574 74.7849 89.1824 74.7874 88.7086 74.7937L88.7811 74.7924C88.3786 74.7874 87.9049 74.7837 87.4286 74.7837C82.7436 74.7837 78.1249 75.0737 73.5911 75.6349L74.1336 75.5799C72.5124 76.0337 71.2624 77.2899 70.8286 78.8837L70.8211 78.9162C70.3211 81.5524 70.0361 84.5862 70.0361 87.6862C70.0361 87.7962 70.0361 87.9062 70.0374 88.0149V87.9974C70.0374 88.0899 70.0361 88.1999 70.0361 88.3099C70.0361 91.4099 70.3224 94.4424 70.8686 97.3837L70.8211 97.0787C71.2636 98.7049 72.5136 99.9624 74.1024 100.407L74.1361 100.415C78.1274 100.922 82.7436 101.212 87.4286 101.212C87.9036 101.212 88.3786 101.21 88.8536 101.204L88.7811 101.205C89.1836 101.21 89.6586 101.214 90.1336 101.214C94.8199 101.214 99.4374 100.924 103.971 100.362L103.429 100.417C105.051 99.9649 106.301 98.7074 106.736 97.1137L106.744 97.0812C107.242 94.4449 107.527 91.4112 107.527 88.3124C107.527 88.2024 107.527 88.0924 107.526 87.9837V87.9999C107.526 87.9074 107.527 87.7974 107.527 87.6874C107.527 84.5874 107.241 81.5549 106.695 78.6137L106.741 78.9187Z" fill="#F9FAFB"/>
<path d="M57.7681 145.291H66.1566L71.5686 156.548H71.785L77.197 145.291H85.5855L75.411 164.287V173H67.9426V164.287L57.7681 145.291ZM91.8747 173.379C89.6197 173.379 87.6894 172.932 86.0839 172.039C84.4784 171.137 83.2471 169.884 82.3903 168.278C81.5334 166.664 81.1049 164.792 81.1049 162.663C81.1049 160.535 81.5334 158.667 82.3903 157.062C83.2471 155.447 84.4784 154.194 86.0839 153.301C87.6894 152.399 89.6197 151.948 91.8747 151.948C94.1296 151.948 96.0599 152.399 97.6654 153.301C99.271 154.194 100.502 155.447 101.359 157.062C102.216 158.667 102.644 160.535 102.644 162.663C102.644 164.792 102.216 166.664 101.359 168.278C100.502 169.884 99.271 171.137 97.6654 172.039C96.0599 172.932 94.1296 173.379 91.8747 173.379ZM91.9288 167.859C92.5602 167.859 93.1059 167.647 93.5659 167.223C94.0259 166.799 94.3822 166.194 94.6347 165.41C94.8873 164.625 95.0136 163.691 95.0136 162.609C95.0136 161.518 94.8873 160.584 94.6347 159.808C94.3822 159.024 94.0259 158.419 93.5659 157.995C93.1059 157.571 92.5602 157.36 91.9288 157.36C91.2613 157.36 90.6885 157.571 90.2105 157.995C89.7324 158.419 89.3671 159.024 89.1146 159.808C88.862 160.584 88.7357 161.518 88.7357 162.609C88.7357 163.691 88.862 164.625 89.1146 165.41C89.3671 166.194 89.7324 166.799 90.2105 167.223C90.6885 167.647 91.2613 167.859 91.9288 167.859ZM118.151 163.908V152.218H125.619V173H118.53V169.049H118.313C117.862 170.375 117.073 171.412 115.945 172.161C114.818 172.901 113.478 173.271 111.927 173.271C110.475 173.271 109.203 172.937 108.112 172.269C107.029 171.602 106.186 170.682 105.582 169.509C104.986 168.337 104.684 166.993 104.675 165.477V152.218H112.144V163.908C112.153 164.936 112.414 165.744 112.928 166.33C113.451 166.916 114.182 167.209 115.12 167.209C115.742 167.209 116.279 167.078 116.73 166.817C117.19 166.546 117.542 166.167 117.785 165.68C118.038 165.184 118.16 164.593 118.151 163.908ZM140.811 152.218V157.63H127.119V152.218H140.811ZM129.771 147.239H137.239V166.316C137.239 166.605 137.289 166.848 137.388 167.047C137.487 167.236 137.641 167.381 137.848 167.48C138.056 167.57 138.322 167.615 138.646 167.615C138.872 167.615 139.133 167.588 139.431 167.534C139.738 167.48 139.963 167.435 140.108 167.399L141.19 172.648C140.856 172.747 140.378 172.869 139.756 173.014C139.142 173.158 138.412 173.253 137.564 173.298C135.85 173.388 134.411 173.212 133.248 172.77C132.084 172.319 131.209 171.611 130.623 170.646C130.037 169.681 129.753 168.472 129.771 167.02V147.239ZM156.334 163.908V152.218H163.803V173H156.713V169.049H156.497C156.046 170.375 155.257 171.412 154.129 172.161C153.002 172.901 151.662 173.271 150.111 173.271C148.658 173.271 147.387 172.937 146.295 172.269C145.213 171.602 144.37 170.682 143.765 169.509C143.17 168.337 142.868 166.993 142.859 165.477V152.218H150.327V163.908C150.336 164.936 150.598 165.744 151.112 166.33C151.635 166.916 152.366 167.209 153.304 167.209C153.926 167.209 154.463 167.078 154.914 166.817C155.374 166.546 155.726 166.167 155.969 165.68C156.222 165.184 156.343 164.593 156.334 163.908ZM166.493 173V145.291H173.962V155.844H174.07C174.34 155.141 174.737 154.496 175.26 153.909C175.784 153.314 176.433 152.841 177.209 152.489C177.984 152.128 178.886 151.948 179.915 151.948C181.286 151.948 182.589 152.313 183.825 153.044C185.07 153.774 186.08 154.924 186.856 156.494C187.64 158.063 188.033 160.102 188.033 162.609C188.033 165.008 187.658 166.997 186.91 168.576C186.17 170.154 185.178 171.331 183.933 172.107C182.697 172.883 181.34 173.271 179.861 173.271C178.886 173.271 178.016 173.113 177.249 172.797C176.492 172.472 175.842 172.035 175.301 171.485C174.769 170.925 174.358 170.294 174.07 169.59H173.907V173H166.493ZM173.799 162.609C173.799 163.619 173.93 164.494 174.192 165.234C174.462 165.964 174.841 166.533 175.328 166.939C175.824 167.336 176.415 167.534 177.1 167.534C177.786 167.534 178.368 167.34 178.846 166.952C179.333 166.555 179.703 165.992 179.955 165.261C180.217 164.521 180.348 163.637 180.348 162.609C180.348 161.581 180.217 160.701 179.955 159.971C179.703 159.231 179.333 158.667 178.846 158.28C178.368 157.883 177.786 157.684 177.1 157.684C176.415 157.684 175.824 157.883 175.328 158.28C174.841 158.667 174.462 159.231 174.192 159.971C173.93 160.701 173.799 161.581 173.799 162.609ZM200.116 173.379C197.897 173.379 195.985 172.955 194.379 172.107C192.783 171.25 191.552 170.023 190.686 168.427C189.829 166.821 189.4 164.9 189.4 162.663C189.4 160.516 189.833 158.64 190.699 157.035C191.565 155.429 192.787 154.18 194.366 153.287C195.944 152.394 197.807 151.948 199.954 151.948C201.523 151.948 202.944 152.191 204.215 152.678C205.487 153.165 206.574 153.873 207.476 154.802C208.378 155.722 209.073 156.841 209.56 158.158C210.047 159.475 210.29 160.958 210.29 162.609V164.341H191.727V160.228H203.417C203.408 159.633 203.255 159.109 202.957 158.658C202.669 158.198 202.276 157.842 201.78 157.59C201.293 157.328 200.738 157.197 200.116 157.197C199.512 157.197 198.957 157.328 198.452 157.59C197.947 157.842 197.541 158.194 197.234 158.645C196.936 159.096 196.779 159.624 196.761 160.228V164.666C196.761 165.333 196.9 165.928 197.18 166.452C197.46 166.975 197.861 167.385 198.384 167.683C198.907 167.98 199.539 168.129 200.278 168.129C200.792 168.129 201.261 168.057 201.685 167.913C202.118 167.768 202.488 167.561 202.795 167.29C203.102 167.011 203.327 166.677 203.471 166.289H210.29C210.056 167.732 209.501 168.986 208.626 170.05C207.751 171.106 206.592 171.927 205.149 172.513C203.715 173.09 202.037 173.379 200.116 173.379Z" fill="white"/>
<path d="M58.9301 225V207.255H69.6398V209.161H61.079V215.157H69.0852V217.063H61.079V223.094H69.7784V225H58.9301ZM75.2805 216.994V225H73.2357V211.691H75.2112V213.77H75.3845C75.6964 213.095 76.1701 212.552 76.8055 212.141C77.441 211.726 78.2612 211.518 79.2663 211.518C80.1675 211.518 80.956 211.702 81.6318 212.072C82.3077 212.436 82.8333 212.991 83.2088 213.736C83.5843 214.475 83.772 215.411 83.772 216.543V225H81.7271V216.682C81.7271 215.636 81.4556 214.822 80.9126 214.238C80.3696 213.649 79.6245 213.355 78.6771 213.355C78.0244 213.355 77.441 213.496 76.9268 213.779C76.4185 214.062 76.017 214.475 75.7224 215.018C75.4278 215.561 75.2805 216.22 75.2805 216.994ZM92.9155 225.277C91.6678 225.277 90.5934 224.983 89.6922 224.393C88.7911 223.804 88.0979 222.993 87.6127 221.959C87.1274 220.925 86.8848 219.743 86.8848 218.415C86.8848 217.063 87.1332 215.87 87.63 214.836C88.1326 213.796 88.8315 212.985 89.7269 212.401C90.628 211.812 91.6793 211.518 92.8809 211.518C93.8167 211.518 94.66 211.691 95.411 212.038C96.1619 212.384 96.7771 212.869 97.2566 213.493C97.736 214.117 98.0335 214.845 98.149 215.677H96.1042C95.9482 215.07 95.6016 214.533 95.0644 214.065C94.5329 213.591 93.8167 213.355 92.9155 213.355C92.1184 213.355 91.4194 213.562 90.8186 213.978C90.2237 214.389 89.7587 214.969 89.4236 215.72C89.0944 216.465 88.9297 217.34 88.9297 218.345C88.9297 219.374 89.0915 220.269 89.4149 221.032C89.7442 221.794 90.2063 222.386 90.8013 222.808C91.4021 223.229 92.1068 223.44 92.9155 223.44C93.447 223.44 93.9293 223.348 94.3625 223.163C94.7958 222.978 95.1626 222.713 95.463 222.366C95.7633 222.019 95.9771 221.603 96.1042 221.118H98.149C98.0335 221.904 97.7476 222.611 97.2912 223.241C96.8407 223.865 96.2428 224.362 95.4976 224.731C94.7582 225.095 93.8975 225.277 92.9155 225.277ZM109.526 219.559V211.691H111.571V225H109.526V222.747H109.387C109.075 223.423 108.59 223.998 107.932 224.471C107.273 224.939 106.441 225.173 105.436 225.173C104.604 225.173 103.865 224.991 103.218 224.627C102.571 224.258 102.063 223.703 101.693 222.964C101.323 222.219 101.138 221.28 101.138 220.148V211.691H103.183V220.009C103.183 220.98 103.455 221.754 103.998 222.331C104.547 222.909 105.245 223.198 106.095 223.198C106.603 223.198 107.12 223.068 107.646 222.808C108.177 222.548 108.622 222.149 108.98 221.612C109.344 221.075 109.526 220.39 109.526 219.559ZM120.896 225.277C119.614 225.277 118.508 224.994 117.578 224.428C116.653 223.856 115.94 223.059 115.437 222.037C114.941 221.008 114.692 219.813 114.692 218.449C114.692 217.086 114.941 215.885 115.437 214.845C115.94 213.799 116.639 212.985 117.534 212.401C118.435 211.812 119.487 211.518 120.688 211.518C121.381 211.518 122.066 211.633 122.742 211.864C123.418 212.095 124.033 212.471 124.587 212.991C125.142 213.505 125.584 214.186 125.913 215.036C126.242 215.885 126.407 216.93 126.407 218.172V219.039H116.148V217.271H124.327C124.327 216.52 124.177 215.85 123.877 215.261C123.582 214.672 123.161 214.207 122.612 213.866C122.069 213.525 121.428 213.355 120.688 213.355C119.874 213.355 119.169 213.557 118.574 213.961C117.985 214.36 117.531 214.88 117.214 215.521C116.896 216.162 116.737 216.849 116.737 217.583V218.761C116.737 219.766 116.91 220.619 117.257 221.317C117.609 222.011 118.098 222.539 118.721 222.903C119.345 223.261 120.07 223.44 120.896 223.44C121.433 223.44 121.919 223.365 122.352 223.215C122.791 223.059 123.169 222.828 123.487 222.522C123.805 222.21 124.05 221.823 124.224 221.361L126.199 221.915C125.991 222.585 125.642 223.175 125.151 223.683C124.66 224.186 124.053 224.578 123.331 224.861C122.609 225.139 121.797 225.277 120.896 225.277ZM131.563 216.994V225H129.518V211.691H131.493V213.77H131.667C131.978 213.095 132.452 212.552 133.088 212.141C133.723 211.726 134.543 211.518 135.548 211.518C136.45 211.518 137.238 211.702 137.914 212.072C138.59 212.436 139.115 212.991 139.491 213.736C139.866 214.475 140.054 215.411 140.054 216.543V225H138.009V216.682C138.009 215.636 137.738 214.822 137.195 214.238C136.652 213.649 135.907 213.355 134.959 213.355C134.306 213.355 133.723 213.496 133.209 213.779C132.701 214.062 132.299 214.475 132.004 215.018C131.71 215.561 131.563 216.22 131.563 216.994ZM149.579 211.691V213.424H142.682V211.691H149.579ZM144.692 208.502H146.737V221.188C146.737 221.765 146.821 222.198 146.988 222.487C147.161 222.77 147.381 222.961 147.647 223.059C147.918 223.152 148.204 223.198 148.504 223.198C148.73 223.198 148.914 223.186 149.059 223.163C149.203 223.134 149.319 223.111 149.405 223.094L149.821 224.931C149.683 224.983 149.489 225.035 149.241 225.087C148.992 225.144 148.678 225.173 148.296 225.173C147.719 225.173 147.153 225.049 146.598 224.801C146.049 224.552 145.593 224.174 145.229 223.666C144.871 223.157 144.692 222.516 144.692 221.742V208.502ZM152.655 225V211.691H154.63V213.701H154.769C155.012 213.043 155.451 212.508 156.086 212.098C156.721 211.688 157.438 211.483 158.235 211.483C158.385 211.483 158.573 211.486 158.798 211.492C159.023 211.497 159.194 211.506 159.309 211.518V213.597C159.24 213.58 159.081 213.554 158.833 213.519C158.59 213.479 158.333 213.459 158.062 213.459C157.415 213.459 156.837 213.594 156.329 213.866C155.826 214.131 155.428 214.501 155.133 214.975C154.844 215.443 154.7 215.977 154.7 216.578V225H152.655ZM165.65 225.312C164.806 225.312 164.041 225.153 163.354 224.835C162.666 224.512 162.12 224.047 161.716 223.44C161.312 222.828 161.109 222.089 161.109 221.222C161.109 220.46 161.26 219.842 161.56 219.368C161.86 218.888 162.262 218.513 162.764 218.241C163.267 217.97 163.822 217.768 164.428 217.635C165.04 217.496 165.656 217.387 166.274 217.306C167.082 217.202 167.738 217.124 168.241 217.072C168.749 217.014 169.119 216.919 169.35 216.786C169.586 216.653 169.705 216.422 169.705 216.093V216.023C169.705 215.168 169.471 214.504 169.003 214.03C168.541 213.557 167.839 213.32 166.898 213.32C165.921 213.32 165.156 213.534 164.601 213.961C164.047 214.389 163.657 214.845 163.432 215.33L161.491 214.637C161.837 213.828 162.299 213.199 162.877 212.748C163.46 212.292 164.096 211.974 164.783 211.795C165.476 211.61 166.158 211.518 166.828 211.518C167.256 211.518 167.747 211.57 168.301 211.674C168.862 211.772 169.402 211.977 169.922 212.289C170.447 212.601 170.883 213.071 171.23 213.701C171.576 214.331 171.75 215.174 171.75 216.231V225H169.705V223.198H169.601C169.462 223.487 169.231 223.796 168.908 224.125C168.584 224.454 168.154 224.734 167.617 224.965C167.079 225.196 166.424 225.312 165.65 225.312ZM165.962 223.475C166.77 223.475 167.452 223.316 168.007 222.998C168.567 222.681 168.989 222.271 169.272 221.768C169.56 221.265 169.705 220.737 169.705 220.182V218.311C169.618 218.415 169.428 218.51 169.133 218.597C168.844 218.678 168.509 218.75 168.128 218.813C167.752 218.871 167.386 218.923 167.027 218.969C166.675 219.01 166.389 219.044 166.17 219.073C165.638 219.143 165.141 219.255 164.679 219.411C164.223 219.561 163.853 219.79 163.57 220.096C163.293 220.396 163.154 220.806 163.154 221.326C163.154 222.037 163.417 222.574 163.943 222.938C164.474 223.296 165.147 223.475 165.962 223.475ZM187.751 225.277C186.504 225.277 185.429 224.983 184.528 224.393C183.627 223.804 182.934 222.993 182.449 221.959C181.963 220.925 181.721 219.743 181.721 218.415C181.721 217.063 181.969 215.87 182.466 214.836C182.968 213.796 183.667 212.985 184.563 212.401C185.464 211.812 186.515 211.518 187.717 211.518C188.653 211.518 189.496 211.691 190.247 212.038C190.998 212.384 191.613 212.869 192.093 213.493C192.572 214.117 192.869 214.845 192.985 215.677H190.94C190.784 215.07 190.438 214.533 189.9 214.065C189.369 213.591 188.653 213.355 187.751 213.355C186.954 213.355 186.255 213.562 185.655 213.978C185.06 214.389 184.595 214.969 184.26 215.72C183.93 216.465 183.766 217.34 183.766 218.345C183.766 219.374 183.927 220.269 184.251 221.032C184.58 221.794 185.042 222.386 185.637 222.808C186.238 223.229 186.943 223.44 187.751 223.44C188.283 223.44 188.765 223.348 189.198 223.163C189.632 222.978 189.999 222.713 190.299 222.366C190.599 222.019 190.813 221.603 190.94 221.118H192.985C192.869 221.904 192.584 222.611 192.127 223.241C191.677 223.865 191.079 224.362 190.334 224.731C189.594 225.095 188.733 225.277 187.751 225.277ZM201.381 225.277C200.18 225.277 199.125 224.991 198.219 224.419C197.317 223.848 196.613 223.048 196.104 222.019C195.602 220.991 195.35 219.79 195.35 218.415C195.35 217.028 195.602 215.818 196.104 214.784C196.613 213.75 197.317 212.947 198.219 212.375C199.125 211.804 200.18 211.518 201.381 211.518C202.583 211.518 203.634 211.804 204.535 212.375C205.442 212.947 206.147 213.75 206.649 214.784C207.158 215.818 207.412 217.028 207.412 218.415C207.412 219.79 207.158 220.991 206.649 222.019C206.147 223.048 205.442 223.848 204.535 224.419C203.634 224.991 202.583 225.277 201.381 225.277ZM201.381 223.44C202.294 223.44 203.045 223.206 203.634 222.738C204.223 222.271 204.659 221.655 204.942 220.893C205.225 220.13 205.367 219.304 205.367 218.415C205.367 217.525 205.225 216.696 204.942 215.928C204.659 215.16 204.223 214.539 203.634 214.065C203.045 213.591 202.294 213.355 201.381 213.355C200.468 213.355 199.718 213.591 199.128 214.065C198.539 214.539 198.103 215.16 197.82 215.928C197.537 216.696 197.395 217.525 197.395 218.415C197.395 219.304 197.537 220.13 197.82 220.893C198.103 221.655 198.539 222.271 199.128 222.738C199.718 223.206 200.468 223.44 201.381 223.44ZM212.578 216.994V225H210.533V211.691H212.509V213.77H212.682C212.994 213.095 213.468 212.552 214.103 212.141C214.739 211.726 215.559 211.518 216.564 211.518C217.465 211.518 218.254 211.702 218.929 212.072C219.605 212.436 220.131 212.991 220.506 213.736C220.882 214.475 221.07 215.411 221.07 216.543V225H219.025V216.682C219.025 215.636 218.753 214.822 218.21 214.238C217.667 213.649 216.922 213.355 215.975 213.355C215.322 213.355 214.739 213.496 214.224 213.779C213.716 214.062 213.315 214.475 213.02 215.018C212.725 215.561 212.578 216.22 212.578 216.994ZM230.594 211.691V213.424H223.697V211.691H230.594ZM225.707 208.502H227.752V221.188C227.752 221.765 227.836 222.198 228.004 222.487C228.177 222.77 228.396 222.961 228.662 223.059C228.934 223.152 229.22 223.198 229.52 223.198C229.745 223.198 229.93 223.186 230.075 223.163C230.219 223.134 230.334 223.111 230.421 223.094L230.837 224.931C230.698 224.983 230.505 225.035 230.257 225.087C230.008 225.144 229.693 225.173 229.312 225.173C228.734 225.173 228.168 225.049 227.614 224.801C227.065 224.552 226.609 224.174 226.245 223.666C225.887 223.157 225.707 222.516 225.707 221.742V208.502ZM239.108 225.277C237.825 225.277 236.719 224.994 235.789 224.428C234.865 223.856 234.151 223.059 233.649 222.037C233.152 221.008 232.904 219.813 232.904 218.449C232.904 217.086 233.152 215.885 233.649 214.845C234.151 213.799 234.85 212.985 235.746 212.401C236.647 211.812 237.698 211.518 238.9 211.518C239.593 211.518 240.277 211.633 240.953 211.864C241.629 212.095 242.244 212.471 242.799 212.991C243.353 213.505 243.795 214.186 244.124 215.036C244.454 215.885 244.618 216.93 244.618 218.172V219.039H234.359V217.271H242.539C242.539 216.52 242.389 215.85 242.088 215.261C241.794 214.672 241.372 214.207 240.823 213.866C240.28 213.525 239.639 213.355 238.9 213.355C238.085 213.355 237.38 213.557 236.785 213.961C236.196 214.36 235.743 214.88 235.425 215.521C235.107 216.162 234.948 216.849 234.948 217.583V218.761C234.948 219.766 235.122 220.619 235.468 221.317C235.821 222.011 236.309 222.539 236.933 222.903C237.557 223.261 238.282 223.44 239.108 223.44C239.645 223.44 240.13 223.365 240.563 223.215C241.002 223.059 241.381 222.828 241.698 222.522C242.016 222.21 242.262 221.823 242.435 221.361L244.41 221.915C244.202 222.585 243.853 223.175 243.362 223.683C242.871 224.186 242.264 224.578 241.542 224.861C240.82 225.139 240.009 225.277 239.108 225.277ZM249.774 216.994V225H247.729V211.691H249.705V213.77H249.878C250.19 213.095 250.663 212.552 251.299 212.141C251.934 211.726 252.755 211.518 253.76 211.518C254.661 211.518 255.449 211.702 256.125 212.072C256.801 212.436 257.327 212.991 257.702 213.736C258.078 214.475 258.265 215.411 258.265 216.543V225H256.22V216.682C256.22 215.636 255.949 214.822 255.406 214.238C254.863 213.649 254.118 213.355 253.17 213.355C252.518 213.355 251.934 213.496 251.42 213.779C250.912 214.062 250.51 214.475 250.216 215.018C249.921 215.561 249.774 216.22 249.774 216.994ZM262.002 225V211.691H264.047V225H262.002ZM263.042 209.473C262.643 209.473 262.3 209.337 262.011 209.065C261.728 208.794 261.586 208.468 261.586 208.086C261.586 207.705 261.728 207.379 262.011 207.107C262.3 206.836 262.643 206.7 263.042 206.7C263.44 206.7 263.781 206.836 264.064 207.107C264.353 207.379 264.498 207.705 264.498 208.086C264.498 208.468 264.353 208.794 264.064 209.065C263.781 209.337 263.44 209.473 263.042 209.473ZM272.818 225.277C271.709 225.277 270.73 224.997 269.881 224.437C269.031 223.871 268.367 223.074 267.888 222.045C267.408 221.011 267.168 219.79 267.168 218.38C267.168 216.982 267.408 215.769 267.888 214.741C268.367 213.713 269.034 212.918 269.889 212.358C270.744 211.798 271.732 211.518 272.853 211.518C273.719 211.518 274.404 211.662 274.906 211.951C275.414 212.234 275.801 212.557 276.067 212.921C276.339 213.279 276.549 213.574 276.7 213.805H276.873V207.255H278.918V225H276.942V222.955H276.7C276.549 223.198 276.336 223.504 276.058 223.874C275.781 224.237 275.386 224.564 274.871 224.853C274.357 225.136 273.673 225.277 272.818 225.277ZM273.095 223.44C273.915 223.44 274.609 223.227 275.175 222.799C275.741 222.366 276.171 221.768 276.466 221.006C276.76 220.237 276.908 219.351 276.908 218.345C276.908 217.352 276.763 216.483 276.474 215.737C276.186 214.986 275.758 214.403 275.192 213.987C274.626 213.565 273.927 213.355 273.095 213.355C272.229 213.355 271.507 213.577 270.929 214.022C270.357 214.461 269.927 215.059 269.638 215.815C269.355 216.566 269.213 217.41 269.213 218.345C269.213 219.293 269.358 220.154 269.647 220.928C269.941 221.696 270.374 222.308 270.946 222.764C271.524 223.215 272.24 223.44 273.095 223.44ZM288.354 225.277C287.152 225.277 286.098 224.991 285.191 224.419C284.29 223.848 283.585 223.048 283.077 222.019C282.574 220.991 282.323 219.79 282.323 218.415C282.323 217.028 282.574 215.818 283.077 214.784C283.585 213.75 284.29 212.947 285.191 212.375C286.098 211.804 287.152 211.518 288.354 211.518C289.555 211.518 290.607 211.804 291.508 212.375C292.415 212.947 293.119 213.75 293.622 214.784C294.13 215.818 294.384 217.028 294.384 218.415C294.384 219.79 294.13 220.991 293.622 222.019C293.119 223.048 292.415 223.848 291.508 224.419C290.607 224.991 289.555 225.277 288.354 225.277ZM288.354 223.44C289.266 223.44 290.017 223.206 290.607 222.738C291.196 222.271 291.632 221.655 291.915 220.893C292.198 220.13 292.34 219.304 292.34 218.415C292.34 217.525 292.198 216.696 291.915 215.928C291.632 215.16 291.196 214.539 290.607 214.065C290.017 213.591 289.266 213.355 288.354 213.355C287.441 213.355 286.69 213.591 286.101 214.065C285.512 214.539 285.076 215.16 284.793 215.928C284.51 216.696 284.368 217.525 284.368 218.415C284.368 219.304 284.51 220.13 284.793 220.893C285.076 221.655 285.512 222.271 286.101 222.738C286.69 223.206 287.441 223.44 288.354 223.44ZM64.233 262.277C62.9506 262.277 61.8444 261.994 60.9143 261.428C59.9901 260.856 59.2767 260.059 58.7741 259.037C58.2774 258.008 58.029 256.813 58.029 255.449C58.029 254.086 58.2774 252.885 58.7741 251.845C59.2767 250.799 59.9757 249.985 60.871 249.401C61.7722 248.812 62.8235 248.518 64.025 248.518C64.7182 248.518 65.4027 248.633 66.0786 248.864C66.7544 249.095 67.3696 249.471 67.9241 249.991C68.4787 250.505 68.9206 251.186 69.2499 252.036C69.5791 252.885 69.7437 253.93 69.7437 255.172V256.039H59.4847V254.271H67.6642C67.6642 253.52 67.514 252.85 67.2136 252.261C66.919 251.672 66.4973 251.207 65.9486 250.866C65.4056 250.525 64.7644 250.355 64.025 250.355C63.2105 250.355 62.5058 250.557 61.9108 250.961C61.3216 251.36 60.8681 251.88 60.5504 252.521C60.2327 253.162 60.0739 253.849 60.0739 254.583V255.761C60.0739 256.766 60.2472 257.619 60.5937 258.317C60.9461 259.011 61.4342 259.539 62.0581 259.903C62.682 260.261 63.4069 260.44 64.233 260.44C64.7702 260.44 65.2554 260.365 65.6886 260.215C66.1277 260.059 66.506 259.828 66.8237 259.522C67.1414 259.21 67.3869 258.823 67.5602 258.361L69.5358 258.915C69.3278 259.585 68.9784 260.175 68.4874 260.683C67.9964 261.186 67.3898 261.578 66.6678 261.861C65.9457 262.139 65.1341 262.277 64.233 262.277ZM74.022 248.691L77.2106 254.132L80.3993 248.691H82.7561L78.4583 255.345L82.7561 262H80.3993L77.2106 256.836L74.022 262H71.6652L75.8936 255.345L71.6652 248.691H74.022ZM90.5327 262.277C89.285 262.277 88.2105 261.983 87.3094 261.393C86.4083 260.804 85.7151 259.993 85.2299 258.959C84.7446 257.925 84.502 256.743 84.502 255.415C84.502 254.063 84.7504 252.87 85.2472 251.836C85.7497 250.796 86.4487 249.985 87.3441 249.401C88.2452 248.812 89.2965 248.518 90.498 248.518C91.4338 248.518 92.2772 248.691 93.0282 249.038C93.7791 249.384 94.3943 249.869 94.8738 250.493C95.3532 251.117 95.6507 251.845 95.7662 252.677H93.7213C93.5654 252.07 93.2188 251.533 92.6816 251.065C92.1501 250.591 91.4338 250.355 90.5327 250.355C89.7355 250.355 89.0366 250.562 88.4358 250.978C87.8408 251.389 87.3758 251.969 87.0408 252.72C86.7115 253.465 86.5469 254.34 86.5469 255.345C86.5469 256.374 86.7087 257.269 87.0321 258.032C87.3614 258.794 87.8235 259.386 88.4185 259.808C89.0193 260.229 89.724 260.44 90.5327 260.44C91.0641 260.44 91.5465 260.348 91.9797 260.163C92.413 259.978 92.7798 259.713 93.0801 259.366C93.3805 259.019 93.5943 258.603 93.7213 258.118H95.7662C95.6507 258.904 95.3648 259.611 94.9084 260.241C94.4578 260.865 93.86 261.362 93.1148 261.731C92.3754 262.095 91.5147 262.277 90.5327 262.277ZM100.8 244.255V262H98.7556V244.255H100.8ZM112.933 256.559V248.691H114.978V262H112.933V259.747H112.795C112.483 260.423 111.998 260.998 111.339 261.471C110.68 261.939 109.849 262.173 108.844 262.173C108.012 262.173 107.272 261.991 106.625 261.627C105.978 261.258 105.47 260.703 105.1 259.964C104.731 259.219 104.546 258.28 104.546 257.148V248.691H106.591V257.009C106.591 257.98 106.862 258.754 107.405 259.331C107.954 259.909 108.653 260.198 109.502 260.198C110.01 260.198 110.527 260.068 111.053 259.808C111.584 259.548 112.029 259.149 112.387 258.612C112.751 258.075 112.933 257.39 112.933 256.559ZM128.151 251.672L126.314 252.191C126.198 251.885 126.028 251.588 125.803 251.299C125.583 251.004 125.283 250.762 124.902 250.571C124.52 250.381 124.032 250.285 123.437 250.285C122.623 250.285 121.944 250.473 121.401 250.848C120.864 251.218 120.595 251.689 120.595 252.261C120.595 252.769 120.78 253.171 121.15 253.465C121.519 253.76 122.097 254.005 122.883 254.202L124.858 254.687C126.048 254.976 126.935 255.418 127.518 256.013C128.102 256.602 128.393 257.361 128.393 258.291C128.393 259.054 128.174 259.736 127.735 260.336C127.302 260.937 126.695 261.411 125.915 261.757C125.135 262.104 124.229 262.277 123.195 262.277C121.837 262.277 120.714 261.983 119.824 261.393C118.934 260.804 118.371 259.944 118.134 258.811L120.075 258.326C120.26 259.042 120.61 259.58 121.124 259.938C121.644 260.296 122.322 260.475 123.16 260.475C124.113 260.475 124.87 260.273 125.43 259.868C125.996 259.458 126.279 258.967 126.279 258.395C126.279 257.933 126.117 257.546 125.794 257.234C125.471 256.917 124.974 256.68 124.304 256.524L122.085 256.004C120.867 255.715 119.971 255.267 119.399 254.661C118.833 254.049 118.55 253.283 118.55 252.365C118.55 251.614 118.761 250.95 119.183 250.372C119.61 249.794 120.191 249.341 120.924 249.012C121.664 248.682 122.501 248.518 123.437 248.518C124.754 248.518 125.788 248.806 126.539 249.384C127.296 249.962 127.833 250.724 128.151 251.672ZM131.472 262V248.691H133.516V262H131.472ZM132.511 246.473C132.113 246.473 131.769 246.337 131.48 246.065C131.197 245.794 131.056 245.468 131.056 245.086C131.056 244.705 131.197 244.379 131.48 244.107C131.769 243.836 132.113 243.7 132.511 243.7C132.91 243.7 133.251 243.836 133.534 244.107C133.823 244.379 133.967 244.705 133.967 245.086C133.967 245.468 133.823 245.794 133.534 246.065C133.251 246.337 132.91 246.473 132.511 246.473ZM148.145 248.691L143.223 262H141.144L136.222 248.691H138.44L142.114 259.297H142.253L145.927 248.691H148.145ZM155.774 262.277C154.573 262.277 153.518 261.991 152.611 261.419C151.71 260.848 151.006 260.048 150.497 259.019C149.995 257.991 149.743 256.79 149.743 255.415C149.743 254.028 149.995 252.818 150.497 251.784C151.006 250.75 151.71 249.947 152.611 249.375C153.518 248.804 154.573 248.518 155.774 248.518C156.976 248.518 158.027 248.804 158.928 249.375C159.835 249.947 160.54 250.75 161.042 251.784C161.551 252.818 161.805 254.028 161.805 255.415C161.805 256.79 161.551 257.991 161.042 259.019C160.54 260.048 159.835 260.848 158.928 261.419C158.027 261.991 156.976 262.277 155.774 262.277ZM155.774 260.44C156.687 260.44 157.438 260.206 158.027 259.738C158.616 259.271 159.052 258.655 159.335 257.893C159.618 257.13 159.76 256.304 159.76 255.415C159.76 254.525 159.618 253.696 159.335 252.928C159.052 252.16 158.616 251.539 158.027 251.065C157.438 250.591 156.687 250.355 155.774 250.355C154.861 250.355 154.11 250.591 153.521 251.065C152.932 251.539 152.496 252.16 152.213 252.928C151.93 253.696 151.788 254.525 151.788 255.415C151.788 256.304 151.93 257.13 152.213 257.893C152.496 258.655 152.932 259.271 153.521 259.738C154.11 260.206 154.861 260.44 155.774 260.44Z" fill="white"/>
</g>
</g>
<path d="M20.7812 2H412.781C422.722 2 430.781 10.0589 430.781 20V326H2.78125V20C2.78125 10.0589 10.8401 2 20.7812 2Z" stroke="url(#paint0_linear_7043_4069)" stroke-width="4"/>
<defs>
<filter id="filter0_d_7043_4069" x="-21.2188" y="3" width="476" height="372" filterUnits="userSpaceOnUse" color-interpolation-filters="sRGB">
<feFlood flood-opacity="0" result="BackgroundImageFix"/>
<feColorMatrix in="SourceAlpha" type="matrix" values="0 0 0 0 0 0 0 0 0 0 0 0 0 0 0 0 0 0 127 0" result="hardAlpha"/>
<feMorphology radius="12" operator="erode" in="SourceAlpha" result="effect1_dropShadow_7043_4069"/>
<feOffset dy="25"/>
<feGaussianBlur stdDeviation="25"/>
<feColorMatrix type="matrix" values="0 0 0 0 0 0 0 0 0 0 0 0 0 0 0 0 0 0 0.25 0"/>
<feBlend mode="normal" in2="BackgroundImageFix" result="effect1_dropShadow_7043_4069"/>
<feBlend mode="normal" in="SourceGraphic" in2="effect1_dropShadow_7043_4069" result="shape"/>
</filter>
<linearGradient id="paint0_linear_7043_4069" x1="216.781" y1="0" x2="216.781" y2="328" gradientUnits="userSpaceOnUse">
<stop stop-color="#792623"/>
<stop offset="0.505" stop-color="#792623" stop-opacity="0"/>
</linearGradient>
<clipPath id="clip0_7043_4069">
<path d="M0.78125 20C0.78125 8.95431 9.73556 0 20.7813 0H412.781C423.827 0 432.781 8.95431 432.781 20V328H0.78125V20Z" fill="white"/>
</clipPath>
</defs>
</svg>
