<svg width="1920" height="1131" viewBox="0 0 1920 1131" fill="none" xmlns="http://www.w3.org/2000/svg">
<g clip-path="url(#clip0_7049_653)">
<rect width="1920" height="1130" transform="translate(0 0.663086)" fill="#101214"/>
<g opacity="0.1">
<mask id="mask0_7049_653" style="mask-type:luminance" maskUnits="userSpaceOnUse" x="-93" y="-186" width="2108" height="1502">
<path d="M2014.05 -10.4318L24 -185.337L-92.558 1140.85L1897.49 1315.75L2014.05 -10.4318Z" fill="white"/>
</mask>
<g mask="url(#mask0_7049_653)">
<path d="M-96.2129 840.164C-53.731 748.51 54.1509 692.34 153.545 709.929C224.301 722.496 289.159 767.955 360.997 764.413C448.433 760.237 512.198 688.829 575.238 637.071C654.306 572.187 728.073 548.601 827.382 588.067C901.023 617.258 958.817 674.626 1040.23 681.948C1189.95 695.441 1277.02 545.228 1335.34 431.244C1394.06 316.46 1452.89 194.67 1580.47 144.408C1685.04 103.148 1784.57 117.242 1885.92 158.224C1934.66 177.877 1982.85 192.469 2021.18 231.754" stroke="url(#paint0_linear_7049_653)" stroke-miterlimit="10"/>
<path d="M2025.32 237.798C1985.96 198.923 1936.99 183.761 1887.58 164.049C1851.26 149.497 1815.13 138.47 1778.93 131.948C1712.64 119.941 1645.96 123.769 1577.57 150.835C1556.43 159.335 1536.98 169.652 1519.21 181.622C1428.77 242.834 1380.29 345.654 1329.84 442.454C1269.72 557.95 1177.83 705.903 1026.75 690.786C945.231 682.786 887.046 626.053 813.825 595.896C748.482 569.271 694.177 569.176 641.908 589.64C615.428 600.009 589.642 615.784 562.98 635.826C499.611 683.714 435.093 750.378 347.911 753.574C326.284 754.346 305.354 751.003 284.599 745.67C236.239 733.067 189.505 709.582 140.03 702.059C40.613 686.64 -66.1955 743.907 -108.209 835.936" stroke="url(#paint1_linear_7049_653)" stroke-miterlimit="10"/>
<path d="M2029.16 243.648C1988.75 205.182 1939.16 189.464 1888.93 169.68C1852.11 155.084 1815.33 143.833 1778.62 137.433C1711.32 125.504 1643.29 129.382 1574.53 156.916C1553.05 165.552 1533.57 176.036 1515.6 188.488C1424.2 251.119 1376.22 355.821 1324.51 453.68C1262.57 570.853 1165.73 716.199 1013.29 699.459C931.993 690.811 873.267 634.531 800.27 603.725C735.634 576.662 681.489 574.743 629.424 592.886C603.06 601.929 577.225 616.364 550.543 634.733C487.012 678.764 421.741 740.684 334.631 743.052C313.02 743.658 291.923 740.3 271.168 734.968C222.599 722.848 175.582 700.674 126.186 694.16C26.7161 681.242 -79.0044 739.44 -120.55 831.844" stroke="url(#paint2_linear_7049_653)" stroke-miterlimit="10"/>
<path d="M2032.99 249.497C1991.54 211.442 1941.32 195.334 1890.27 175.311C1852.95 160.672 1815.67 149.377 1778.31 142.918C1710.01 130.902 1640.79 135.009 1571.31 163.148C1549.64 171.935 1529.81 182.721 1511.66 195.325C1419.29 259.374 1371.81 366.125 1318.86 464.71C1254.93 583.547 1153.51 725.983 999.658 708.118C918.421 698.806 859.32 642.994 786.562 611.375C722.647 583.706 668.785 580.476 616.939 596.132C590.677 604.015 564.807 616.943 538.27 633.655C474.411 673.815 408.568 730.84 321.365 732.364C299.783 732.638 278.687 729.281 257.736 724.265C208.972 712.462 161.658 691.765 112.326 686.427C13.1641 675.707 -91.4829 735.002 -132.726 827.767" stroke="url(#paint3_linear_7049_653)" stroke-miterlimit="10"/>
<path d="M2036.83 255.181C1994.35 217.535 1943.34 200.857 1891.79 180.791C1853.98 166.108 1816.2 154.769 1778.17 148.252C1708.86 136.314 1638.46 140.651 1568.45 169.077C1546.6 178.016 1526.42 188.938 1508.08 201.859C1414.6 267.148 1367.77 375.96 1313.56 475.603C1247.83 595.952 1141.62 735.796 986.376 716.639C905.212 706.499 845.555 651.307 773.187 619.053C709.828 590.765 656.263 586.057 604.635 599.227C578.475 605.949 552.737 617.385 526.014 632.41C461.841 668.533 395.396 720.995 308.281 721.524C286.713 721.633 265.451 718.261 244.486 713.412C195.512 702.091 147.916 682.706 98.6478 678.543C-0.371865 670.007 -104.111 730.384 -144.72 823.539" stroke="url(#paint4_linear_7049_653)" stroke-miterlimit="10"/>
<path d="M2040.83 261.045C1997.31 223.809 1945.68 206.576 1893.29 186.602C1854.98 171.875 1816.54 160.478 1778.01 153.918C1707.71 141.892 1635.95 146.444 1565.39 175.324C1543.2 184.399 1522.99 195.653 1504.28 208.877C1409.85 275.584 1363.52 386.278 1308.06 486.814C1240.35 608.826 1129.52 746.092 972.747 725.298C891.627 714.66 831.595 659.936 759.465 626.868C696.813 598.141 643.559 591.79 591.984 602.459C565.775 607.84 540.153 617.95 513.41 631.302C449.075 663.569 381.877 711.287 294.849 710.822C273.296 710.765 252.034 707.393 231.054 702.709C181.886 691.706 134.173 673.647 84.6366 670.629C-14.4212 664.429 -116.921 725.917 -157.227 819.433" stroke="url(#paint5_linear_7049_653)" stroke-miterlimit="10"/>
<path d="M2044.66 266.894C2000.1 230.069 1947.84 212.445 1894.63 192.233C1855.82 177.462 1816.89 166.021 1777.69 159.403C1706.38 147.455 1633.45 152.071 1562.18 181.39C1539.81 190.616 1519.26 202.007 1500.36 215.548C1404.79 283.659 1359.12 396.415 1302.26 497.664C1232.73 621.354 1116.95 756.013 958.967 733.775C877.905 722.475 817.497 668.219 745.606 634.336C683.661 605.171 630.553 597.162 579.363 605.359C553.256 609.579 527.599 618.183 500.836 629.863C436.006 658.244 368.387 701.248 281.432 699.953C259.742 699.551 238.646 696.193 217.486 691.66C168.108 681.14 120.113 664.392 70.6403 662.55C-28.2898 658.7 -129.702 721.118 -169.539 815.009" stroke="url(#paint6_linear_7049_653)" stroke-miterlimit="10"/>
<path d="M2048.49 272.744C2002.89 236.328 1949.84 218.134 1896.14 197.878C1856.83 183.064 1817.4 171.579 1777.54 164.902C1705.24 152.868 1631.11 157.712 1559.29 187.651C1536.74 197.029 1515.83 208.722 1496.74 222.413C1400.22 291.944 1355.05 406.582 1296.92 508.889C1225.43 634.076 1105.02 766.158 945.488 742.614C864.65 730.665 803.686 677.028 732.034 642.332C670.631 612.712 617.999 603.075 566.862 608.771C540.871 611.665 515.165 618.928 488.382 628.936C423.224 653.446 355.033 691.555 268.151 689.431C246.475 688.863 225.213 685.49 204.039 681.124C154.466 670.92 106.173 655.65 56.765 654.983C-42.0229 653.316 -142.527 716.817 -181.896 811.083" stroke="url(#paint7_linear_7049_653)" stroke-miterlimit="10"/>
<path d="M2052.34 278.428C2005.68 242.587 1952.03 223.672 1897.5 203.343C1857.69 188.485 1817.6 176.943 1777.24 170.222C1703.76 158.251 1628.44 163.325 1556.1 193.551C1533.2 203.066 1512.27 214.925 1492.81 229.084C1395.18 299.854 1350.66 416.554 1291.29 519.754C1217.97 646.618 1092.78 776.108 931.888 750.941C851.108 738.329 789.769 685.16 718.341 649.815C657.659 619.591 605.159 608.461 554.406 611.685C528.352 613.405 502.777 619.175 476.139 627.526C410.668 647.999 341.875 681.544 255.08 678.426C233.419 677.692 212.157 674.32 190.802 670.104C141.02 660.383 92.445 646.425 43.1149 646.767C-55.5452 647.45 -154.962 711.882 -193.877 806.689" stroke="url(#paint8_linear_7049_653)" stroke-miterlimit="10"/>
<path d="M2056.17 284.277C2008.48 248.847 1954.19 229.542 1898.84 208.974C1858.54 194.072 1817.94 182.486 1776.91 175.873C1702.43 163.814 1625.93 169.118 1552.88 199.783C1529.8 209.449 1508.51 221.61 1489.04 235.936C1390.44 308.124 1346.43 426.706 1285.79 530.964C1210.49 659.492 1080.68 786.404 918.41 759.78C837.688 746.504 775.794 693.955 704.784 657.644C644.81 626.981 592.47 614.028 541.921 614.931C515.983 615.324 490.359 619.754 463.701 626.432C397.736 643.02 328.521 671.851 241.799 667.904C220.168 666.838 198.725 663.617 177.356 659.567C127.378 650.163 78.5066 637.682 29.2404 639.199C-69.4579 642.218 -167.635 707.761 -206.067 802.778" stroke="url(#paint9_linear_7049_653)" stroke-miterlimit="10"/>
<path d="M2060.16 290.141C2011.43 255.12 1956.36 235.245 1900.34 214.785C1859.54 199.84 1818.46 188.044 1776.92 181.553C1701.43 169.572 1623.75 174.94 1550.14 206.225C1526.88 216.041 1505.25 228.339 1485.58 242.982C1385.86 316.575 1342.5 437.219 1280.63 542.204C1203.52 672.244 1068.91 796.729 905.098 768.633C824.435 754.694 762.165 702.613 691.38 665.654C631.947 634.537 580.084 619.956 529.754 618.372C503.918 617.605 478.259 620.529 451.581 625.534C385.302 638.085 315.486 662.353 228.851 657.411C207.234 656.179 185.806 652.793 164.422 648.909C114.235 639.987 65.2618 628.667 15.879 631.51C-82.677 636.713 -179.947 703.338 -217.911 798.73" stroke="url(#paint10_linear_7049_653)" stroke-miterlimit="10"/>
<path d="M2064 295.991C2014.23 261.38 1958.53 240.949 1901.85 220.431C1860.38 205.427 1818.81 193.587 1776.77 187.052C1700.28 174.985 1621.23 180.733 1547.1 212.305C1523.48 222.425 1501.83 234.888 1481.8 249.833C1381.12 324.845 1338.26 447.371 1275.13 553.414C1195.9 684.771 1056.49 806.83 891.319 777.111C810.7 762.675 748.054 711.062 677.522 673.123C618.796 641.567 567.08 625.328 516.967 621.258C491.082 619.15 465.54 620.747 438.842 624.08C372.083 632.58 301.846 652.133 215.284 646.362C193.696 644.799 172.088 641.564 150.689 637.845C100.307 629.241 51.0367 619.398 1.73233 623.25C-96.696 630.803 -192.878 698.359 -230.388 794.292" stroke="url(#paint11_linear_7049_653)" stroke-miterlimit="10"/>
<path d="M2067.84 301.674C2017.03 267.473 1960.71 246.653 1903.2 225.896C1861.24 210.848 1819.17 198.965 1776.47 192.372C1698.97 180.382 1618.75 186.194 1543.91 218.206C1520.11 228.476 1498.11 241.076 1477.89 256.338C1376.26 332.604 1333.89 457.177 1269.35 564.098C1188.45 697.314 1044.24 816.945 877.704 785.603C797.309 770.519 734.108 719.525 663.814 680.772C605.795 648.777 554.39 630.895 504.331 624.323C478.562 620.889 452.819 620.965 426.253 622.807C359.014 627.255 288.341 642.259 201.867 635.494C180.293 633.765 158.685 630.529 137.106 626.962C86.5146 618.841 36.9617 610.309 -12.2788 615.336C-110.579 625.24 -205.688 693.892 -242.881 790.02" stroke="url(#paint12_linear_7049_653)" stroke-miterlimit="10"/>
<path d="M2071.67 307.524C2019.83 273.733 1962.71 252.342 1904.55 231.527C1862.09 216.435 1819.52 204.508 1776.15 197.857C1697.66 185.78 1616.25 191.821 1540.85 224.452C1516.87 234.874 1494.51 247.777 1474.11 263.19C1371.35 340.86 1329.64 467.495 1263.85 575.309C1181.13 710.202 1032.14 827.242 864.225 794.442C783.888 778.694 720.131 728.32 650.242 688.767C592.764 656.319 541.671 636.793 491.996 627.75C466.329 623.155 440.552 621.725 414.131 621.909C346.413 622.305 275.304 632.761 188.903 625.167C167.178 623.257 145.75 619.871 123.976 616.62C73.1894 608.816 23.3395 601.762 -25.8371 607.964C-124.161 620.037 -218.196 689.786 -254.755 786.304" stroke="url(#paint13_linear_7049_653)" stroke-miterlimit="10"/>
<path d="M2075.5 313.373C2022.62 279.992 1964.89 258.046 1905.89 237.157C1862.95 221.857 1819.7 210.037 1775.84 203.342C1696.35 191.178 1613.58 197.434 1537.64 230.519C1513.48 241.091 1490.78 254.131 1470.18 269.861C1366.47 348.95 1325.26 477.467 1258.21 586.174C1173.51 722.73 1019.9 837.191 850.611 802.935C770.317 786.69 706.2 736.618 636.549 696.251C579.779 663.363 528.845 642.014 479.374 630.65C453.824 624.729 428.012 621.792 401.556 620.469C333.359 616.814 261.814 622.721 175.5 614.133C153.804 611.892 132.196 608.656 110.422 605.406C59.4406 597.918 9.29384 592.342 -39.8044 599.553C-138.001 613.976 -230.948 684.656 -267.218 781.701" stroke="url(#paint14_linear_7049_653)" stroke-miterlimit="10"/>
<path d="M2079.5 319.237C2025.56 286.432 1967.04 263.915 1907.55 242.983C1864.11 227.639 1820.37 215.775 1775.84 209.022C1695.35 196.936 1611.38 203.422 1534.75 236.78C1510.25 247.489 1487.51 260.86 1466.55 276.892C1361.71 357.386 1321.17 487.8 1252.88 597.399C1166.38 735.467 1007.96 847.502 837.314 811.622C757.079 794.714 692.571 745.276 623.16 704.095C566.93 670.753 516.474 647.776 467.222 633.925C441.608 626.829 415.926 622.401 389.451 619.405C320.788 611.533 248.793 613.057 162.401 603.459C140.72 601.053 119.112 597.817 97.3229 594.733C46.1318 587.728 -4.11699 583.311 -53.3318 591.849C-151.401 608.622 -243.259 680.233 -279.062 777.653" stroke="url(#paint15_linear_7049_653)" stroke-miterlimit="10"/>
<path d="M2083.33 325.087C2028.35 292.691 1969.22 269.619 1908.89 248.614C1864.96 233.226 1820.72 221.319 1775.52 214.507C1694.04 202.333 1608.88 209.049 1531.71 242.86C1507.03 253.721 1483.95 267.228 1462.96 283.592C1357.17 365.339 1317.1 497.966 1247.56 608.458C1159.08 748.189 995.862 857.798 823.85 820.295C743.659 802.89 678.776 753.92 609.618 711.758C554.095 677.978 503.785 653.343 454.751 637.005C429.254 628.583 403.538 622.648 377.027 618.146C307.9 606.057 235.469 603.032 149.15 592.606C127.483 590.033 105.724 586.617 83.9059 583.864C32.5198 577.176 -18.026 574.237 -67.1769 583.95C-165.269 602.892 -256.069 675.766 -291.389 773.395" stroke="url(#paint16_linear_7049_653)" stroke-miterlimit="10"/>
<path d="M2087.17 330.77C2031.16 298.785 1971.4 275.157 1910.25 254.079C1865.82 238.647 1820.91 226.682 1775.22 219.826C1692.73 207.731 1606.23 214.496 1528.5 248.927C1503.64 259.938 1480.2 273.748 1459.03 290.263C1352.12 373.415 1312.72 507.938 1241.76 619.308C1151.46 760.717 983.442 867.899 809.903 828.758C729.936 810.704 664.331 762.34 595.578 719.378C540.596 685.144 490.612 658.7 441.782 640.042C416.401 630.294 390.47 623.003 364.271 616.858C294.845 600.566 221.798 593.144 135.551 581.888C113.914 578.984 92.1399 575.734 70.1418 573.133C18.5461 566.927 -32.2821 565.3 -81.3546 576.022C-179.319 597.314 -269.031 671.119 -303.897 769.289" stroke="url(#paint17_linear_7049_653)" stroke-miterlimit="10"/>
<path d="M2091.01 336.62C2033.95 305.044 1973.4 281.012 1911.6 259.71C1866.66 244.234 1821.28 232.059 1775.06 225.492C1691.57 213.309 1603.87 220.469 1525.62 255.188C1500.4 266.336 1476.95 280.312 1455.4 297.295C1347.53 381.865 1308.64 518.271 1236.42 630.699C1144.14 773.605 971.493 878.376 796.593 837.611C716.67 819.06 650.689 771.164 582.174 727.388C527.9 692.715 478.228 664.628 429.616 643.483C404.171 632.56 378.386 623.611 352.152 615.96C282.261 595.451 208.764 583.645 122.604 571.395C100.981 568.326 79.0417 565.061 57.0289 562.625C5.23831 556.737 -45.8868 556.587 -94.8955 568.484C-192.732 592.126 -281.356 666.861 -315.919 765.392" stroke="url(#paint18_linear_7049_653)" stroke-miterlimit="10"/>
<path d="M2095 342.484C2036.91 311.318 1975.73 286.73 1913.27 265.37C1867.84 249.85 1821.96 237.632 1775.08 231.006C1690.41 218.887 1601.54 226.111 1522.74 261.283C1497.35 272.583 1473.53 286.861 1451.8 303.995C1342.81 389.97 1304.57 528.438 1231.12 641.592C1136.86 786.162 959.24 888.491 783.144 846.119C703.279 826.904 636.743 779.627 568.647 734.886C515.08 699.774 465.568 669.863 417.16 646.398C391.832 634.148 366.012 623.693 339.744 614.535C269.387 589.809 195.439 573.62 109.368 560.376C87.6082 556.96 65.8196 553.876 43.641 551.425C-8.35913 546.02 -59.7666 547.181 -108.711 560.253C-206.421 586.245 -293.971 662.077 -328.066 760.984" stroke="url(#paint19_linear_7049_653)" stroke-miterlimit="10"/>
<path d="M2098.83 348.333C2039.7 317.577 1977.91 292.434 1914.62 271.001C1868.69 255.438 1822.14 243.161 1774.76 236.491C1689.1 224.285 1599.04 231.738 1519.52 267.515C1493.95 278.966 1469.78 293.38 1447.86 310.832C1337.92 398.06 1300.17 538.575 1225.45 652.788C1129.37 799.036 947.123 898.953 769.5 854.943C689.679 835.231 622.782 788.256 555.076 742.881C502.05 707.316 453.015 675.776 404.812 649.99C379.6 636.414 353.746 624.453 327.442 613.788C256.802 584.693 182.238 564.107 96.2241 550.2C74.4792 546.618 52.7052 543.368 30.4975 541.249C-21.6976 536.16 -73.2217 538.648 -122.269 552.881C-220.001 581.043 -306.478 657.971 -340.105 757.253" stroke="url(#paint20_linear_7049_653)" stroke-miterlimit="10"/>
<path d="M2102.68 354.017C2042.51 323.671 1979.91 298.123 1915.96 276.632C1869.53 261.025 1822.49 248.704 1774.45 241.976C1687.77 229.848 1596.54 237.365 1516.48 273.596C1490.54 285.349 1466.37 299.929 1444.08 317.683C1333.18 406.33 1295.93 548.727 1219.97 663.833C1122.09 811.592 934.87 909.069 756.052 863.45C676.288 843.075 609.002 796.734 541.534 750.545C489.215 714.54 440.326 681.343 392.341 653.07C367.232 638.334 341.357 624.7 315.033 612.364C244.093 579.066 168.913 554.083 82.9871 539.18C61.2568 535.433 39.3169 532.168 17.0947 530.215C-35.31 525.609 -87.1165 529.409 -136.099 544.816C-233.856 575.147 -319.245 653.007 -352.403 752.664" stroke="url(#paint21_linear_7049_653)" stroke-miterlimit="10"/>
<path d="M2106.51 359.867C2045.29 330.096 1982.09 303.826 1917.47 282.277C1870.55 266.626 1823 254.262 1774.3 247.476C1686.63 235.26 1594.02 243.158 1513.44 279.676C1487.32 291.581 1462.8 306.298 1440.32 324.369C1328.29 414.421 1291.7 558.88 1214.32 674.863C1114.62 824.3 922.768 919.365 742.423 872.108C662.869 851.251 594.875 805.349 527.827 758.194C476.049 721.736 427.652 686.744 379.705 656.136C354.546 640.059 328.788 625.099 302.61 611.105C231.386 573.439 155.575 544.223 69.7361 528.326C48.035 524.247 26.0805 521.148 3.67787 519.347C-48.9218 515.058 -101.025 520.335 -149.944 536.917C-247.407 569.613 -331.888 648.555 -364.578 748.587" stroke="url(#paint22_linear_7049_653)" stroke-miterlimit="10"/>
<path d="M2110.34 365.716C2048.08 336.355 1984.26 309.53 1918.81 287.908C1871.39 272.214 1823.18 259.791 1773.98 252.961C1685.31 240.824 1591.52 248.785 1510.23 285.743C1483.93 297.798 1459.05 312.818 1436.56 331.054C1323.57 422.525 1287.48 568.866 1208.85 685.743C1107.33 836.857 910.666 929.661 728.973 880.615C649.478 859.095 581.094 813.827 514.285 765.857C463.048 728.946 415.143 692.16 367.4 659.231C342.358 641.828 316.565 625.361 290.352 609.86C218.829 567.992 142.402 534.379 56.6502 517.487C34.9636 513.243 12.8579 509.963 -9.55929 508.327C-62.3685 504.521 -114.754 511.109 -163.595 528.701C-261.276 563.884 -344.518 643.937 -376.74 744.344" stroke="url(#paint23_linear_7049_653)" stroke-miterlimit="10"/>
<path d="M2114.34 371.58C2051.04 342.629 1986.42 315.4 1920.32 293.553C1872.4 277.815 1823.7 265.349 1773.83 258.46C1684.16 246.236 1589.19 254.427 1507.34 292.004C1480.7 304.196 1455.8 319.381 1432.95 337.92C1318.84 430.63 1283.41 579.033 1203.52 696.968C1099.86 849.565 898.368 940.274 715.509 889.288C636.043 867.436 567.118 822.622 500.742 773.521C450.198 736.336 402.453 697.727 354.929 662.311C330.003 643.582 304.341 625.624 277.929 608.601C206.12 562.364 129.077 524.354 43.384 506.799C21.712 502.389 -0.393734 499.109 -22.9914 497.625C-75.9956 494.135 -128.678 502.201 -177.621 520.953C-274.994 558.335 -357.148 639.318 -389.067 740.086" stroke="url(#paint24_linear_7049_653)" stroke-miterlimit="10"/>
<path d="M2118.18 377.264C2053.85 348.723 1988.6 320.938 1921.68 299.018C1873.26 283.237 1824.06 270.726 1773.53 263.78C1682.85 251.634 1586.52 260.039 1504.15 297.904C1477.32 310.247 1452.07 325.735 1429.02 344.591C1313.96 438.72 1279.01 589.17 1197.89 707.832C1092.41 862.107 886.13 950.224 701.73 897.766C622.322 875.251 552.841 831.056 486.87 781.156C436.867 743.517 389.599 703.279 342.294 665.377C317.47 645.487 291.788 625.857 265.34 607.328C193.233 556.888 115.573 514.48 29.9676 495.931C8.32472 491.189 -13.9614 488.061 -36.4077 486.756C-89.6215 483.75 -142.406 492.976 -191.466 513.054C-288.711 552.786 -369.957 634.852 -401.242 736.009" stroke="url(#paint25_linear_7049_653)" stroke-miterlimit="10"/>
<path d="M2122.02 383.113C2009.29 334.617 1894.94 285.643 1773.37 269.445C1651.79 253.247 1519.99 273.57 1425.41 351.457C1309.22 446.99 1274.94 599.337 1192.57 718.891C1085.13 874.664 874.21 960.368 688.433 906.453C549.601 866.019 439.879 762.492 329.99 668.472C220.1 574.451 94.7696 483.083 -49.6583 475.902C-209.25 468.224 -366.9 579.157 -413.402 731.766" stroke="url(#paint26_linear_7049_653)" stroke-miterlimit="10"/>
<path d="M-404.273 730.564C-359.439 589.335 -218.165 485.983 -70.3225 480.935C-60.602 480.62 -50.9105 480.637 -41.2774 481.317C97.0929 488.967 218.016 573.433 325.026 662.189C328.773 665.191 332.34 668.344 336.087 671.346C445.819 763.348 555.955 864.072 693.679 901.903C878.103 952.191 1084.87 864.284 1193.56 711.461C1207.48 691.803 1220.32 671.215 1232.36 650.222C1291.96 546.374 1334.4 432.331 1431.13 356.638C1479.4 318.95 1536.77 295.593 1597.47 283.721C1656.13 272.338 1718.02 271.763 1777.32 279.648C1898.26 295.457 2012.33 341.9 2123.77 385.94" stroke="url(#paint27_linear_7049_653)" stroke-miterlimit="10"/>
<path d="M-395.308 729.347C-349.308 590.058 -208.311 489.857 -61.7457 486.033C-52.191 485.703 -42.5141 485.885 -32.881 486.565C104.27 494.777 224.286 578.16 331.125 665.063C334.872 668.065 338.453 671.053 342.2 674.055C451.761 764.204 562.145 862.11 698.94 897.187C882.178 943.862 1084.81 853.587 1194.56 703.864C1208.79 684.568 1221.58 664.476 1233.91 644.01C1294.93 542.96 1339.79 433.807 1436.86 361.819C1485.3 325.983 1542.39 303.938 1602.67 293.032C1660.93 282.449 1722.27 282.328 1781.43 289.866C1901.74 305.285 2015.37 349.183 2125.51 388.934" stroke="url(#paint28_linear_7049_653)" stroke-miterlimit="10"/>
<path d="M-386.179 728.145C-339.012 590.796 -198.14 493.925 -53.0038 491.145C-43.4637 490.981 -33.9526 491.148 -24.4853 491.813C111.432 500.752 230.555 582.888 337.222 667.938C340.969 670.94 344.565 673.762 348.312 676.764C457.867 765.075 568.499 860.163 704.035 892.456C886.086 935.519 1084.58 842.876 1195.39 696.253C1209.76 677.303 1222.85 657.738 1235.46 637.798C1297.92 539.38 1345.19 435.117 1442.44 366.819C1490.88 332.822 1547.84 312.269 1607.72 302.163C1665.55 292.545 1726.55 292.56 1785.23 299.889C1904.91 314.918 2018.24 356.452 2127.12 391.581" stroke="url(#paint29_linear_7049_653)" stroke-miterlimit="10"/>
<path d="M-377.215 726.928C-328.882 591.52 -188.287 497.797 -44.2473 496.09C-34.873 495.912 -25.3765 496.245 -15.9092 496.91C118.775 506.576 237.004 587.464 343.485 670.827C347.247 673.664 350.828 676.651 354.424 679.473C463.823 765.766 574.687 858.201 709.295 887.739C890.009 927.01 1084.35 832.164 1196.58 688.506C1211.07 670.067 1224.45 650.863 1237.34 631.615C1301.23 535.996 1350.92 436.456 1448.33 372.015C1496.95 339.87 1553.62 320.628 1612.92 311.473C1670.35 302.655 1730.8 303.124 1789.17 310.258C1908.21 324.897 2021.09 363.886 2128.68 394.725" stroke="url(#paint30_linear_7049_653)" stroke-miterlimit="10"/>
<path d="M-368.084 725.726C-318.585 592.258 -178.266 501.685 -35.5043 501.202C-26.1445 501.19 -16.8139 501.508 -7.51241 502.159C125.938 512.551 243.274 592.191 349.584 673.702C353.18 676.524 356.941 679.36 360.537 682.182C469.765 766.622 581.057 856.088 714.557 883.023C894.084 918.681 1084.12 821.453 1197.58 680.909C1212.2 662.817 1225.88 644.139 1239.06 625.418C1304.37 532.597 1356.47 437.946 1454.08 377.03C1502.7 346.723 1559.25 328.808 1618.13 320.618C1675.15 312.6 1735.25 313.371 1793.3 320.311C1911.7 334.559 2024.31 371.018 2130.61 397.567" stroke="url(#paint31_linear_7049_653)" stroke-miterlimit="10"/>
<path d="M-358.954 724.524C-308.288 592.995 -168.261 505.738 -26.7621 506.314C-17.5681 506.287 -8.25209 506.771 1.03482 507.588C133.251 518.707 249.861 597.114 355.819 676.923C359.414 679.745 363.19 682.415 366.786 685.237C475.857 767.659 587.548 854.487 719.955 878.653C898.295 910.699 1084.19 811.102 1198.72 673.659C1213.48 655.912 1227.28 637.747 1240.74 619.552C1307.49 529.363 1362.01 439.602 1459.79 382.377C1508.58 353.923 1564.68 337.47 1623.31 330.095C1679.93 322.876 1739.67 323.95 1797.22 330.845C1915.15 344.719 2027.15 378.618 2132.17 400.711" stroke="url(#paint32_linear_7049_653)" stroke-miterlimit="10"/>
<path d="M-349.99 723.307C-298.158 593.719 -158.408 509.611 -18.0056 511.26C-8.82627 511.398 0.323953 511.869 9.61086 512.685C140.593 524.531 256.295 601.855 362.096 679.646C365.707 682.302 369.483 684.973 373.079 687.795C482.144 768.378 593.917 852.374 725.396 873.786C902.398 902.038 1084.15 800.239 1199.91 665.746C1214.81 648.345 1228.9 630.706 1242.65 613.038C1310.83 525.647 1367.77 440.609 1465.71 387.241C1514.68 360.639 1570.49 345.498 1628.56 338.908C1684.77 332.489 1743.96 334.016 1801.38 340.566C1918.69 353.884 2030.23 385.404 2134.12 403.221" stroke="url(#paint33_linear_7049_653)" stroke-miterlimit="10"/>
<path d="M-340.86 722.105C-287.862 594.457 -148.237 513.679 -9.26383 516.372C-0.0844743 516.51 8.88532 517.131 18.0064 517.933C147.755 530.506 262.564 606.583 368.194 682.521C371.804 685.177 375.58 687.848 379.191 690.504C488.099 769.069 600.286 850.261 730.49 869.055C906.306 893.695 1083.92 789.528 1200.75 658.135C1215.77 641.246 1230.16 623.968 1244.2 606.826C1313.97 522.248 1373.15 442.085 1471.45 392.256C1520.42 367.493 1576.1 353.843 1633.77 348.053C1689.56 342.599 1748.41 344.263 1805.34 350.603C1922.02 363.532 2033.28 392.521 2135.72 405.868" stroke="url(#paint34_linear_7049_653)" stroke-miterlimit="10"/>
<path d="M-331.73 720.903C-277.551 595.029 -138.218 517.567 -0.507174 521.318C8.49177 521.607 17.4761 522.063 26.5827 523.03C155.098 536.33 269.014 611.159 374.457 685.41C378.082 687.9 381.693 690.557 385.483 693.061C494.22 769.774 606.82 848.162 735.932 864.187C910.561 885.215 1083.87 778.665 1201.93 650.387C1217.09 633.845 1231.76 617.093 1246.08 600.643C1317.29 518.697 1378.88 443.424 1477.35 397.451C1526.49 374.541 1581.89 362.203 1639.13 357.378C1694.52 352.724 1752.83 354.842 1809.44 360.987C1925.49 373.525 2036.29 400.136 2137.62 409.041" stroke="url(#paint35_linear_7049_653)" stroke-miterlimit="10"/>
<path d="M-322.751 719.52C-267.42 595.752 -128.363 521.44 8.25022 526.264C17.2492 526.553 26.0531 527.16 34.9792 528.279C162.275 542.14 275.284 615.886 380.556 688.285C384.181 690.775 387.806 693.266 391.43 695.756C500.01 770.45 612.829 846.352 741.027 859.456C914.275 877.189 1083.48 767.939 1202.77 642.776C1218.23 626.594 1232.86 610.34 1247.63 594.431C1320.26 515.283 1384.12 444.719 1482.92 402.452C1532.07 381.379 1587.17 370.519 1644.01 366.494C1699 362.64 1756.94 365.06 1813.24 371.01C1928.66 383.158 2039.18 407.239 2139.06 411.674" stroke="url(#paint36_linear_7049_653)" stroke-miterlimit="10"/>
<path d="M-313.621 718.318C-257.123 596.49 -118.344 525.328 16.9923 531.375C25.8108 531.816 34.7807 532.438 43.5409 533.542C169.603 548.129 281.719 620.628 386.805 691.34C390.43 693.83 394.069 696.155 397.694 698.645C506.102 771.486 619.335 844.584 746.439 854.92C918.515 868.875 1083.56 757.422 1203.94 635.194C1219.52 619.524 1234.45 603.63 1249.34 588.234C1323.4 511.884 1389.67 446.21 1488.65 407.633C1537.97 388.413 1592.79 378.864 1649.21 375.805C1703.79 372.75 1761.36 375.638 1817.18 381.379C1931.96 393.138 2042.03 414.673 2140.79 414.833" stroke="url(#paint37_linear_7049_653)" stroke-miterlimit="10"/>
<path d="M-304.491 717.116C-246.827 597.228 -108.338 529.381 25.7348 536.487C34.5533 536.928 43.3427 537.701 52.103 538.805C176.932 554.119 288.139 625.536 393.069 694.229C396.708 696.554 400.333 699.044 403.972 701.368C512.375 772.372 625.855 842.652 751.701 850.204C922.59 860.546 1083.34 746.711 1204.94 627.598C1220.66 612.274 1235.88 596.907 1251.06 582.036C1326.56 508.319 1395.24 447.534 1494.4 412.648C1543.89 395.281 1598.41 387.21 1654.42 384.95C1708.75 382.875 1765.64 385.871 1821.31 391.431C1935.45 402.8 2045.25 421.805 2142.56 417.494" stroke="url(#paint38_linear_7049_653)" stroke-miterlimit="10"/>
<path d="M-295.527 715.899C-236.697 597.951 -98.3194 533.268 34.4909 541.433C43.129 542.025 51.9185 542.798 60.5129 543.887C184.108 559.929 294.588 630.112 399.18 696.938C402.82 699.263 406.459 701.587 410.099 703.912C518.345 772.896 632.073 840.358 756.975 845.322C926.512 852.037 1083.12 735.834 1205.95 619.836C1221.81 604.858 1237.32 590.017 1252.79 575.673C1329.71 504.754 1400.82 448.693 1500.14 417.663C1549.63 402.134 1604.04 395.389 1659.47 394.08C1713.39 392.805 1769.91 396.269 1825.09 401.62C1938.6 412.599 2047.95 429.059 2144.13 420.473" stroke="url(#paint39_linear_7049_653)" stroke-miterlimit="10"/>
<path d="M-286.397 714.697C-226.4 598.689 -88.2992 537.156 43.2337 546.545C51.8718 547.137 60.4808 548.061 69.0752 549.15C191.436 565.918 301.024 634.854 405.43 699.993C409.069 702.318 412.723 704.476 416.363 706.801C524.438 773.933 638.579 838.591 762.388 840.786C930.738 843.889 1083.22 725.151 1207.27 612.434C1223.27 597.803 1238.9 583.473 1254.8 569.837C1333.15 501.716 1406.68 450.378 1506.35 423.054C1556.02 409.377 1610.12 404.109 1665.16 403.434C1718.68 402.959 1774.67 406.711 1829.54 411.867C1942.41 422.456 2051.49 436.386 2146.39 423.344" stroke="url(#paint40_linear_7049_653)" stroke-miterlimit="10"/>
<path d="M-277.266 713.495C-216.102 599.427 -78.2935 541.209 51.9911 551.491C60.4488 552.234 69.0578 553.158 77.4718 554.398C198.599 571.894 307.294 639.581 411.528 702.868C415.182 705.027 418.836 707.185 422.31 709.495C530.228 774.609 644.768 836.63 767.484 836.055C934.662 835.38 1082.83 714.425 1208.12 604.658C1224.24 590.538 1240.17 576.569 1256.2 563.444C1335.99 497.956 1411.92 451.673 1511.76 428.04C1561.6 416.216 1615.26 412.245 1670.05 412.55C1723.16 412.875 1778.79 416.929 1833.34 421.89C1945.58 432.089 2054.19 443.64 2147.81 426.142" stroke="url(#paint41_linear_7049_653)" stroke-miterlimit="10"/>
<path d="M-268.303 712.278C-205.973 600.15 -68.4404 545.083 60.7326 556.603C69.1903 557.346 77.6189 558.421 86.0329 559.662C205.927 577.883 313.728 644.323 417.777 705.923C421.431 708.082 424.919 710.226 428.588 712.219C536.5 775.494 651.137 834.517 772.91 831.354C938.736 827.051 1082.77 703.728 1209.29 597.076C1225.54 583.302 1241.77 569.86 1258.08 557.262C1339.29 494.571 1417.65 453.012 1517.67 433.07C1567.51 423.084 1621.05 420.439 1675.26 421.695C1727.95 422.985 1783.22 427.342 1837.28 432.093C1948.89 441.903 2057.06 450.908 2149.56 429.135" stroke="url(#paint42_linear_7049_653)" stroke-miterlimit="10"/>
<path d="M-259.173 711.076C-195.511 600.903 -58.2552 548.985 69.4891 561.549C77.7664 562.443 86.195 563.518 94.4432 564.744C213.103 583.693 320.011 648.885 423.889 708.632C427.557 710.625 431.046 712.769 434.714 714.762C542.47 776.019 657.505 832.403 778.019 826.457C942.673 818.376 1082.55 692.851 1210.14 589.299C1226.53 575.871 1243.04 562.956 1259.64 550.884C1342.3 490.826 1423.06 454.156 1523.24 438.07C1573.26 429.937 1626.51 428.77 1680.3 430.825C1732.6 432.915 1787.34 437.56 1841.08 442.116C1952.22 451.55 2059.95 458.011 2150.99 431.767" stroke="url(#paint43_linear_7049_653)" stroke-miterlimit="10"/>
<path d="M-250.041 709.874C-185.213 601.641 -48.2487 553.038 78.2328 566.66C86.5101 567.555 94.7728 568.615 103.006 570.007C220.599 589.697 326.434 653.793 430.154 711.521C433.823 713.514 437.325 715.492 440.994 717.485C548.578 776.89 664.027 830.471 783.447 821.755C946.915 810.062 1082.49 682.154 1211.31 581.717C1227.99 568.816 1244.47 556.232 1261.52 544.701C1345.6 487.441 1428.78 455.661 1529.15 443.1C1579.17 436.805 1632.3 436.964 1685.68 439.985C1737.57 442.875 1791.94 447.987 1845.37 452.349C1955.89 461.227 2063.15 465.309 2153.07 434.789" stroke="url(#paint44_linear_7049_653)" stroke-miterlimit="10"/>
<path d="M-241.078 708.657C-175.083 602.364 -38.3955 556.911 86.9744 571.772C95.2517 572.667 103.334 573.878 111.553 575.436C227.926 595.687 332.853 658.7 436.388 714.742C440.057 716.735 443.574 718.548 447.242 720.54C554.67 777.927 670.366 828.689 788.844 817.385C950.974 801.899 1082.4 671.789 1212.46 574.301C1229.28 561.746 1246.05 549.689 1263.21 538.835C1348.71 484.373 1434.32 457.317 1534.87 448.447C1585.06 444.004 1637.73 445.626 1690.7 449.447C1742.18 453.136 1796.02 458.536 1849.13 462.703C1959.02 471.192 2066.01 472.743 2154.48 437.753" stroke="url(#paint45_linear_7049_653)" stroke-miterlimit="10"/>
<path d="M-231.947 707.455C-164.786 603.102 -28.39 560.964 95.7316 576.718C103.828 577.764 111.911 578.975 119.964 580.518C235.103 601.496 339.138 663.262 442.501 717.451C446.018 719.263 449.687 721.256 453.204 723.069C560.46 778.602 676.599 826.23 793.94 812.654C954.912 793.224 1082.17 661.077 1213.3 566.69C1230.25 554.481 1247.31 542.95 1264.76 532.623C1351.7 480.794 1439.72 458.627 1540.6 453.627C1590.96 451.038 1643.34 453.971 1695.9 458.757C1746.98 463.247 1800.44 469.115 1853.24 473.087C1962.49 481.185 2069.03 480.192 2156.37 440.927" stroke="url(#paint46_linear_7049_653)" stroke-miterlimit="10"/>
<path d="M-222.985 706.238C-154.657 603.825 -18.5376 564.837 104.307 581.815C112.403 582.861 120.305 584.224 128.359 585.767C242.264 607.472 345.571 668.004 448.597 720.325C452.114 722.138 455.798 723.965 459.315 725.778C566.565 779.473 682.787 824.268 799.034 807.923C958.653 784.866 1081.78 650.351 1214.13 559.079C1231.21 547.382 1248.57 536.212 1266.31 526.411C1354.68 477.38 1445.1 460.102 1546.17 458.628C1596.54 457.876 1648.79 462.302 1700.96 467.722C1751.62 473.177 1804.74 479.182 1857.05 482.944C1965.67 490.653 2071.91 487.295 2157.83 443.393" stroke="url(#paint47_linear_7049_653)" stroke-miterlimit="10"/>
<path d="M-213.853 705.036C-144.359 604.563 -8.36522 568.905 113.216 586.941C121.133 588.138 129.035 589.501 136.922 591.03C249.594 613.461 352.008 672.746 454.848 723.381C458.365 725.193 462.063 726.855 465.58 728.667C572.673 780.344 689.294 822.501 804.447 803.388C962.88 776.718 1081.87 639.835 1215.3 551.497C1232.51 540.147 1249.99 529.488 1268.19 520.229C1357.98 473.995 1450.83 461.441 1552.07 463.824C1602.59 465.09 1654.58 470.662 1706.16 477.033C1756.41 483.287 1808.99 489.746 1861 493.147C1968.98 500.466 2074.79 494.563 2159.57 446.386" stroke="url(#paint48_linear_7049_653)" stroke-miterlimit="10"/>
<path d="M-204.71 703.668C-134.049 605.135 1.6678 572.627 121.986 591.722C129.903 592.919 137.624 594.432 145.512 595.961C256.95 619.119 358.471 677.156 461.139 725.938C464.671 727.585 468.203 729.232 471.886 731.059C578.808 780.883 695.691 820.056 809.902 798.354C966.997 767.892 1081.83 628.806 1216.5 543.584C1233.84 532.579 1251.6 522.613 1269.93 513.7C1361.33 470.113 1456.43 462.434 1557.84 468.507C1608.53 471.626 1660.06 478.661 1711.4 485.846C1761.25 492.9 1813.46 499.661 1865.14 503.034C1972.49 509.963 2078.02 501.53 2161.36 448.882" stroke="url(#paint49_linear_7049_653)" stroke-miterlimit="10"/>
<path d="M-195.744 702.451C-123.917 605.859 11.5227 576.5 130.564 596.819C138.3 598.167 146.021 599.681 153.894 601.375C264.099 625.261 364.712 682.215 467.209 729.144C470.741 730.791 474.273 732.438 477.985 733.934C584.75 781.74 702.032 818.275 815.149 793.804C971.058 759.729 1081.59 618.26 1217.65 536.168C1235.14 525.509 1253.18 516.07 1271.78 507.849C1364.61 467.06 1462.12 464.271 1563.7 474.034C1614.41 478.992 1665.81 487.352 1716.73 495.503C1766.18 503.357 1817.87 510.405 1869.23 513.583C1975.94 520.122 2081.02 509.144 2163.24 452.221" stroke="url(#paint50_linear_7049_653)" stroke-miterlimit="10"/>
<path d="M-186.615 701.249C-113.621 606.597 21.5275 580.554 139.486 601.779C147.222 603.128 154.929 604.807 162.47 606.472C271.441 631.085 371.161 686.791 473.653 731.883C477.199 733.364 480.731 735.01 484.278 736.492C591.037 782.459 708.566 816.176 820.425 788.922C975.146 751.235 1081.54 607.398 1218.67 528.406C1236.27 518.259 1254.62 509.18 1273.51 501.485C1367.76 463.495 1467.7 465.429 1569.46 478.884C1620.33 485.694 1671.44 495.531 1721.8 504.467C1770.82 513.287 1822.15 520.638 1873.19 523.621C1979.27 529.77 2084.08 516.262 2164.84 454.868" stroke="url(#paint51_linear_7049_653)" stroke-miterlimit="10"/>
<path d="M-177.484 700.046C-103.324 607.335 31.7135 584.456 148.229 606.891C264.744 629.327 370.504 688.571 479.751 734.757C589.15 781.124 711.156 815.235 825.686 784.206C998.904 737.62 1106.82 557.498 1275.23 495.288C1418.58 442.403 1577.03 484.059 1727.01 513.612C1876.99 543.165 2048.76 554.921 2166.6 457.695" stroke="url(#paint52_linear_7049_653)" stroke-miterlimit="10"/>
</g>
</g>
<g filter="url(#filter0_f_7049_653)">
<path d="M2050 333.663C2050 282.301 2005.23 240.663 1950 240.663C1894.77 240.663 1850 282.301 1850 333.663C1850 385.026 1894.77 426.663 1950 426.663C2005.23 426.663 2050 385.026 2050 333.663Z" fill="#C34EFE"/>
</g>
<g filter="url(#filter1_f_7049_653)">
<path d="M55 739.663C55 688.301 10.2285 646.663 -45 646.663C-100.228 646.663 -145 688.301 -145 739.663C-145 791.026 -100.228 832.663 -45 832.663C10.2285 832.663 55 791.026 55 739.663Z" fill="#437AEE"/>
</g>
</g>
<defs>
<filter id="filter0_f_7049_653" x="1550" y="-59.3369" width="800" height="786" filterUnits="userSpaceOnUse" color-interpolation-filters="sRGB">
<feFlood flood-opacity="0" result="BackgroundImageFix"/>
<feBlend mode="normal" in="SourceGraphic" in2="BackgroundImageFix" result="shape"/>
<feGaussianBlur stdDeviation="150" result="effect1_foregroundBlur_7049_653"/>
</filter>
<filter id="filter1_f_7049_653" x="-445" y="346.663" width="800" height="786" filterUnits="userSpaceOnUse" color-interpolation-filters="sRGB">
<feFlood flood-opacity="0" result="BackgroundImageFix"/>
<feBlend mode="normal" in="SourceGraphic" in2="BackgroundImageFix" result="shape"/>
<feGaussianBlur stdDeviation="150" result="effect1_foregroundBlur_7049_653"/>
</filter>
<linearGradient id="paint0_linear_7049_653" x1="1004.64" y1="56.2691" x2="927.835" y2="930.167" gradientUnits="userSpaceOnUse">
<stop stop-color="#437AEE"/>
<stop offset="1" stop-color="#C34EFE"/>
</linearGradient>
<linearGradient id="paint1_linear_7049_653" x1="1000.31" y1="61.762" x2="924.296" y2="926.682" gradientUnits="userSpaceOnUse">
<stop stop-color="#437AEE"/>
<stop offset="1" stop-color="#C34EFE"/>
</linearGradient>
<linearGradient id="paint2_linear_7049_653" x1="995.68" y1="66.9616" x2="920.414" y2="923.334" gradientUnits="userSpaceOnUse">
<stop stop-color="#437AEE"/>
<stop offset="1" stop-color="#C34EFE"/>
</linearGradient>
<linearGradient id="paint3_linear_7049_653" x1="991.133" y1="72.1071" x2="916.612" y2="919.993" gradientUnits="userSpaceOnUse">
<stop stop-color="#437AEE"/>
<stop offset="1" stop-color="#C34EFE"/>
</linearGradient>
<linearGradient id="paint4_linear_7049_653" x1="986.679" y1="77.1633" x2="912.91" y2="916.494" gradientUnits="userSpaceOnUse">
<stop stop-color="#437AEE"/>
<stop offset="1" stop-color="#C34EFE"/>
</linearGradient>
<linearGradient id="paint5_linear_7049_653" x1="982.035" y1="82.4632" x2="909.026" y2="913.145" gradientUnits="userSpaceOnUse">
<stop stop-color="#437AEE"/>
<stop offset="1" stop-color="#C34EFE"/>
</linearGradient>
<linearGradient id="paint6_linear_7049_653" x1="977.401" y1="87.6534" x2="905.172" y2="909.465" gradientUnits="userSpaceOnUse">
<stop stop-color="#437AEE"/>
<stop offset="1" stop-color="#C34EFE"/>
</linearGradient>
<linearGradient id="paint7_linear_7049_653" x1="972.77" y1="92.7857" x2="901.272" y2="906.283" gradientUnits="userSpaceOnUse">
<stop stop-color="#437AEE"/>
<stop offset="1" stop-color="#C34EFE"/>
</linearGradient>
<linearGradient id="paint8_linear_7049_653" x1="968.316" y1="97.8309" x2="897.584" y2="902.618" gradientUnits="userSpaceOnUse">
<stop stop-color="#437AEE"/>
<stop offset="1" stop-color="#C34EFE"/>
</linearGradient>
<linearGradient id="paint9_linear_7049_653" x1="963.755" y1="103.133" x2="893.768" y2="899.442" gradientUnits="userSpaceOnUse">
<stop stop-color="#437AEE"/>
<stop offset="1" stop-color="#C34EFE"/>
</linearGradient>
<linearGradient id="paint10_linear_7049_653" x1="959.44" y1="108.51" x2="890.217" y2="896.123" gradientUnits="userSpaceOnUse">
<stop stop-color="#437AEE"/>
<stop offset="1" stop-color="#C34EFE"/>
</linearGradient>
<linearGradient id="paint11_linear_7049_653" x1="954.729" y1="113.639" x2="886.28" y2="892.436" gradientUnits="userSpaceOnUse">
<stop stop-color="#437AEE"/>
<stop offset="1" stop-color="#C34EFE"/>
</linearGradient>
<linearGradient id="paint12_linear_7049_653" x1="950.027" y1="118.643" x2="882.328" y2="888.915" gradientUnits="userSpaceOnUse">
<stop stop-color="#437AEE"/>
<stop offset="1" stop-color="#C34EFE"/>
</linearGradient>
<linearGradient id="paint13_linear_7049_653" x1="945.646" y1="123.79" x2="878.663" y2="885.92" gradientUnits="userSpaceOnUse">
<stop stop-color="#437AEE"/>
<stop offset="1" stop-color="#C34EFE"/>
</linearGradient>
<linearGradient id="paint14_linear_7049_653" x1="940.935" y1="128.907" x2="874.74" y2="882.067" gradientUnits="userSpaceOnUse">
<stop stop-color="#437AEE"/>
<stop offset="1" stop-color="#C34EFE"/>
</linearGradient>
<linearGradient id="paint15_linear_7049_653" x1="936.619" y1="134.282" x2="871.188" y2="878.748" gradientUnits="userSpaceOnUse">
<stop stop-color="#437AEE"/>
<stop offset="1" stop-color="#C34EFE"/>
</linearGradient>
<linearGradient id="paint16_linear_7049_653" x1="931.991" y1="139.404" x2="867.319" y2="875.234" gradientUnits="userSpaceOnUse">
<stop stop-color="#437AEE"/>
<stop offset="1" stop-color="#C34EFE"/>
</linearGradient>
<linearGradient id="paint17_linear_7049_653" x1="927.29" y1="144.4" x2="863.352" y2="871.878" gradientUnits="userSpaceOnUse">
<stop stop-color="#437AEE"/>
<stop offset="1" stop-color="#C34EFE"/>
</linearGradient>
<linearGradient id="paint18_linear_7049_653" x1="922.814" y1="149.708" x2="859.621" y2="868.71" gradientUnits="userSpaceOnUse">
<stop stop-color="#437AEE"/>
<stop offset="1" stop-color="#C34EFE"/>
</linearGradient>
<linearGradient id="paint19_linear_7049_653" x1="918.348" y1="154.888" x2="855.932" y2="865.045" gradientUnits="userSpaceOnUse">
<stop stop-color="#437AEE"/>
<stop offset="1" stop-color="#C34EFE"/>
</linearGradient>
<linearGradient id="paint20_linear_7049_653" x1="913.886" y1="160.022" x2="851.796" y2="866.473" gradientUnits="userSpaceOnUse">
<stop stop-color="#437AEE"/>
<stop offset="1" stop-color="#C34EFE"/>
</linearGradient>
<linearGradient id="paint21_linear_7049_653" x1="909.254" y1="165.184" x2="846.762" y2="876.205" gradientUnits="userSpaceOnUse">
<stop stop-color="#437AEE"/>
<stop offset="1" stop-color="#C34EFE"/>
</linearGradient>
<linearGradient id="paint22_linear_7049_653" x1="904.709" y1="170.314" x2="841.795" y2="886.138" gradientUnits="userSpaceOnUse">
<stop stop-color="#437AEE"/>
<stop offset="1" stop-color="#C34EFE"/>
</linearGradient>
<linearGradient id="paint23_linear_7049_653" x1="900.159" y1="175.481" x2="836.835" y2="895.979" gradientUnits="userSpaceOnUse">
<stop stop-color="#437AEE"/>
<stop offset="1" stop-color="#C34EFE"/>
</linearGradient>
<linearGradient id="paint24_linear_7049_653" x1="895.614" y1="180.605" x2="831.854" y2="906.065" gradientUnits="userSpaceOnUse">
<stop stop-color="#437AEE"/>
<stop offset="1" stop-color="#C34EFE"/>
</linearGradient>
<linearGradient id="paint25_linear_7049_653" x1="891.081" y1="185.607" x2="826.898" y2="915.87" gradientUnits="userSpaceOnUse">
<stop stop-color="#437AEE"/>
<stop offset="1" stop-color="#C34EFE"/>
</linearGradient>
<linearGradient id="paint26_linear_7049_653" x1="886.522" y1="190.898" x2="821.927" y2="925.857" gradientUnits="userSpaceOnUse">
<stop stop-color="#437AEE"/>
<stop offset="1" stop-color="#C34EFE"/>
</linearGradient>
<linearGradient id="paint27_linear_7049_653" x1="891.135" y1="201.152" x2="827.949" y2="920.078" gradientUnits="userSpaceOnUse">
<stop stop-color="#437AEE"/>
<stop offset="1" stop-color="#C34EFE"/>
</linearGradient>
<linearGradient id="paint28_linear_7049_653" x1="895.657" y1="211.501" x2="833.895" y2="914.227" gradientUnits="userSpaceOnUse">
<stop stop-color="#437AEE"/>
<stop offset="1" stop-color="#C34EFE"/>
</linearGradient>
<linearGradient id="paint29_linear_7049_653" x1="900.197" y1="221.639" x2="839.83" y2="908.488" gradientUnits="userSpaceOnUse">
<stop stop-color="#437AEE"/>
<stop offset="1" stop-color="#C34EFE"/>
</linearGradient>
<linearGradient id="paint30_linear_7049_653" x1="904.627" y1="232.083" x2="845.676" y2="902.821" gradientUnits="userSpaceOnUse">
<stop stop-color="#437AEE"/>
<stop offset="1" stop-color="#C34EFE"/>
</linearGradient>
<linearGradient id="paint31_linear_7049_653" x1="909.334" y1="242.227" x2="851.757" y2="897.338" gradientUnits="userSpaceOnUse">
<stop stop-color="#437AEE"/>
<stop offset="1" stop-color="#C34EFE"/>
</linearGradient>
<linearGradient id="paint32_linear_7049_653" x1="913.837" y1="252.791" x2="857.631" y2="892.297" gradientUnits="userSpaceOnUse">
<stop stop-color="#437AEE"/>
<stop offset="1" stop-color="#C34EFE"/>
</linearGradient>
<linearGradient id="paint33_linear_7049_653" x1="918.486" y1="262.649" x2="863.623" y2="886.873" gradientUnits="userSpaceOnUse">
<stop stop-color="#437AEE"/>
<stop offset="1" stop-color="#C34EFE"/>
</linearGradient>
<linearGradient id="paint34_linear_7049_653" x1="923.025" y1="272.786" x2="869.502" y2="881.768" gradientUnits="userSpaceOnUse">
<stop stop-color="#437AEE"/>
<stop offset="1" stop-color="#C34EFE"/>
</linearGradient>
<linearGradient id="paint35_linear_7049_653" x1="927.704" y1="283.252" x2="875.55" y2="876.649" gradientUnits="userSpaceOnUse">
<stop stop-color="#437AEE"/>
<stop offset="1" stop-color="#C34EFE"/>
</linearGradient>
<linearGradient id="paint36_linear_7049_653" x1="932.08" y1="293.366" x2="881.24" y2="871.817" gradientUnits="userSpaceOnUse">
<stop stop-color="#437AEE"/>
<stop offset="1" stop-color="#C34EFE"/>
</linearGradient>
<linearGradient id="paint37_linear_7049_653" x1="936.675" y1="303.825" x2="887.152" y2="867.296" gradientUnits="userSpaceOnUse">
<stop stop-color="#437AEE"/>
<stop offset="1" stop-color="#C34EFE"/>
</linearGradient>
<linearGradient id="paint38_linear_7049_653" x1="941.478" y1="311.932" x2="893.064" y2="862.775" gradientUnits="userSpaceOnUse">
<stop stop-color="#437AEE"/>
<stop offset="1" stop-color="#C34EFE"/>
</linearGradient>
<linearGradient id="paint39_linear_7049_653" x1="946.536" y1="315.216" x2="898.812" y2="858.222" gradientUnits="userSpaceOnUse">
<stop stop-color="#437AEE"/>
<stop offset="1" stop-color="#C34EFE"/>
</linearGradient>
<linearGradient id="paint40_linear_7049_653" x1="952.025" y1="318.371" x2="904.929" y2="854.228" gradientUnits="userSpaceOnUse">
<stop stop-color="#437AEE"/>
<stop offset="1" stop-color="#C34EFE"/>
</linearGradient>
<linearGradient id="paint41_linear_7049_653" x1="957.099" y1="321.49" x2="910.63" y2="850.211" gradientUnits="userSpaceOnUse">
<stop stop-color="#437AEE"/>
<stop offset="1" stop-color="#C34EFE"/>
</linearGradient>
<linearGradient id="paint42_linear_7049_653" x1="962.241" y1="324.782" x2="916.401" y2="846.345" gradientUnits="userSpaceOnUse">
<stop stop-color="#437AEE"/>
<stop offset="1" stop-color="#C34EFE"/>
</linearGradient>
<linearGradient id="paint43_linear_7049_653" x1="967.329" y1="327.735" x2="922.083" y2="842.529" gradientUnits="userSpaceOnUse">
<stop stop-color="#437AEE"/>
<stop offset="1" stop-color="#C34EFE"/>
</linearGradient>
<linearGradient id="paint44_linear_7049_653" x1="972.721" y1="331.049" x2="928.067" y2="839.111" gradientUnits="userSpaceOnUse">
<stop stop-color="#437AEE"/>
<stop offset="1" stop-color="#C34EFE"/>
</linearGradient>
<linearGradient id="paint45_linear_7049_653" x1="977.696" y1="334.326" x2="933.594" y2="836.115" gradientUnits="userSpaceOnUse">
<stop stop-color="#437AEE"/>
<stop offset="1" stop-color="#C34EFE"/>
</linearGradient>
<linearGradient id="paint46_linear_7049_653" x1="982.99" y1="337.798" x2="939.478" y2="832.875" gradientUnits="userSpaceOnUse">
<stop stop-color="#437AEE"/>
<stop offset="1" stop-color="#C34EFE"/>
</linearGradient>
<linearGradient id="paint47_linear_7049_653" x1="988.009" y1="340.578" x2="944.991" y2="830.022" gradientUnits="userSpaceOnUse">
<stop stop-color="#437AEE"/>
<stop offset="1" stop-color="#C34EFE"/>
</linearGradient>
<linearGradient id="paint48_linear_7049_653" x1="993.235" y1="343.877" x2="950.725" y2="827.552" gradientUnits="userSpaceOnUse">
<stop stop-color="#437AEE"/>
<stop offset="1" stop-color="#C34EFE"/>
</linearGradient>
<linearGradient id="paint49_linear_7049_653" x1="998.502" y1="346.679" x2="956.484" y2="824.757" gradientUnits="userSpaceOnUse">
<stop stop-color="#437AEE"/>
<stop offset="1" stop-color="#C34EFE"/>
</linearGradient>
<linearGradient id="paint50_linear_7049_653" x1="1003.7" y1="350.31" x2="962.179" y2="822.727" gradientUnits="userSpaceOnUse">
<stop stop-color="#437AEE"/>
<stop offset="1" stop-color="#C34EFE"/>
</linearGradient>
<linearGradient id="paint51_linear_7049_653" x1="1008.87" y1="353.27" x2="967.795" y2="820.622" gradientUnits="userSpaceOnUse">
<stop stop-color="#437AEE"/>
<stop offset="1" stop-color="#C34EFE"/>
</linearGradient>
<linearGradient id="paint52_linear_7049_653" x1="1014.11" y1="356.403" x2="973.46" y2="818.918" gradientUnits="userSpaceOnUse">
<stop stop-color="#437AEE"/>
<stop offset="1" stop-color="#C34EFE"/>
</linearGradient>
<clipPath id="clip0_7049_653">
<rect width="1920" height="1130" fill="white" transform="translate(0 0.663086)"/>
</clipPath>
</defs>
</svg>
